<svg width="1000" height="518" viewBox="0 0 1000 518" fill="none" xmlns="http://www.w3.org/2000/svg">
<path d="M422 226.546C422 159.38 476.448 0 543.614 0C610.779 0 665.227 159.38 665.227 226.546C665.227 258.8 652.415 289.733 629.608 312.54C606.801 335.347 575.868 348.159 543.614 348.159C511.36 348.159 480.427 335.347 457.62 312.54C434.813 289.733 422 258.8 422 226.546Z" fill="#00BFA6"/>
<path d="M549.614 514.417C549.349 514.417 549.094 514.312 548.907 514.124C548.719 513.937 548.614 513.682 548.614 513.417V94.1328C548.614 93.8676 548.719 93.6132 548.907 93.4257C549.094 93.2382 549.349 93.1328 549.614 93.1328C549.879 93.1328 550.133 93.2382 550.321 93.4257C550.508 93.6132 550.614 93.8676 550.614 94.1328V513.417C550.614 513.682 550.508 513.937 550.321 514.124C550.133 514.312 549.879 514.417 549.614 514.417Z" fill="#3F3D56"/>
<path d="M549.614 175.08C549.482 175.08 549.352 175.055 549.231 175.004C549.109 174.954 548.999 174.88 548.906 174.787L500.772 126.653C500.678 126.56 500.604 126.45 500.553 126.328C500.501 126.207 500.475 126.076 500.475 125.944C500.474 125.813 500.5 125.682 500.55 125.56C500.6 125.438 500.674 125.327 500.768 125.234C500.861 125.141 500.972 125.067 501.093 125.017C501.215 124.967 501.346 124.941 501.478 124.941C501.61 124.942 501.74 124.968 501.862 125.019C501.983 125.07 502.094 125.145 502.186 125.239L550.321 173.373C550.461 173.513 550.556 173.691 550.594 173.885C550.633 174.079 550.613 174.28 550.537 174.463C550.462 174.646 550.334 174.802 550.169 174.912C550.005 175.021 549.811 175.08 549.614 175.08Z" fill="#3F3D56"/>
<path d="M549.614 258.41C549.416 258.41 549.223 258.351 549.058 258.241C548.894 258.131 548.766 257.975 548.69 257.792C548.614 257.61 548.594 257.409 548.633 257.215C548.672 257.021 548.767 256.843 548.907 256.703L629.517 176.092C629.609 175.999 629.719 175.924 629.841 175.873C629.963 175.822 630.093 175.795 630.225 175.795C630.357 175.794 630.487 175.82 630.609 175.87C630.731 175.921 630.842 175.995 630.935 176.088C631.028 176.181 631.102 176.292 631.153 176.414C631.203 176.536 631.229 176.666 631.228 176.798C631.228 176.93 631.201 177.06 631.15 177.182C631.099 177.304 631.025 177.414 630.931 177.506L550.321 258.117C550.228 258.21 550.118 258.284 549.997 258.334C549.875 258.384 549.745 258.41 549.614 258.41Z" fill="#3F3D56"/>
<path d="M659.729 300.291C659.729 252.027 698.88 137.5 747.177 137.5C795.473 137.5 834.625 252.027 834.625 300.291C834.609 323.473 825.389 345.701 808.991 362.088C792.593 378.475 770.359 387.68 747.177 387.68C723.994 387.68 701.76 378.475 685.362 362.088C668.964 345.701 659.744 323.473 659.729 300.291Z" fill="#E6E6E6"/>
<path d="M747.177 512.9C747.082 512.9 746.989 512.881 746.901 512.845C746.814 512.809 746.735 512.756 746.668 512.689C746.601 512.623 746.548 512.543 746.512 512.456C746.476 512.369 746.458 512.275 746.458 512.181V210.892C746.458 210.702 746.534 210.52 746.669 210.385C746.804 210.251 746.986 210.176 747.177 210.176C747.367 210.176 747.549 210.251 747.684 210.385C747.819 210.52 747.895 210.702 747.896 210.892V512.181C747.896 512.275 747.877 512.369 747.841 512.456C747.805 512.543 747.752 512.623 747.685 512.689C747.618 512.756 747.539 512.809 747.452 512.845C747.364 512.881 747.271 512.9 747.177 512.9Z" fill="#3F3D56"/>
<path d="M747.177 269.057C747.082 269.057 746.989 269.039 746.901 269.002C746.814 268.966 746.735 268.913 746.668 268.846L712.056 234.258C711.922 234.123 711.846 233.94 711.846 233.75C711.846 233.559 711.922 233.376 712.057 233.242C712.192 233.107 712.374 233.031 712.565 233.031C712.756 233.031 712.939 233.107 713.073 233.242L747.685 267.83C747.786 267.931 747.854 268.059 747.882 268.198C747.909 268.338 747.895 268.482 747.841 268.614C747.786 268.745 747.694 268.857 747.576 268.936C747.458 269.015 747.319 269.057 747.177 269.057Z" fill="#3F3D56"/>
<path d="M747.177 328.937C747.035 328.937 746.896 328.895 746.777 328.816C746.659 328.737 746.567 328.624 746.513 328.493C746.458 328.362 746.444 328.217 746.472 328.078C746.499 327.938 746.568 327.81 746.668 327.71L804.632 269.785C804.699 269.718 804.778 269.665 804.865 269.629C804.952 269.593 805.046 269.574 805.14 269.574C805.235 269.574 805.328 269.593 805.415 269.629C805.503 269.665 805.582 269.718 805.649 269.785C805.715 269.851 805.768 269.93 805.805 270.018C805.841 270.105 805.859 270.198 805.859 270.293C805.859 270.387 805.841 270.481 805.805 270.568C805.769 270.655 805.716 270.734 805.649 270.801L747.685 328.726C747.618 328.793 747.539 328.846 747.452 328.882C747.365 328.918 747.271 328.937 747.177 328.937Z" fill="#3F3D56"/>
<path d="M752.396 507.136C751.15 507.134 749.926 506.804 748.848 506.178C747.77 505.552 746.877 504.653 746.258 503.571C745.639 502.489 745.317 501.263 745.323 500.017C745.33 498.771 745.665 497.548 746.295 496.473L756.21 479.545L768.436 486.706L758.521 503.634C757.895 504.702 757 505.587 755.925 506.201C754.851 506.815 753.634 507.138 752.396 507.136Z" fill="#00BFA6"/>
<path d="M791.304 468.448C796.119 468.448 800.023 464.544 800.023 459.729C800.023 454.913 796.119 451.01 791.304 451.01C786.488 451.01 782.585 454.913 782.585 459.729C782.585 464.544 786.488 468.448 791.304 468.448Z" fill="#00BFA6"/>
<path d="M714.035 507.136C712.788 507.135 711.564 506.804 710.487 506.178C709.409 505.552 708.515 504.653 707.896 503.571C707.277 502.489 706.955 501.263 706.962 500.017C706.968 498.77 707.304 497.548 707.934 496.473L717.849 479.545L730.074 486.706L720.159 503.634C719.533 504.701 718.638 505.586 717.564 506.201C716.489 506.815 715.273 507.138 714.035 507.136Z" fill="#00BFA6"/>
<path d="M771.119 495.821H727.188C721.209 495.814 715.477 493.436 711.25 489.209C707.022 484.981 704.644 479.249 704.637 473.271V466.597C704.64 464.521 705.465 462.53 706.933 461.062C708.402 459.594 710.392 458.768 712.468 458.766H771.119C776.033 458.766 780.746 460.718 784.22 464.192C787.695 467.667 789.647 472.38 789.647 477.293C789.647 482.207 787.695 486.92 784.22 490.395C780.746 493.869 776.033 495.821 771.119 495.821Z" fill="#3F3D56"/>
<path d="M769.038 512.901C767.159 512.899 765.359 512.152 764.031 510.824C762.703 509.496 761.955 507.695 761.953 505.817V486.199H776.122V505.817C776.12 507.695 775.373 509.496 774.044 510.824C772.716 512.152 770.916 512.899 769.038 512.901Z" fill="#3F3D56"/>
<path d="M727.925 512.901C726.047 512.899 724.246 512.152 722.918 510.824C721.59 509.496 720.843 507.695 720.841 505.817V486.199H735.009V505.817C735.007 507.695 734.26 509.496 732.932 510.824C731.604 512.152 729.803 512.899 727.925 512.901Z" fill="#3F3D56"/>
<path d="M691.696 446.045L678.1 456.964L663.768 439.12C662.327 437.316 661.661 435.015 661.914 432.72C662.168 430.426 663.321 428.326 665.121 426.88C666.92 425.435 669.22 424.762 671.515 425.009C673.81 425.257 675.914 426.404 677.364 428.2L691.696 446.045Z" fill="#00BFA6"/>
<path d="M710.922 472.193L688.436 490.253C687.135 491.295 685.474 491.779 683.817 491.598C682.16 491.417 680.642 490.586 679.597 489.288L670.138 477.51C666.818 473.368 665.278 468.078 665.854 462.801C666.43 457.524 669.076 452.691 673.21 449.362L676.798 446.481C680.272 443.697 684.709 442.405 689.135 442.888C693.56 443.372 697.614 445.591 700.406 449.059L711.887 463.354C712.93 464.655 713.413 466.316 713.232 467.973C713.051 469.63 712.221 471.148 710.922 472.193Z" fill="#3F3D56"/>
<path d="M691.696 446.046L682.349 453.553L666.31 433.584C665.315 432.344 664.853 430.76 665.025 429.18C665.198 427.599 665.991 426.152 667.23 425.157C668.47 424.161 670.054 423.699 671.635 423.871C673.215 424.044 674.662 424.837 675.658 426.077L691.696 446.046Z" fill="#3F3D56"/>
<path d="M709.553 473.051L684.91 492.842C683.107 494.284 680.805 494.951 678.51 494.697C676.215 494.444 674.115 493.291 672.669 491.491C671.223 489.691 670.551 487.391 670.798 485.096C671.046 482.8 672.194 480.697 673.991 479.247L698.633 459.455L709.553 473.051Z" fill="#3F3D56"/>
<path d="M675.494 493.739C676.374 493.033 676.056 491.176 674.784 489.592C673.512 488.008 671.768 487.297 670.888 488.004C670.008 488.71 670.326 490.567 671.598 492.151C672.87 493.735 674.614 494.446 675.494 493.739Z" fill="#00BFA6"/>
<path d="M605.567 501.338C605.567 504.123 604.461 506.793 602.492 508.763C600.523 510.732 597.852 511.838 595.067 511.838C589.268 511.838 589.067 506.588 593.567 501.338C589.067 498.338 589.268 490.838 595.067 490.838C597.852 490.838 600.523 491.944 602.492 493.913C604.461 495.882 605.567 498.553 605.567 501.338Z" fill="#CCCCCC"/>
<path d="M635.568 501.338C635.568 504.123 636.674 506.793 638.643 508.763C640.612 510.732 643.283 511.838 646.068 511.838C651.867 511.838 652.068 506.588 647.568 501.338C652.068 498.338 651.867 490.838 646.068 490.838C643.283 490.838 640.612 491.944 638.643 493.913C636.674 495.882 635.568 498.553 635.568 501.338Z" fill="#CCCCCC"/>
<path d="M641.568 496.088H599.568V506.588H641.568V496.088Z" fill="#CCCCCC"/>
<path d="M902.872 315.641C911.046 315.641 917.672 309.015 917.672 300.841C917.672 292.667 911.046 286.041 902.872 286.041C894.698 286.041 888.072 292.667 888.072 300.841C888.072 309.015 894.698 315.641 902.872 315.641Z" fill="#A0616A"/>
<path d="M901.916 383.812C901.63 382.923 901.536 381.983 901.639 381.055C901.742 380.126 902.04 379.23 902.514 378.425C902.987 377.62 903.625 376.924 904.387 376.383C905.148 375.842 906.015 375.467 906.931 375.285C907.221 375.228 907.515 375.192 907.81 375.176L923.4 350.155L909.159 336.617C908.615 336.1 908.179 335.48 907.876 334.793C907.573 334.107 907.408 333.366 907.393 332.616C907.377 331.865 907.511 331.119 907.785 330.42C908.059 329.722 908.47 329.084 908.992 328.545C909.514 328.005 910.138 327.575 910.827 327.278C911.517 326.981 912.258 326.824 913.009 326.815C913.76 326.806 914.505 326.946 915.201 327.227C915.897 327.508 916.531 327.924 917.065 328.451L936.727 347.838L936.767 347.886C937.375 348.812 937.669 349.908 937.604 351.014C937.54 352.12 937.12 353.175 936.409 354.023L914.565 379.858C914.63 380.065 914.685 380.275 914.728 380.488C914.911 381.404 914.898 382.348 914.69 383.259C914.482 384.169 914.084 385.026 913.523 385.772C912.961 386.518 912.248 387.137 911.43 387.589C910.612 388.04 909.708 388.314 908.777 388.391C908.589 388.408 908.402 388.416 908.216 388.416C906.814 388.41 905.451 387.962 904.32 387.135C903.188 386.308 902.347 385.145 901.916 383.812Z" fill="#A0616A"/>
<path d="M878.497 506.819H871.109L867.595 478.324L878.498 478.325L878.497 506.819Z" fill="#A0616A"/>
<path d="M880.682 514.282L856.259 514.281V513.678C856.259 512.421 856.507 511.176 856.988 510.015C857.469 508.853 858.174 507.798 859.063 506.909C859.952 506.02 861.007 505.315 862.169 504.834C863.33 504.353 864.575 504.105 865.832 504.105L880.682 504.106L880.682 514.282Z" fill="#2F2E41"/>
<path d="M951.924 496.606L945.576 500.386L927.978 477.701L937.347 472.123L951.924 496.606Z" fill="#A0616A"/>
<path d="M936.635 514.394L936.326 513.876C935.028 511.695 934.648 509.087 935.272 506.626C935.896 504.165 937.473 502.052 939.654 500.753L952.414 493.156L957.619 501.899L936.635 514.394Z" fill="#2F2E41"/>
<path d="M866.663 494.27C861.714 435.997 858.77 381.862 876.861 359.779L877.001 359.607L907.447 371.786L907.497 371.895C907.599 372.119 917.725 394.391 915.363 409.372L922.873 443.916L947.359 484.916C947.556 485.246 947.681 485.614 947.725 485.996C947.769 486.378 947.731 486.765 947.614 487.131C947.497 487.498 947.304 487.835 947.047 488.121C946.79 488.407 946.475 488.635 946.123 488.789L935.482 493.471C934.881 493.732 934.207 493.769 933.582 493.573C932.957 493.378 932.423 492.964 932.078 492.407L905.442 448.973L890.397 415.659C890.315 415.479 890.176 415.33 890.002 415.236C889.827 415.142 889.626 415.108 889.43 415.139C889.234 415.171 889.054 415.266 888.917 415.41C888.781 415.554 888.695 415.739 888.674 415.936L880.335 494.329C880.265 494.995 879.951 495.612 879.453 496.06C878.955 496.508 878.308 496.755 877.638 496.754H869.366C868.687 496.75 868.034 496.493 867.535 496.034C867.035 495.575 866.724 494.946 866.663 494.27Z" fill="#2F2E41"/>
<path d="M876.964 360.241L876.819 360.172L876.796 360.012C875.659 352.052 877.005 343.208 880.797 333.725C882.666 329.083 886.141 325.268 890.587 322.974C895.033 320.68 900.156 320.059 905.022 321.225C907.825 321.916 910.453 323.181 912.742 324.941C915.03 326.7 916.928 328.916 918.315 331.447C919.684 333.953 920.519 336.715 920.765 339.56C921.011 342.405 920.664 345.269 919.745 347.973C914.964 361.953 908.762 375.033 908.7 375.164L908.57 375.437L876.964 360.241Z" fill="#00BFA6"/>
<path d="M855.057 393.254C854.847 391.646 855.222 390.016 856.113 388.662C857.003 387.307 858.351 386.317 859.91 385.871L888.38 331.213C888.754 330.599 889.246 330.066 889.827 329.642C890.408 329.219 891.067 328.915 891.766 328.748C892.465 328.58 893.191 328.553 893.901 328.666C894.61 328.78 895.291 329.033 895.902 329.411C896.514 329.788 897.045 330.283 897.465 330.867C897.885 331.451 898.185 332.111 898.349 332.811C898.512 333.511 898.536 334.237 898.418 334.946C898.3 335.655 898.043 336.334 897.662 336.944L868.52 391.221C868.581 391.551 868.617 391.886 868.628 392.221C868.653 393.139 868.492 394.053 868.155 394.907C867.818 395.761 867.312 396.538 866.667 397.191C866.022 397.845 865.251 398.361 864.402 398.71C863.552 399.058 862.641 399.231 861.723 399.218C860.717 399.204 859.726 398.967 858.822 398.524C857.918 398.081 857.123 397.444 856.495 396.657C855.707 395.679 855.209 394.5 855.057 393.254Z" fill="#A0616A"/>
<path d="M884.928 292.481H908.428V282.237C903.27 280.188 898.223 278.445 895.172 282.237C892.455 282.237 889.849 283.316 887.928 285.238C886.007 287.159 884.928 289.764 884.928 292.481Z" fill="#2F2E41"/>
<path d="M909.729 280.43C923.778 280.43 927.711 298.04 927.711 307.974C927.711 313.515 925.205 315.496 921.268 316.167L919.877 308.751L916.62 316.486C915.514 316.491 914.353 316.47 913.148 316.448L912.044 314.174L909.581 316.407C899.719 316.422 891.748 317.859 891.748 307.974C891.748 298.04 895.197 280.43 909.729 280.43Z" fill="#2F2E41"/>
<path d="M998.663 518H1.3369C0.982331 518 0.642285 517.895 0.391567 517.707C0.14085 517.52 0 517.265 0 517C0 516.735 0.14085 516.48 0.391567 516.293C0.642285 516.105 0.982331 516 1.3369 516H998.663C999.018 516 999.358 516.105 999.609 516.293C999.859 516.48 1000 516.735 1000 517C1000 517.265 999.859 517.52 999.609 517.707C999.358 517.895 999.018 518 998.663 518Z" fill="#3F3D56"/>
<path d="M187.919 372.472C188.081 371.381 187.999 370.269 187.681 369.213C187.363 368.156 186.816 367.182 186.079 366.359C185.341 365.536 184.431 364.883 183.412 364.447C182.394 364.012 181.291 363.803 180.183 363.837L131.598 315L122 328.339L172.775 372.15C172.956 373.997 173.811 375.715 175.18 376.977C176.549 378.239 178.337 378.959 180.203 378.998C182.07 379.038 183.886 378.396 185.309 377.193C186.731 375.99 187.66 374.31 187.919 372.472Z" fill="#FFB8B8"/>
<path d="M165.062 344.571L152.528 357.066C151.928 357.661 151.117 357.997 150.271 358C149.425 358.003 148.611 357.675 148.006 357.084L113.755 323.479C112.571 322.317 111.629 320.933 110.985 319.405C110.34 317.878 110.006 316.238 110 314.58C109.995 312.923 110.318 311.281 110.953 309.749C111.587 308.218 112.519 306.827 113.696 305.657C114.872 304.487 116.269 303.561 117.806 302.934C119.343 302.306 120.99 301.989 122.651 302C124.311 302.012 125.953 302.352 127.481 303C129.01 303.649 130.394 304.593 131.554 305.779L165.091 340.064C165.679 340.669 166.005 341.481 166 342.323C165.995 343.166 165.658 343.973 165.062 344.571Z" fill="#00BFA6"/>
<path d="M121.5 283C131.165 283 139 275.165 139 265.5C139 255.835 131.165 248 121.5 248C111.835 248 104 255.835 104 265.5C104 275.165 111.835 283 121.5 283Z" fill="#FFB8B8"/>
<path d="M63 474.356L67.3593 482L98 468.283L91.5658 457L63 474.356Z" fill="#FFB8B8"/>
<path d="M63.7565 471L72.4843 485.818C73.2147 487.058 73.6939 488.43 73.8938 489.855C74.0937 491.28 74.0108 492.731 73.6498 494.124C73.2888 495.517 72.6567 496.825 71.7898 497.974C70.9228 499.123 69.8379 500.09 68.5969 500.819L68.2898 501L54 476.739L63.7565 471Z" fill="#2F2E41"/>
<path d="M114.001 501H122.81L127 468L114 468.001L114.001 501Z" fill="#FFB8B8"/>
<path d="M113 501.001L137.144 501H137.145C139.165 501 141.166 501.398 143.033 502.171C144.9 502.944 146.596 504.078 148.025 505.506C149.453 506.935 150.587 508.631 151.36 510.498C152.133 512.365 152.531 514.366 152.531 516.386V516.886L113.001 516.888L113 501.001Z" fill="#2F2E41"/>
<path d="M78.5769 481C78.0766 481 77.5831 480.883 77.1366 480.658C76.6901 480.433 76.3031 480.106 76.0068 479.705L67.6215 468.356C67.3657 468.01 67.183 467.616 67.0844 467.197C66.9858 466.779 66.9735 466.344 67.048 465.921C67.1225 465.498 67.2825 465.094 67.5181 464.734C67.7538 464.373 68.0602 464.065 68.419 463.826L105.733 438.991L83.2181 380L131.365 383.959L132.986 434.653C133.138 439.27 132.028 443.841 129.774 447.877C127.519 451.913 124.206 455.263 120.189 457.567L80.1714 480.573C79.6869 480.853 79.1369 481 78.5769 481Z" fill="#2F2E41"/>
<path d="M113.982 495C113.151 494.998 112.352 494.676 111.754 494.1C111.157 493.523 110.806 492.739 110.777 491.91L109 442.156L131 441L129.248 491.112C129.222 491.906 128.901 492.662 128.347 493.232C127.792 493.802 127.044 494.146 126.249 494.197L114.201 494.993C114.127 494.998 114.055 495 113.982 495Z" fill="#2F2E41"/>
<path d="M136.885 394C131.39 394 112.197 387.741 105.534 385.51C104.537 386.318 99.0615 390.464 92.6696 389.707C88.7256 389.238 85.2535 386.977 82.3498 382.987C75.9375 374.174 83.8574 336.381 91.6307 306.229C93.189 300.134 97.0201 294.889 102.319 291.595C107.617 288.301 113.97 287.216 120.042 288.567C124.443 289.551 128.486 291.758 131.717 294.94C134.948 298.123 137.238 302.155 138.331 306.583C139.794 312.615 138.535 319.711 137.616 324.894C137.184 327.33 136.842 329.254 136.959 330.2C137.41 333.855 139.916 391.174 138.305 393.621C138.133 393.882 137.637 394 136.885 394Z" fill="#00BFA6"/>
<path d="M116.831 393.466C117.753 392.806 118.514 391.959 119.059 390.985C119.605 390.012 119.921 388.935 119.987 387.831C120.053 386.727 119.866 385.623 119.44 384.596C119.014 383.569 118.358 382.644 117.52 381.887L117.876 313L101 315.702L105.957 382.566C104.727 384.004 104.089 385.826 104.163 387.686C104.237 389.546 105.018 391.316 106.358 392.659C107.699 394.003 109.505 394.827 111.435 394.976C113.365 395.124 115.285 394.587 116.831 393.466Z" fill="#FFB8B8"/>
<path d="M120.255 357H102.629C101.787 356.998 100.98 356.667 100.382 356.08C99.7843 355.493 99.4434 354.696 99.4332 353.862L99.0005 306.502C98.9855 304.864 99.2982 303.24 99.9206 301.723C100.543 300.206 101.463 298.826 102.626 297.663C103.79 296.501 105.175 295.578 106.701 294.949C108.227 294.321 109.863 293.998 111.515 294C113.168 294.002 114.803 294.329 116.327 294.961C117.852 295.594 119.234 296.519 120.395 297.685C121.556 298.85 122.472 300.232 123.091 301.751C123.71 303.269 124.018 304.894 123.999 306.532L123.45 353.869C123.438 354.702 123.096 355.497 122.498 356.082C121.901 356.668 121.095 356.997 120.255 357Z" fill="#00BFA6"/>
<path d="M116.897 283C109.034 283.015 101.616 276.733 100.253 268.907C99.765 265.832 99.985 262.685 100.896 259.71C101.885 256.324 103.58 253.191 105.869 250.523C108.157 247.855 110.985 245.713 114.161 244.243C117.338 242.773 120.789 242.008 124.283 242C127.777 241.992 131.232 242.741 134.415 244.197C136.519 245.159 138.591 246.54 139.554 248.661C140.517 250.782 139.914 253.746 137.807 254.7C136.43 255.324 134.702 255.017 133.481 255.913C131.726 257.198 132.178 259.934 132.961 261.977C133.745 264.019 134.631 266.49 133.318 268.232C132.094 269.856 129.647 269.805 127.72 269.194C125.793 268.583 123.891 267.56 121.882 267.768C118.952 268.072 116.847 271.017 116.457 273.968C116.067 276.918 116.985 279.868 117.89 282.7L116.897 283Z" fill="#2F2E41"/>
<path d="M182.344 372.559C193.633 370.018 206.423 378.811 206.819 390.614C206.931 393.934 205.953 397.421 203.388 399.68C201.269 401.544 198.117 402.485 195.379 401.573C190.109 399.819 189.828 392.508 192.655 388.604C196.482 383.316 204.065 382.413 210.082 383.042C217.438 383.811 224.429 387.022 230.296 391.424C242.04 400.236 249.519 413.742 255.572 426.791C261.769 440.177 266.275 454.276 268.987 468.766C269.328 470.586 269.641 472.41 269.925 474.24C270.006 474.508 270.189 474.734 270.435 474.869C270.681 475.003 270.971 475.036 271.241 474.96C271.508 474.875 271.731 474.692 271.866 474.448C272 474.204 272.035 473.918 271.964 473.649C269.486 457.837 264.909 442.423 258.354 427.812C252.016 413.67 244.026 399.002 231.314 389.564C224.978 384.86 217.495 381.586 209.576 380.886C202.909 380.296 195.015 381.701 190.869 387.474C187.599 392.028 187.931 399.597 192.992 402.769C195.774 404.513 199.309 404.309 202.198 402.954C203.731 402.2 205.081 401.123 206.154 399.798C207.228 398.473 207.999 396.932 208.415 395.28C210.211 388.725 207.483 381.634 202.805 376.948C198.414 372.538 192.448 370.04 186.211 370C184.709 370.016 183.214 370.194 181.75 370.53C180.418 370.83 181.013 372.859 182.344 372.559Z" fill="#CCCCCC"/>
<path d="M222.621 503.55L212.706 486.622L224.932 479.461L234.847 496.388C235.796 498.01 236.063 499.942 235.588 501.76C235.113 503.578 233.935 505.133 232.314 506.082C230.693 507.032 228.761 507.299 226.943 506.824C225.125 506.349 223.571 505.171 222.621 503.55Z" fill="#00BFA6"/>
<path d="M189.838 468.364C194.654 468.364 198.557 464.46 198.557 459.645C198.557 454.829 194.654 450.926 189.838 450.926C185.023 450.926 181.119 454.829 181.119 459.645C181.119 464.46 185.023 468.364 189.838 468.364Z" fill="#00BFA6"/>
<path d="M260.983 503.55L251.068 486.622L263.293 479.461L273.208 496.388C274.155 498.01 274.42 499.94 273.945 501.757C273.47 503.573 272.292 505.127 270.672 506.076C269.052 507.025 267.122 507.292 265.305 506.818C263.488 506.345 261.933 505.169 260.983 503.55Z" fill="#00BFA6"/>
<path d="M191.495 477.209C191.501 472.297 193.454 467.588 196.928 464.114C200.401 460.641 205.111 458.687 210.023 458.682H268.674C270.75 458.684 272.741 459.51 274.209 460.978C275.677 462.446 276.503 464.437 276.505 466.513V473.187C276.498 479.166 274.12 484.897 269.893 489.125C265.665 493.353 259.933 495.73 253.955 495.737H210.023C205.111 495.732 200.401 493.778 196.928 490.304C193.454 486.831 191.501 482.122 191.495 477.209Z" fill="#3F3D56"/>
<path d="M205.021 505.733V486.115H219.189V505.733C219.189 507.612 218.442 509.414 217.114 510.742C215.785 512.071 213.984 512.817 212.105 512.817C210.226 512.817 208.424 512.071 207.095 510.742C205.767 509.414 205.021 507.612 205.021 505.733Z" fill="#3F3D56"/>
<path d="M246.133 505.733V486.115H260.301V505.733C260.303 506.664 260.12 507.586 259.765 508.446C259.409 509.307 258.887 510.089 258.229 510.748C257.572 511.406 256.79 511.929 255.93 512.285C255.07 512.642 254.148 512.826 253.217 512.826C252.286 512.826 251.364 512.642 250.504 512.285C249.644 511.929 248.863 511.406 248.205 510.748C247.547 510.089 247.025 509.307 246.67 508.446C246.314 507.586 246.132 506.664 246.133 505.733Z" fill="#3F3D56"/>
<path d="M303.778 428.117C305.228 426.319 307.331 425.17 309.627 424.922C311.923 424.673 314.224 425.346 316.025 426.792C317.825 428.238 318.979 430.34 319.232 432.635C319.484 434.931 318.816 437.233 317.374 439.036L303.042 456.881L289.446 445.961L303.778 428.117Z" fill="#00BFA6"/>
<path d="M269.255 463.268L280.737 448.973C283.529 445.505 287.582 443.286 292.008 442.802C296.433 442.319 300.87 443.611 304.345 446.395L307.932 449.276C312.067 452.605 314.712 457.438 315.289 462.715C315.865 467.992 314.324 473.282 311.005 477.424L301.545 489.202C300.5 490.501 298.982 491.331 297.325 491.512C295.668 491.693 294.007 491.209 292.706 490.167L270.22 472.107C268.922 471.062 268.091 469.544 267.91 467.887C267.729 466.23 268.213 464.569 269.255 463.268Z" fill="#3F3D56"/>
<path d="M305.484 425.993C305.977 425.379 306.586 424.868 307.276 424.49C307.967 424.111 308.725 423.873 309.507 423.787C310.29 423.702 311.081 423.771 311.837 423.992C312.593 424.212 313.298 424.58 313.911 425.073C314.525 425.566 315.036 426.175 315.414 426.865C315.793 427.555 316.031 428.313 316.117 429.096C316.202 429.878 316.133 430.67 315.912 431.426C315.692 432.181 315.324 432.886 314.831 433.5L298.793 453.469L289.446 445.962L305.484 425.993Z" fill="#3F3D56"/>
<path d="M282.509 459.371L307.151 479.163C308.947 480.613 310.095 482.716 310.343 485.011C310.59 487.307 309.917 489.606 308.472 491.406C307.026 493.206 304.926 494.359 302.631 494.613C300.337 494.866 298.035 494.199 296.232 492.758L271.589 472.967L282.509 459.371Z" fill="#3F3D56"/>
<path d="M309.545 492.066C310.817 490.483 311.135 488.626 310.255 487.919C309.375 487.212 307.63 487.923 306.358 489.507C305.086 491.091 304.768 492.948 305.648 493.655C306.528 494.361 308.272 493.65 309.545 492.066Z" fill="#00BFA6"/>
</svg>
