<svg width="749" height="394" viewBox="0 0 749 394" fill="none" xmlns="http://www.w3.org/2000/svg">
<path d="M526.711 307.597L336.096 356.754C329.63 358.414 322.771 357.437 317.023 354.039C311.275 350.64 307.108 345.097 305.436 338.625L247.789 114.437C246.132 107.962 247.107 101.092 250.501 95.3362C253.895 89.58 259.43 85.407 265.892 83.7327L443.228 38L488.618 58.3491L544.814 276.893C546.471 283.368 545.496 290.238 542.102 295.994C538.708 301.75 533.173 305.923 526.711 307.597Z" fill="#F2F2F2"/>
<path d="M267.699 90.7617C263.098 91.954 259.156 94.9257 256.739 99.0247C254.322 103.124 253.628 108.016 254.808 112.627L312.455 336.815C313.646 341.424 316.613 345.371 320.706 347.792C324.799 350.212 329.684 350.907 334.288 349.725L524.904 300.568C529.506 299.376 533.447 296.404 535.864 292.305C538.281 288.206 538.975 283.314 537.795 278.703L482.47 63.5454L442.581 45.6621L267.699 90.7617Z" fill="white"/>
<path d="M488.134 59.5058L458.634 67.1135C456.48 67.6689 454.194 67.3448 452.279 66.2124C450.364 65.0801 448.977 63.2323 448.422 61.0756L442.811 39.2553C442.787 39.1598 442.79 39.0593 442.82 38.9653C442.849 38.8713 442.905 38.7876 442.98 38.7239C443.056 38.6601 443.147 38.6189 443.245 38.6049C443.342 38.5909 443.442 38.6047 443.532 38.6448L488.216 58.5179C488.315 58.5621 488.398 58.6362 488.454 58.73C488.509 58.8237 488.534 58.9324 488.525 59.041C488.516 59.1496 488.474 59.2527 488.404 59.336C488.333 59.4192 488.239 59.4786 488.134 59.5058Z" fill="#F2F2F2"/>
<path d="M472.614 250.958L385.829 273.339C385.296 273.476 384.741 273.507 384.196 273.43C383.651 273.353 383.126 273.168 382.652 272.888C382.178 272.608 381.764 272.237 381.433 271.796C381.102 271.355 380.861 270.854 380.724 270.32C380.586 269.786 380.556 269.23 380.633 268.684C380.71 268.138 380.894 267.613 381.174 267.138C381.454 266.663 381.824 266.248 382.264 265.917C382.704 265.585 383.205 265.344 383.738 265.207L470.523 242.826C471.056 242.689 471.611 242.658 472.156 242.735C472.701 242.812 473.226 242.996 473.7 243.277C474.174 243.557 474.588 243.928 474.919 244.369C475.25 244.809 475.491 245.311 475.628 245.845C475.766 246.379 475.797 246.935 475.719 247.481C475.642 248.027 475.458 248.552 475.179 249.027C474.899 249.502 474.528 249.916 474.088 250.248C473.648 250.579 473.147 250.821 472.614 250.958Z" fill="#CCCCCC"/>
<path d="M492.891 260.362L389.358 287.062C388.281 287.339 387.139 287.177 386.181 286.611C385.224 286.045 384.53 285.121 384.253 284.043C383.975 282.964 384.137 281.82 384.702 280.861C385.268 279.902 386.19 279.207 387.267 278.93L490.799 252.23C491.876 251.953 493.018 252.116 493.975 252.682C494.931 253.249 495.624 254.172 495.901 255.25C496.179 256.328 496.017 257.471 495.453 258.43C494.888 259.389 493.966 260.083 492.891 260.362Z" fill="#CCCCCC"/>
<path d="M350.409 300.294C358.593 300.294 365.228 293.65 365.228 285.454C365.228 277.258 358.593 270.614 350.409 270.614C342.225 270.614 335.591 277.258 335.591 285.454C335.591 293.65 342.225 300.294 350.409 300.294Z" fill="#E6E6E6"/>
<path d="M463.386 212.121L348.128 241.833C344.797 242.688 341.264 242.185 338.303 240.434C335.342 238.682 333.196 235.827 332.335 232.493L308.181 138.524C307.327 135.188 307.83 131.649 309.579 128.684C311.327 125.719 314.179 123.57 317.508 122.707L432.766 92.9948C436.097 92.1401 439.631 92.6435 442.591 94.3946C445.552 96.1457 447.699 99.0015 448.56 102.335L472.713 196.304C473.567 199.64 473.064 203.179 471.316 206.144C469.567 209.109 466.715 211.259 463.386 212.121Z" fill="white"/>
<path d="M463.386 212.121L348.128 241.833C344.797 242.688 341.264 242.185 338.303 240.434C335.342 238.682 333.196 235.827 332.335 232.493L308.181 138.524C307.327 135.188 307.83 131.649 309.579 128.684C311.327 125.719 314.179 123.57 317.508 122.707L432.766 92.9948C436.097 92.1401 439.631 92.6435 442.591 94.3946C445.552 96.1457 447.699 99.0015 448.56 102.335L472.713 196.304C473.567 199.64 473.064 203.179 471.316 206.144C469.567 209.109 466.715 211.259 463.386 212.121ZM317.888 124.187C314.951 124.948 312.435 126.845 310.892 129.461C309.349 132.077 308.905 135.2 309.658 138.143L333.812 232.112C334.572 235.054 336.466 237.573 339.078 239.118C341.691 240.663 344.809 241.108 347.748 240.354L463.006 210.641C465.944 209.88 468.46 207.984 470.002 205.367C471.545 202.751 471.989 199.629 471.236 196.685L447.082 102.716C446.322 99.7747 444.428 97.2549 441.816 95.7098C439.203 94.1647 436.086 93.7205 433.147 94.4746L317.888 124.187Z" fill="#E6E6E6"/>
<path d="M426.919 124.591L368.749 139.587C368.241 139.729 367.697 139.673 367.229 139.429C366.76 139.185 366.402 138.772 366.225 138.274C366.143 138.014 366.115 137.739 366.142 137.467C366.17 137.196 366.252 136.933 366.384 136.694C366.517 136.455 366.696 136.246 366.912 136.079C367.128 135.912 367.375 135.791 367.639 135.723L426.852 120.458C429.244 121.672 428.615 124.154 426.919 124.591Z" fill="#F2F2F2"/>
<path d="M429.545 134.809L371.375 149.804C370.867 149.946 370.323 149.89 369.855 149.646C369.386 149.402 369.028 148.99 368.851 148.491C368.769 148.231 368.741 147.956 368.768 147.685C368.796 147.413 368.878 147.15 369.01 146.911C369.143 146.672 369.322 146.463 369.538 146.296C369.753 146.129 370.001 146.008 370.265 145.94L429.478 130.675C431.87 131.889 431.241 134.371 429.545 134.809Z" fill="#F2F2F2"/>
<path d="M360.296 158.865L342.544 163.441C341.964 163.59 341.349 163.503 340.833 163.198C340.318 162.893 339.944 162.396 339.795 161.816L334.402 140.835C334.253 140.255 334.341 139.639 334.645 139.123C334.949 138.606 335.446 138.232 336.025 138.082L353.778 133.506C354.358 133.357 354.973 133.445 355.488 133.75C356.003 134.054 356.377 134.551 356.527 135.132L361.92 156.112C362.068 156.692 361.981 157.308 361.677 157.825C361.372 158.341 360.876 158.715 360.296 158.865Z" fill="#E6E6E6"/>
<path d="M434.754 155.775L345.977 178.661C345.468 178.803 344.925 178.746 344.456 178.503C343.988 178.259 343.629 177.846 343.453 177.348C343.371 177.087 343.343 176.813 343.37 176.541C343.397 176.27 343.48 176.006 343.612 175.768C343.744 175.529 343.924 175.32 344.139 175.153C344.355 174.986 344.602 174.864 344.866 174.796L434.688 151.641C437.08 152.855 436.45 155.337 434.754 155.775Z" fill="#F2F2F2"/>
<path d="M437.381 165.995L348.603 188.881C348.095 189.023 347.551 188.967 347.083 188.723C346.614 188.479 346.256 188.067 346.079 187.568C345.997 187.308 345.969 187.034 345.996 186.762C346.024 186.49 346.106 186.227 346.238 185.988C346.371 185.749 346.55 185.54 346.766 185.373C346.982 185.206 347.229 185.085 347.493 185.017L437.314 161.862C439.706 163.076 439.077 165.558 437.381 165.995Z" fill="#F2F2F2"/>
<path d="M440.006 176.21L351.229 199.096C350.72 199.238 350.177 199.182 349.708 198.938C349.24 198.694 348.881 198.282 348.705 197.783C348.623 197.523 348.595 197.248 348.622 196.977C348.649 196.705 348.732 196.442 348.864 196.203C348.996 195.964 349.176 195.755 349.391 195.588C349.607 195.421 349.854 195.3 350.118 195.232L439.94 172.077C442.332 173.29 441.702 175.773 440.006 176.21Z" fill="#F2F2F2"/>
<path d="M442.634 186.43L353.856 209.316C353.348 209.458 352.804 209.402 352.336 209.158C351.867 208.914 351.509 208.501 351.332 208.003C351.25 207.742 351.222 207.468 351.249 207.196C351.277 206.925 351.359 206.662 351.491 206.423C351.624 206.184 351.803 205.975 352.019 205.808C352.234 205.641 352.482 205.52 352.746 205.452L442.567 182.296C444.959 183.51 444.33 185.993 442.634 186.43Z" fill="#F2F2F2"/>
<path d="M445.259 196.646L356.482 219.532C355.973 219.674 355.43 219.617 354.961 219.374C354.493 219.13 354.134 218.717 353.958 218.219C353.876 217.958 353.848 217.684 353.875 217.412C353.902 217.141 353.985 216.877 354.117 216.639C354.249 216.4 354.429 216.191 354.644 216.024C354.86 215.857 355.107 215.735 355.371 215.667L445.193 192.512C447.585 193.726 446.955 196.208 445.259 196.646Z" fill="#F2F2F2"/>
<path d="M351.502 290.655C351.179 290.739 350.838 290.716 350.53 290.588L350.511 290.58L346.474 288.867C346.287 288.787 346.117 288.671 345.974 288.526C345.832 288.381 345.719 288.209 345.643 288.02C345.566 287.831 345.528 287.629 345.53 287.425C345.532 287.222 345.574 287.02 345.653 286.833C345.733 286.645 345.849 286.475 345.994 286.333C346.139 286.19 346.311 286.078 346.5 286.001C346.688 285.925 346.89 285.887 347.094 285.889C347.297 285.892 347.498 285.934 347.685 286.014L350.301 287.128L353.729 279.053C353.808 278.866 353.924 278.696 354.069 278.553C354.214 278.411 354.385 278.298 354.574 278.222C354.762 278.146 354.964 278.108 355.167 278.11C355.37 278.112 355.571 278.154 355.758 278.233L355.738 278.286L355.759 278.233C356.136 278.395 356.434 278.699 356.588 279.08C356.741 279.461 356.737 279.888 356.577 280.266L352.544 289.761C352.451 289.979 352.308 290.174 352.128 290.329C351.947 290.484 351.733 290.595 351.503 290.653L351.502 290.655Z" fill="white"/>
<path d="M599.823 393.03H402.989C396.315 393.022 389.915 390.363 385.195 385.637C380.475 380.91 377.821 374.501 377.813 367.817V136.314C377.821 129.63 380.475 123.221 385.195 118.494C389.915 113.767 396.315 111.109 402.989 111.101H586.111L625 142.143V367.817C624.992 374.501 622.337 380.91 617.617 385.637C612.897 390.363 606.498 393.022 599.823 393.03Z" fill="#E6E6E6"/>
<path d="M402.989 118.36C398.236 118.365 393.679 120.259 390.318 123.625C386.957 126.991 385.066 131.554 385.061 136.315V367.817C385.066 372.577 386.957 377.141 390.318 380.507C393.679 383.873 398.236 385.766 402.989 385.772H599.823C604.576 385.766 609.134 383.873 612.495 380.507C615.856 377.141 617.746 372.577 617.752 367.817V145.64L583.576 118.36H402.989Z" fill="white"/>
<path d="M561.539 185.674H471.923C470.812 185.674 469.745 185.232 468.959 184.444C468.173 183.657 467.731 182.589 467.731 181.476C467.731 180.362 468.173 179.294 468.959 178.507C469.745 177.719 470.812 177.277 471.923 177.277H561.539C562.651 177.277 563.718 177.719 564.504 178.507C565.29 179.294 565.732 180.362 565.732 181.476C565.732 182.589 565.29 183.657 564.504 184.444C563.718 185.232 562.651 185.674 561.539 185.674Z" fill="#38C3B3"/>
<path d="M578.833 199.845H471.923C470.812 199.843 469.747 199.4 468.962 198.613C468.177 197.826 467.736 196.758 467.736 195.646C467.736 194.533 468.177 193.466 468.962 192.679C469.747 191.892 470.812 191.449 471.923 191.447H578.833C579.384 191.447 579.93 191.555 580.439 191.765C580.949 191.976 581.411 192.285 581.801 192.675C582.191 193.065 582.501 193.528 582.712 194.038C582.923 194.548 583.031 195.094 583.031 195.646C583.031 196.198 582.923 196.744 582.712 197.254C582.501 197.764 582.191 198.227 581.801 198.617C581.411 199.007 580.949 199.316 580.439 199.527C579.93 199.737 579.384 199.845 578.833 199.845Z" fill="#38C3B3"/>
<path d="M561.54 240.779H471.927C470.815 240.779 469.749 241.222 468.963 242.009C468.177 242.796 467.735 243.864 467.735 244.978C467.735 246.091 468.177 247.159 468.963 247.946C469.749 248.734 470.815 249.176 471.927 249.176H561.54C562.652 249.176 563.718 248.734 564.504 247.946C565.291 247.159 565.732 246.091 565.732 244.978C565.732 243.864 565.291 242.796 564.504 242.009C563.718 241.222 562.652 240.779 561.54 240.779Z" fill="#CCCCCC"/>
<path d="M578.835 254.952H471.927C470.815 254.952 469.749 255.394 468.963 256.181C468.177 256.969 467.735 258.037 467.735 259.15C467.735 260.264 468.177 261.331 468.963 262.119C469.749 262.906 470.815 263.348 471.927 263.348H578.835C579.947 263.348 581.013 262.906 581.8 262.119C582.586 261.331 583.028 260.264 583.028 259.15C583.028 258.037 582.586 256.969 581.8 256.181C581.013 255.394 579.947 254.952 578.835 254.952Z" fill="#CCCCCC"/>
<path d="M561.539 312.683H471.923C470.812 312.683 469.745 312.241 468.959 311.454C468.173 310.666 467.731 309.598 467.731 308.485C467.731 307.371 468.173 306.303 468.959 305.516C469.745 304.728 470.812 304.286 471.923 304.286H561.539C562.651 304.286 563.718 304.728 564.504 305.516C565.29 306.303 565.732 307.371 565.732 308.485C565.732 309.598 565.29 310.666 564.504 311.454C563.718 312.241 562.651 312.683 561.539 312.683Z" fill="#CCCCCC"/>
<path d="M578.833 326.854H471.923C470.812 326.853 469.747 326.41 468.962 325.623C468.177 324.835 467.736 323.768 467.736 322.656C467.736 321.543 468.177 320.476 468.962 319.689C469.747 318.902 470.812 318.459 471.923 318.457H578.833C579.384 318.456 579.93 318.564 580.439 318.775C580.949 318.986 581.411 319.295 581.801 319.685C582.191 320.075 582.501 320.538 582.712 321.048C582.923 321.557 583.031 322.104 583.031 322.656C583.031 323.208 582.923 323.754 582.712 324.264C582.501 324.774 582.191 325.237 581.801 325.627C581.411 326.017 580.949 326.326 580.439 326.536C579.93 326.747 579.384 326.855 578.833 326.854Z" fill="#CCCCCC"/>
<path d="M434.605 203.401C442.789 203.401 449.424 196.757 449.424 188.561C449.424 180.365 442.789 173.721 434.605 173.721C426.422 173.721 419.787 180.365 419.787 188.561C419.787 196.757 426.422 203.401 434.605 203.401Z" fill="#38C3B3"/>
<path d="M433.137 194.222C432.804 194.222 432.479 194.114 432.213 193.914L432.196 193.901L428.714 191.234C428.552 191.11 428.416 190.955 428.314 190.779C428.212 190.603 428.145 190.408 428.119 190.206C428.092 190.004 428.105 189.799 428.157 189.602C428.21 189.405 428.301 189.22 428.424 189.059C428.548 188.897 428.703 188.761 428.879 188.659C429.055 188.557 429.25 188.491 429.452 188.465C429.653 188.438 429.858 188.452 430.055 188.505C430.251 188.558 430.436 188.649 430.597 188.774L432.853 190.506L438.183 183.542C438.306 183.38 438.461 183.245 438.636 183.143C438.812 183.041 439.007 182.975 439.208 182.948C439.409 182.922 439.614 182.935 439.81 182.988C440.007 183.04 440.191 183.131 440.352 183.255L440.319 183.301L440.353 183.255C440.678 183.505 440.891 183.875 440.945 184.282C440.998 184.689 440.889 185.101 440.639 185.428L434.37 193.615C434.225 193.804 434.038 193.957 433.825 194.061C433.611 194.166 433.376 194.22 433.139 194.22L433.137 194.222Z" fill="white"/>
<path d="M450.946 252.064C450.947 254.013 450.565 255.943 449.82 257.744C449.076 259.545 447.985 261.182 446.609 262.56C445.233 263.939 443.6 265.032 441.802 265.779C440.004 266.525 438.077 266.909 436.131 266.909C436.003 266.912 435.876 266.907 435.749 266.894C432.835 266.819 430.009 265.885 427.622 264.21C425.236 262.534 423.396 260.191 422.333 257.473C421.269 254.755 421.03 251.784 421.645 248.93C422.259 246.077 423.701 243.469 425.788 241.432C427.876 239.395 430.517 238.02 433.381 237.478C436.245 236.937 439.205 237.253 441.89 238.388C444.575 239.523 446.867 241.426 448.478 243.858C450.089 246.291 450.947 249.145 450.946 252.064Z" fill="#CCCCCC"/>
<path d="M434.605 330.41C442.789 330.41 449.424 323.766 449.424 315.57C449.424 307.374 442.789 300.73 434.605 300.73C426.422 300.73 419.787 307.374 419.787 315.57C419.787 323.766 426.422 330.41 434.605 330.41Z" fill="#CCCCCC"/>
<path d="M624.243 143.142H593.78C591.556 143.142 589.423 142.257 587.851 140.682C586.278 139.107 585.395 136.972 585.395 134.744V112.212C585.395 112.114 585.423 112.017 585.475 111.933C585.527 111.85 585.602 111.783 585.691 111.74C585.78 111.697 585.879 111.68 585.977 111.691C586.074 111.701 586.167 111.74 586.245 111.801L624.568 142.206C624.654 142.273 624.716 142.366 624.746 142.47C624.776 142.575 624.774 142.687 624.738 142.789C624.702 142.892 624.635 142.982 624.546 143.045C624.458 143.108 624.352 143.142 624.243 143.142Z" fill="#CCCCCC"/>
<path d="M450.946 252.064C450.947 254.013 450.564 255.943 449.82 257.744C449.076 259.545 447.985 261.181 446.609 262.56C445.233 263.938 443.6 265.032 441.802 265.778C440.004 266.525 438.077 266.909 436.13 266.909C436.003 266.912 435.876 266.907 435.749 266.894C433.835 262.112 433.096 256.939 433.597 251.812C434.098 246.684 435.822 241.753 438.625 237.433C442.072 238.024 445.199 239.817 447.454 242.495C449.709 245.172 450.946 248.561 450.946 252.064Z" fill="#38C3B3"/>
<path d="M467.731 244.981C467.733 243.868 468.176 242.8 468.962 242.012C469.749 241.225 470.815 240.781 471.927 240.779H494.258C495.562 243.436 496.489 246.262 497.012 249.176H471.927C470.816 249.176 469.75 248.734 468.963 247.948C468.176 247.161 467.733 246.095 467.731 244.981Z" fill="#38C3B3"/>
<path d="M497.531 254.952C497.532 257.788 497.158 260.611 496.417 263.348H471.927C470.815 263.348 469.749 262.906 468.963 262.119C468.177 261.331 467.735 260.264 467.735 259.15C467.735 258.037 468.177 256.969 468.963 256.181C469.749 255.394 470.815 254.952 471.927 254.952H497.531Z" fill="#38C3B3"/>
<path d="M595.292 264.396C594.659 265.434 593.641 266.178 592.462 266.464C591.282 266.75 590.037 266.555 589 265.922L535.592 233.298C535.079 232.984 534.632 232.572 534.278 232.086C533.923 231.6 533.668 231.048 533.527 230.463C533.385 229.878 533.36 229.271 533.453 228.676C533.546 228.081 533.755 227.511 534.068 226.997C534.381 226.483 534.792 226.036 535.277 225.681C535.763 225.326 536.313 225.07 536.898 224.929C537.482 224.787 538.088 224.762 538.682 224.855C539.276 224.948 539.846 225.157 540.359 225.47L593.767 258.095C594.804 258.728 595.547 259.748 595.833 260.929C596.118 262.111 595.924 263.358 595.292 264.396Z" fill="#3F3D56"/>
<path d="M541.884 231.771C538.112 237.963 532.592 242.896 526.02 245.947C519.449 248.997 512.122 250.027 504.966 248.908C497.81 247.788 491.147 244.568 485.818 239.655C480.489 234.743 476.735 228.358 475.03 221.309C473.324 214.259 473.745 206.862 476.237 200.051C478.73 193.241 483.184 187.324 489.034 183.049C494.885 178.773 501.87 176.331 509.107 176.031C516.344 175.732 523.506 177.588 529.69 181.365C537.973 186.437 543.908 194.593 546.194 204.043C548.48 213.492 546.93 223.464 541.884 231.771ZM487.173 198.351C484.344 202.995 482.954 208.375 483.179 213.81C483.403 219.246 485.232 224.492 488.434 228.887C491.636 233.281 496.067 236.626 501.167 238.498C506.268 240.371 511.808 240.686 517.087 239.406C522.366 238.125 527.148 235.305 530.827 231.302C534.506 227.3 536.917 222.295 537.756 216.92C538.595 211.545 537.823 206.042 535.539 201.107C533.254 196.171 529.56 192.025 524.922 189.192C518.702 185.402 511.233 184.237 504.156 185.954C497.08 187.671 490.972 192.129 487.173 198.351Z" fill="#3F3D56"/>
<path d="M382.101 111.196C382.094 111.196 382.087 111.198 382.08 111.198V69.1604C382.08 64.6092 380.272 60.2444 377.055 57.0262C373.838 53.808 369.475 52 364.925 52H233.358C228.808 52 224.445 53.808 221.228 57.0262C218.01 60.2444 216.203 64.6092 216.203 69.1604V90.7112C215.84 90.7189 215.494 90.8687 215.24 91.1283C214.985 91.3879 214.843 91.7367 214.843 92.1001V102.774C214.843 103.138 214.985 103.487 215.24 103.746C215.494 104.006 215.84 104.155 216.203 104.163V115.345H216.133C215.95 115.345 215.77 115.381 215.601 115.451C215.432 115.521 215.278 115.624 215.149 115.753C215.02 115.882 214.918 116.036 214.848 116.205C214.778 116.374 214.742 116.555 214.742 116.737V137.379C214.742 137.562 214.778 137.743 214.848 137.912C214.918 138.081 215.02 138.234 215.149 138.363C215.278 138.492 215.432 138.595 215.601 138.665C215.77 138.735 215.95 138.771 216.133 138.771H216.203V146.969H216.181C215.999 146.969 215.818 147.005 215.649 147.075C215.48 147.145 215.327 147.247 215.197 147.377C215.068 147.506 214.966 147.659 214.896 147.828C214.826 147.997 214.79 148.178 214.79 148.361V169.204C214.79 169.387 214.826 169.568 214.896 169.737C214.966 169.906 215.068 170.059 215.197 170.189C215.327 170.318 215.48 170.42 215.649 170.49C215.818 170.56 215.999 170.596 216.181 170.596H216.203V372.073C216.203 376.624 218.01 380.989 221.228 384.207C224.445 387.425 228.808 389.233 233.358 389.233H364.925C369.475 389.233 373.838 387.425 377.055 384.207C380.272 380.989 382.08 376.624 382.08 372.073V152.073C382.087 152.073 382.094 152.075 382.101 152.075C382.427 152.075 382.749 152.011 383.05 151.887C383.35 151.762 383.623 151.579 383.853 151.349C384.083 151.119 384.266 150.846 384.391 150.545C384.515 150.244 384.579 149.922 384.579 149.597V113.675C384.579 113.017 384.318 112.387 383.853 111.922C383.389 111.457 382.758 111.196 382.101 111.196Z" fill="#3F3D56"/>
<path d="M371.837 73.964V367.264C371.836 370.759 370.447 374.11 367.977 376.58C365.506 379.051 362.156 380.439 358.662 380.439H239.621C236.128 380.439 232.777 379.051 230.307 376.58C227.836 374.11 226.448 370.759 226.446 367.264V73.964C226.446 70.4686 227.834 67.1164 230.305 64.6448C232.776 62.1732 236.127 60.7847 239.621 60.7847H257.435V63.0974C257.436 65.9752 258.579 68.7347 260.613 70.7696C262.648 72.8045 265.406 73.9483 268.283 73.9495H328.847C331.72 73.9432 334.473 72.797 336.502 70.7625C338.532 68.7281 339.671 65.9714 339.671 63.0974V60.8087H358.662C362.152 60.8087 365.5 62.1939 367.97 64.6603C370.44 67.1267 371.831 70.4728 371.837 73.964Z" fill="white"/>
<path d="M253.108 99.5979H240.13C239.811 99.5979 239.506 99.4713 239.28 99.2459C239.055 99.0204 238.928 98.7147 238.928 98.3959C238.928 98.0771 239.055 97.7713 239.28 97.5459C239.506 97.3205 239.811 97.1938 240.13 97.1938H253.108C253.426 97.1938 253.732 97.3205 253.957 97.5459C254.183 97.7713 254.309 98.0771 254.309 98.3959C254.309 98.7147 254.183 99.0204 253.957 99.2459C253.732 99.4713 253.426 99.5979 253.108 99.5979Z" fill="#3F3D56"/>
<path d="M253.108 102.964H240.13C239.811 102.964 239.506 102.837 239.28 102.612C239.055 102.386 238.928 102.08 238.928 101.762C238.928 101.443 239.055 101.137 239.28 100.912C239.506 100.686 239.811 100.56 240.13 100.56H253.108C253.426 100.56 253.732 100.686 253.957 100.912C254.183 101.137 254.309 101.443 254.309 101.762C254.309 102.08 254.183 102.386 253.957 102.612C253.732 102.837 253.426 102.964 253.108 102.964Z" fill="#3F3D56"/>
<path d="M253.108 106.329H240.13C239.811 106.329 239.506 106.202 239.28 105.977C239.055 105.751 238.928 105.446 238.928 105.127C238.928 104.808 239.055 104.502 239.28 104.277C239.506 104.051 239.811 103.925 240.13 103.925H253.108C253.426 103.925 253.732 104.051 253.957 104.277C254.183 104.502 254.309 104.808 254.309 105.127C254.309 105.446 254.183 105.751 253.957 105.977C253.732 106.202 253.426 106.329 253.108 106.329Z" fill="#3F3D56"/>
<path d="M353.706 102.987H353.269L353.101 102.848C353.653 102.189 353.956 101.356 353.956 100.496C353.953 99.789 353.739 99.0985 353.343 98.5123C352.947 97.9262 352.386 97.4707 351.731 97.2035C351.076 96.9362 350.357 96.8693 349.664 97.011C348.971 97.1528 348.335 97.4969 347.838 97.9999C347.341 98.5029 347.003 99.1421 346.869 99.8367C346.735 100.531 346.81 101.25 347.084 101.902C347.358 102.555 347.819 103.111 348.41 103.501C349 103.891 349.692 104.097 350.4 104.093C351.257 104.087 352.085 103.785 352.745 103.237L352.909 103.377V103.819L355.668 106.584L356.494 105.757L353.706 102.987ZM350.4 102.987C349.907 102.989 349.425 102.845 349.015 102.573C348.604 102.301 348.283 101.913 348.093 101.459C347.903 101.004 347.852 100.504 347.946 100.02C348.04 99.5366 348.276 99.0919 348.622 98.7422C348.969 98.3925 349.412 98.1536 349.895 98.0556C350.377 97.9576 350.878 98.005 351.334 98.1918C351.789 98.3785 352.18 98.6963 352.455 99.1048C352.73 99.5133 352.878 99.9943 352.88 100.487L352.88 100.496C352.882 100.822 352.819 101.144 352.697 101.445C352.574 101.746 352.393 102.02 352.165 102.252C351.936 102.483 351.665 102.667 351.365 102.793C351.065 102.919 350.744 102.985 350.419 102.987C350.412 102.987 350.406 102.987 350.4 102.987Z" fill="#3F3D56"/>
<path d="M279.547 143.833H256.232C254.83 143.833 253.485 143.276 252.493 142.284C251.502 141.292 250.945 139.947 250.945 138.544C250.945 137.141 251.502 135.796 252.493 134.804C253.485 133.812 254.83 133.255 256.232 133.255H279.547C280.949 133.255 282.294 133.812 283.286 134.804C284.277 135.796 284.834 137.141 284.834 138.544C284.834 139.947 284.277 141.292 283.286 142.284C282.294 143.276 280.949 143.833 279.547 143.833Z" fill="#2AAA9A"/>
<path d="M350.923 155.373H253.829C253.064 155.373 252.33 155.069 251.79 154.528C251.249 153.987 250.945 153.253 250.945 152.488C250.945 151.723 251.249 150.989 251.79 150.448C252.33 149.907 253.064 149.603 253.829 149.603H350.923C351.688 149.603 352.421 149.907 352.962 150.448C353.503 150.989 353.807 151.723 353.807 152.488C353.807 153.253 353.503 153.987 352.962 154.528C352.421 155.069 351.688 155.373 350.923 155.373Z" fill="#E6E6E6"/>
<path d="M289.494 166.912H253.829C253.064 166.912 252.33 166.608 251.79 166.067C251.249 165.526 250.945 164.793 250.945 164.027C250.945 163.262 251.249 162.529 251.79 161.988C252.33 161.447 253.064 161.143 253.829 161.143H289.494C290.259 161.143 290.993 161.447 291.533 161.988C292.074 162.529 292.378 163.262 292.378 164.027C292.378 164.793 292.074 165.526 291.533 166.067C290.993 166.608 290.259 166.912 289.494 166.912Z" fill="#E6E6E6"/>
<path d="M279.547 271.731H256.232C254.83 271.731 253.485 271.174 252.493 270.182C251.502 269.19 250.945 267.845 250.945 266.442C250.945 265.04 251.502 263.694 252.493 262.702C253.485 261.711 254.83 261.153 256.232 261.153H279.547C280.949 261.153 282.294 261.711 283.286 262.702C284.277 263.694 284.834 265.04 284.834 266.442C284.834 267.845 284.277 269.19 283.286 270.182C282.294 271.174 280.949 271.731 279.547 271.731Z" fill="#2AAA9A"/>
<path d="M350.923 283.271H253.829C253.064 283.271 252.33 282.967 251.79 282.426C251.249 281.885 250.945 281.152 250.945 280.386C250.945 279.621 251.249 278.887 251.79 278.346C252.33 277.805 253.064 277.501 253.829 277.501H350.923C351.688 277.501 352.421 277.805 352.962 278.346C353.503 278.887 353.807 279.621 353.807 280.386C353.807 281.152 353.503 281.885 352.962 282.426C352.421 282.967 351.688 283.271 350.923 283.271Z" fill="#E6E6E6"/>
<path d="M289.494 294.81H253.829C253.064 294.81 252.33 294.506 251.79 293.965C251.249 293.424 250.945 292.691 250.945 291.925C250.945 291.16 251.249 290.427 251.79 289.886C252.33 289.344 253.064 289.041 253.829 289.041H289.494C290.259 289.041 290.993 289.344 291.533 289.886C292.074 290.427 292.378 291.16 292.378 291.925C292.378 292.691 292.074 293.424 291.533 293.965C290.993 294.506 290.259 294.81 289.494 294.81Z" fill="#E6E6E6"/>
<path d="M279.547 330.872H256.232C254.83 330.872 253.485 330.315 252.493 329.323C251.502 328.331 250.945 326.986 250.945 325.583C250.945 324.18 251.502 322.835 252.493 321.843C253.485 320.851 254.83 320.294 256.232 320.294H279.547C280.949 320.294 282.294 320.851 283.286 321.843C284.277 322.835 284.834 324.18 284.834 325.583C284.834 326.986 284.277 328.331 283.286 329.323C282.294 330.315 280.949 330.872 279.547 330.872Z" fill="#2AAA9A"/>
<path d="M350.923 342.412H253.829C253.064 342.412 252.33 342.108 251.79 341.567C251.249 341.026 250.945 340.292 250.945 339.527C250.945 338.762 251.249 338.028 251.79 337.487C252.33 336.946 253.064 336.642 253.829 336.642H350.923C351.688 336.642 352.421 336.946 352.962 337.487C353.503 338.028 353.807 338.762 353.807 339.527C353.807 340.292 353.503 341.026 352.962 341.567C352.421 342.108 351.688 342.412 350.923 342.412Z" fill="#E6E6E6"/>
<path d="M289.494 353.951H253.829C253.064 353.951 252.33 353.648 251.79 353.106C251.249 352.565 250.945 351.832 250.945 351.067C250.945 350.301 251.249 349.568 251.79 349.027C252.33 348.486 253.064 348.182 253.829 348.182H289.494C290.259 348.182 290.993 348.486 291.533 349.027C292.074 349.568 292.378 350.301 292.378 351.067C292.378 351.832 292.074 352.565 291.533 353.106C290.993 353.648 290.259 353.951 289.494 353.951Z" fill="#E6E6E6"/>
<path d="M364.621 241.68H179.086C178.002 241.679 176.964 241.248 176.198 240.482C175.432 239.715 175.001 238.677 175 237.593V187.107C175.001 186.023 175.432 184.985 176.198 184.218C176.964 183.452 178.002 183.021 179.086 183.02H364.621C365.705 183.021 366.743 183.452 367.509 184.218C368.275 184.985 368.706 186.023 368.707 187.107V237.593C368.706 238.677 368.275 239.715 367.509 240.482C366.743 241.248 365.705 241.679 364.621 241.68Z" fill="#2AAA9A"/>
<path d="M245.069 206.1H212.839C210.792 206.1 209.127 203.727 209.127 200.811C209.127 197.894 210.792 195.521 212.839 195.521H245.069C247.116 195.521 248.782 197.894 248.782 200.811C248.782 203.727 247.116 206.1 245.069 206.1Z" fill="white"/>
<path d="M331.696 217.639H212.011C211.246 217.639 210.512 217.335 209.972 216.794C209.431 216.253 209.127 215.519 209.127 214.754C209.127 213.989 209.431 213.255 209.972 212.714C210.512 212.173 211.246 211.869 212.011 211.869H331.696C332.461 211.869 333.194 212.173 333.735 212.714C334.276 213.255 334.58 213.989 334.58 214.754C334.58 215.519 334.276 216.253 333.735 216.794C333.194 217.335 332.461 217.639 331.696 217.639Z" fill="#E6E6E6"/>
<path d="M270.267 229.179H212.011C211.246 229.179 210.512 228.875 209.972 228.334C209.431 227.793 209.127 227.059 209.127 226.294C209.127 225.529 209.431 224.795 209.972 224.254C210.512 223.713 211.246 223.409 212.011 223.409H270.267C271.032 223.409 271.766 223.713 272.307 224.254C272.848 224.795 273.151 225.529 273.151 226.294C273.151 227.059 272.848 227.793 272.307 228.334C271.766 228.875 271.032 229.179 270.267 229.179Z" fill="#E6E6E6"/>
<path d="M599.307 138.31C597.205 136.96 595.102 136.96 593 138.31V132H599.307V138.31Z" fill="#3AC1B0"/>
<path d="M593.016 135.021C593.996 135.517 595.08 135.774 596.178 135.769C597.277 135.765 598.359 135.5 599.334 134.995" stroke="#2F2E41" stroke-width="2"/>
<path d="M628.436 87.7324C628.436 105.81 613.788 134.662 595.718 134.662C577.648 134.662 563 105.81 563 87.7324C563 79.0512 566.447 70.7256 572.583 64.5871C578.719 58.4486 587.041 55 595.718 55C604.396 55 612.718 58.4486 618.853 64.5871C624.989 70.7256 628.436 79.0512 628.436 87.7324Z" fill="#3AC1B0"/>
<path d="M596.93 135.826C592.818 137.242 591.834 142.852 593.248 146.966C594.663 151.08 597.658 154.492 599.165 158.573C599.853 160.631 600.346 162.749 600.64 164.899C601.501 170.018 602.364 175.227 601.7 180.376C601.071 185.26 599.093 189.865 596.887 194.267C592.613 202.79 587.415 210.816 581.386 218.201" stroke="#2F2E41" stroke-width="2"/>
<path opacity="0.4" d="M609.318 82.2113C613.128 82.2113 616.217 78.5035 616.217 73.9296C616.217 69.3558 613.128 65.6479 609.318 65.6479C605.508 65.6479 602.42 69.3558 602.42 73.9296C602.42 78.5035 605.508 82.2113 609.318 82.2113Z" fill="white"/>
<path d="M26.1824 358.328C28.684 359.207 31.3698 359.428 33.9812 358.967C36.5926 358.507 39.0415 357.382 41.092 355.7C46.3141 351.316 47.9517 344.094 49.2835 337.406L53.2239 317.623L44.9744 323.305C39.0415 327.391 32.9752 331.608 28.8677 337.527C24.7602 343.446 22.9682 351.526 26.2675 357.93" fill="#E6E6E6"/>
<path d="M27.4565 383.657C26.4182 376.09 25.3499 368.425 26.08 360.776C26.7269 353.984 28.7987 347.351 33.0163 341.91C35.2551 339.027 37.9792 336.558 41.0662 334.612C41.871 334.104 42.6119 335.38 41.8106 335.886C36.469 339.263 32.3374 344.249 30.0115 350.126C27.4427 356.662 27.0303 363.786 27.4727 370.729C27.7402 374.927 28.3085 379.098 28.8793 383.264C28.9244 383.452 28.8962 383.651 28.8006 383.819C28.7049 383.987 28.5489 384.113 28.3641 384.171C28.1755 384.222 27.9745 384.196 27.8047 384.1C27.6349 384.003 27.51 383.844 27.457 383.656L27.4565 383.657Z" fill="#F2F2F2"/>
<path d="M34.9302 371.515C36.0029 373.146 37.4776 374.474 39.2121 375.37C40.9467 376.265 42.8827 376.699 44.8335 376.629C49.8481 376.391 54.027 372.892 57.7884 369.568L68.9164 359.74L61.5518 359.387C56.2555 359.134 50.8225 358.896 45.7779 360.531C40.7334 362.167 36.0811 366.097 35.1588 371.32" fill="#E6E6E6"/>
<path d="M24.5213 388.007C29.5202 379.159 35.318 369.326 45.6785 366.183C48.559 365.312 51.5794 365 54.577 365.264C55.5219 365.345 55.2859 366.802 54.343 366.721C49.3182 366.303 44.303 367.631 40.1418 370.479C36.1375 373.205 33.0196 376.996 30.381 381.016C28.7646 383.478 27.3167 386.045 25.8689 388.608C25.4062 389.427 24.0533 388.835 24.5213 388.007Z" fill="#F2F2F2"/>
<path d="M748.195 389.138H0.805376C0.591777 389.138 0.386926 389.018 0.235889 388.805C0.0848513 388.592 0 388.303 0 388.001C0 387.7 0.0848513 387.411 0.235889 387.198C0.386926 386.985 0.591777 386.865 0.805376 386.865H748.195C748.408 386.865 748.613 386.985 748.764 387.198C748.915 387.411 749 387.7 749 388.001C749 388.303 748.915 388.592 748.764 388.805C748.613 389.018 748.408 389.138 748.195 389.138Z" fill="#3F3D56"/>
<path d="M147.07 199.153C154.827 199.153 161.115 192.863 161.115 185.103C161.115 177.344 154.827 171.053 147.07 171.053C139.312 171.053 133.024 177.344 133.024 185.103C133.024 192.863 139.312 199.153 147.07 199.153Z" fill="#FFB8B8"/>
<path d="M141.999 268.241C141.822 268.241 141.644 268.233 141.465 268.217C140.582 268.143 139.724 267.884 138.948 267.455C138.172 267.027 137.495 266.439 136.962 265.731C136.429 265.022 136.051 264.209 135.854 263.345C135.657 262.48 135.645 261.584 135.818 260.714C135.859 260.512 135.911 260.312 135.973 260.116L115.242 235.59C114.567 234.785 114.169 233.783 114.108 232.733C114.047 231.684 114.325 230.643 114.903 229.764L114.94 229.718L133.6 211.313C134.619 210.309 135.994 209.75 137.425 209.76C138.856 209.77 140.223 210.348 141.228 211.367C142.232 212.386 142.791 213.762 142.781 215.193C142.771 216.624 142.193 217.993 141.174 218.998C141.151 219.021 141.127 219.043 141.103 219.066L127.589 231.918L142.384 255.672C142.664 255.686 142.943 255.721 143.218 255.774C144.749 256.08 146.111 256.943 147.04 258.197C147.97 259.451 148.401 261.006 148.249 262.56C148.097 264.113 147.373 265.555 146.218 266.605C145.063 267.655 143.559 268.238 141.999 268.241Z" fill="#FFB8B8"/>
<path d="M170.202 380.646H177.214L180.549 353.595L170.201 353.596L170.202 380.646Z" fill="#FFB8B8"/>
<path d="M168.415 378.357L182.222 378.356C184.555 378.356 186.794 379.283 188.444 380.934C190.094 382.584 191.021 384.823 191.021 387.157V387.444L168.415 387.445L168.415 378.357Z" fill="#2F2E41"/>
<path d="M100.517 370.95L106.541 374.538L123.242 353.002L114.352 347.707L100.517 370.95Z" fill="#FFB8B8"/>
<path d="M100.152 368.067L112.016 375.133C114.021 376.327 115.47 378.269 116.044 380.532C116.617 382.795 116.269 385.193 115.075 387.198L114.928 387.444L95.5044 375.876L100.152 368.067Z" fill="#2F2E41"/>
<path d="M178.868 371.092H171.017C170.382 371.093 169.768 370.858 169.295 370.433C168.823 370.007 168.525 369.422 168.458 368.789L160.544 294.368C160.524 294.18 160.443 294.005 160.313 293.868C160.183 293.731 160.013 293.641 159.827 293.611C159.641 293.581 159.45 293.614 159.284 293.703C159.118 293.792 158.986 293.933 158.909 294.105L144.631 325.731L119.352 366.965C119.024 367.493 118.518 367.886 117.925 368.072C117.331 368.257 116.691 368.223 116.121 367.975L106.023 363.53C105.689 363.383 105.39 363.167 105.146 362.896C104.902 362.624 104.719 362.304 104.608 361.956C104.497 361.609 104.461 361.241 104.503 360.879C104.545 360.516 104.663 360.167 104.85 359.853L128.088 320.931L135.215 288.136C132.974 273.914 142.583 252.77 142.681 252.558L142.728 252.454L169.197 242.105L169.33 242.268C179.769 276.535 186.13 313.412 181.433 368.733C181.375 369.375 181.08 369.972 180.606 370.408C180.132 370.844 179.512 371.088 178.868 371.092Z" fill="#2F2E41"/>
<path d="M141.662 255.92L141.539 255.661C141.48 255.537 135.594 243.119 131.057 229.847C130.185 227.281 129.855 224.561 130.089 221.861C130.323 219.16 131.114 216.538 132.414 214.159C133.73 211.756 135.532 209.653 137.703 207.982C139.875 206.312 142.37 205.111 145.03 204.455C149.647 203.348 154.509 203.937 158.729 206.115C162.949 208.293 166.246 211.915 168.02 216.321C171.619 225.324 170.472 234.933 169.392 242.489L169.371 242.641L169.233 242.707L141.662 255.92Z" fill="#46BFB0"/>
<path d="M164.099 177.167H141.796V167.442C146.692 165.497 151.482 163.842 154.377 167.442C156.956 167.442 159.429 168.467 161.252 170.291C163.075 172.114 164.099 174.588 164.099 177.167Z" fill="#2F2E41"/>
<path d="M140.562 165.726C127.229 165.726 123.497 182.444 123.497 191.875C123.497 197.135 125.875 199.016 129.611 199.653L130.931 192.612L134.022 199.956C135.071 199.961 136.174 199.941 137.317 199.919L138.365 197.761L140.702 199.881C150.062 199.895 157.626 201.259 157.626 191.875C157.626 182.444 154.353 165.726 140.562 165.726Z" fill="#2F2E41"/>
<path d="M199.826 184.436C199.911 184.591 199.989 184.751 200.061 184.915C200.42 185.726 200.603 186.604 200.6 187.49C200.596 188.377 200.405 189.253 200.039 190.061C199.673 190.868 199.141 191.59 198.477 192.177C197.813 192.765 197.032 193.205 196.186 193.47C195.989 193.531 195.789 193.581 195.587 193.621L184.01 223.578C183.627 224.557 182.939 225.387 182.048 225.944C181.156 226.501 180.109 226.755 179.062 226.67L179.004 226.659L153.911 219.102C152.542 218.689 151.394 217.748 150.718 216.488C150.042 215.228 149.894 213.751 150.306 212.382C150.718 211.012 151.657 209.863 152.916 209.185C154.176 208.508 155.652 208.358 157.021 208.769C157.053 208.779 157.084 208.788 157.115 208.798L174.869 214.5L188.615 190.124C188.493 189.871 188.39 189.61 188.305 189.342C187.839 187.852 187.944 186.243 188.598 184.825C189.253 183.408 190.41 182.285 191.846 181.673C193.282 181.062 194.894 181.006 196.368 181.517C197.843 182.027 199.075 183.068 199.826 184.436Z" fill="#FFB8B8"/>
<path d="M422.891 108.349C413.511 95.7913 396.342 92.7608 387.811 99.1379C379.28 105.515 377.32 122.844 386.7 135.401C395.383 147.024 411.114 150.194 419.778 145.839C419.751 145.975 419.749 146.115 419.773 146.252L420.262 148.668C420.299 148.852 420.383 149.023 420.505 149.166C420.627 149.309 420.784 149.418 420.96 149.483C421.136 149.548 421.326 149.567 421.512 149.538C421.697 149.509 421.872 149.433 422.02 149.318L426.157 146.085C426.305 145.969 426.421 145.818 426.494 145.645C426.567 145.472 426.594 145.283 426.574 145.096C426.553 144.909 426.485 144.731 426.377 144.578C426.268 144.424 426.122 144.302 425.952 144.221L423.727 143.162C423.648 143.127 423.566 143.101 423.482 143.085C430.161 136.022 431.593 119.997 422.891 108.349Z" fill="#CCCCCC"/>
<path d="M402.373 103.608C406.961 104.337 411.095 106.8 413.92 110.49C416.746 114.179 418.047 118.813 417.556 123.434C417.455 124.493 419.109 124.486 419.209 123.434C419.682 118.453 418.255 113.477 415.214 109.504C412.173 105.531 407.743 102.856 402.812 102.013C401.772 101.836 401.325 103.429 402.373 103.608Z" fill="white"/>
<path d="M147.981 90.3372C156.182 76.9794 152.656 59.9006 143.581 54.3253C134.506 48.75 117.684 53.3284 109.483 66.6862C101.892 79.0505 104.757 94.8446 112.003 101.291C111.866 101.315 111.735 101.365 111.617 101.438L109.554 102.785C109.396 102.887 109.268 103.029 109.18 103.195C109.093 103.361 109.049 103.547 109.054 103.735C109.058 103.923 109.111 104.106 109.206 104.268C109.302 104.43 109.437 104.565 109.599 104.66L114.13 107.311C114.292 107.406 114.476 107.458 114.664 107.462C114.851 107.465 115.037 107.421 115.203 107.333C115.369 107.245 115.51 107.116 115.612 106.958C115.714 106.801 115.774 106.619 115.786 106.432L115.948 103.972C115.952 103.887 115.945 103.801 115.929 103.716C124.957 107.316 140.373 102.728 147.981 90.3372Z" fill="#CCCCCC"/>
<path d="M144.807 69.5127C145.824 74.0475 145.062 78.8 142.678 82.7891C140.294 86.7782 136.47 89.6996 131.996 90.95C130.975 91.2473 131.592 92.7819 132.606 92.4866C137.408 91.0865 141.504 87.922 144.072 83.6278C146.639 79.3335 147.489 74.227 146.45 69.3323C146.23 68.2998 144.585 68.4726 144.807 69.5127Z" fill="white"/>
<path d="M519.841 27.3805C519.155 11.7197 506.671 -0.453252 496.031 0.0129554C485.392 0.479163 474.02 13.6974 474.705 29.3581C475.34 43.8542 486.557 55.3328 496.169 56.6131C496.07 56.7097 495.989 56.8245 495.933 56.9513L494.977 59.223C494.904 59.3962 494.877 59.5851 494.897 59.7719C494.918 59.9586 494.986 60.137 495.095 60.29C495.204 60.4431 495.35 60.5657 495.52 60.6463C495.69 60.7269 495.877 60.7628 496.064 60.7506L501.303 60.4083C501.49 60.396 501.671 60.3361 501.829 60.2341C501.987 60.1321 502.116 59.9914 502.204 59.8255C502.292 59.6596 502.336 59.4739 502.333 59.286C502.329 59.0982 502.277 58.9144 502.182 58.7522L500.939 56.6242C500.894 56.551 500.841 56.4834 500.78 56.4227C510.275 54.3463 520.477 41.908 519.841 27.3805Z" fill="#46BFB0"/>
<path d="M505.551 11.9071C508.933 15.0937 510.963 19.4576 511.222 24.098C511.481 28.7384 509.948 33.301 506.942 36.8441C506.263 37.6623 507.633 38.5878 508.308 37.7749C511.502 33.9244 513.123 29.0081 512.845 24.0121C512.568 19.0161 510.413 14.3097 506.811 10.8368C506.051 10.1047 504.785 11.1696 505.551 11.9071Z" fill="white"/>
<path d="M435.017 61.4585C430.915 61.2001 426.934 59.9731 423.398 57.8781C419.862 55.7831 416.873 52.8798 414.676 49.4061C414.06 48.4214 413.256 47.3392 413.683 46.1271C413.831 45.6624 414.133 45.2617 414.539 44.9907C414.944 44.7198 415.43 44.5944 415.916 44.6352C417.173 44.7882 417.984 46.0182 418.139 47.1967C418.314 48.5335 417.371 49.583 416.207 50.0797C413.363 51.2934 410.493 49.4177 408.176 47.9207C402.897 44.5097 397.09 41.4249 390.692 41.0361C384.774 40.6765 378.426 42.998 375.134 48.1325C374.558 49.0308 375.988 49.8608 376.561 48.967C379.826 43.8749 386.427 42.046 392.166 42.8331C395.586 43.3729 398.889 44.4945 401.93 46.1492C403.508 46.9681 405.038 47.8758 406.537 48.8301C407.963 49.8257 409.475 50.6927 411.055 51.4209C413.689 52.5034 417.177 52.4188 419.017 49.9265C420.734 47.6013 419.407 43.7302 416.535 43.0765C415.905 42.9523 415.255 42.9864 414.641 43.1757C414.028 43.365 413.471 43.7037 413.02 44.1613C412.57 44.6189 412.24 45.1812 412.06 45.7977C411.88 46.4142 411.856 47.0657 411.99 47.6938C412.277 49.0631 413.308 50.403 414.105 51.5222C416.503 54.8955 419.626 57.6879 423.245 59.6937C426.864 61.6995 430.887 62.8676 435.017 63.1119C436.08 63.1646 436.077 61.511 435.017 61.4585Z" fill="#CCCCCC"/>
<path d="M12 99.7324C12 117.81 26.6484 146.662 44.7182 146.662C62.7879 146.662 77.4363 117.81 77.4363 99.7324C77.4363 91.0512 73.9893 82.7256 67.8534 76.5871C61.7176 70.4486 53.3956 67 44.7182 67C36.0408 67 27.7188 70.4486 21.5829 76.5871C15.4471 82.7256 12 91.0512 12 99.7324Z" fill="#FF6584"/>
<path d="M43.5066 147.826C47.6182 149.242 48.6025 154.851 47.1883 158.965C45.774 163.079 42.7787 166.492 41.2716 170.572C40.5839 172.63 40.0903 174.748 39.7971 176.898C38.9361 182.018 38.0728 187.227 38.7362 192.376C39.3655 197.26 41.3434 201.864 43.55 206.266C47.8236 214.789 53.0218 222.816 59.0509 230.201" stroke="#2F2E41" stroke-width="2"/>
<path d="M41.5645 149.817C43.6668 148.467 45.7692 148.467 47.8716 149.817V143.507H41.5645V149.817Z" fill="#FF6584"/>
<path d="M47.855 146.528C46.875 147.025 45.7911 147.281 44.6927 147.277C43.5942 147.272 42.5125 147.007 41.5366 146.502" stroke="#2F2E41" stroke-width="2"/>
<path opacity="0.4" d="M31.1186 94.2113C34.9285 94.2113 38.017 90.5035 38.017 85.9296C38.017 81.3558 34.9285 77.6479 31.1186 77.6479C27.3087 77.6479 24.2202 81.3558 24.2202 85.9296C24.2202 90.5035 27.3087 94.2113 31.1186 94.2113Z" fill="white"/>
<path d="M721.09 201.817C720.495 200.814 717.923 201.888 717.45 200.978C716.978 200.07 719.369 198.688 720.734 195.53C720.981 194.961 722.533 191.372 721.384 190.265C719.206 188.166 709.24 196.828 705.752 193.993C704.987 193.371 704.452 192.129 702.136 190.113C701.214 189.311 700.657 188.948 700.117 189.083C699.352 189.274 699.292 190.299 698.471 192.314C697.24 195.335 696.512 195.153 695.795 197.563C695.263 199.353 695.385 200.393 694.758 200.596C693.872 200.883 693.056 198.985 691.933 199.155C690.787 199.328 690.094 201.538 689.875 203.193C689.464 206.298 690.604 208.347 691.236 210.501C691.922 212.843 692.33 216.404 690.744 221.444L675.052 265.678C678.516 256.602 688.547 231.72 692.762 222.474C693.979 219.805 695.323 217.097 698.081 216.029C700.737 215 704.385 215.614 709.035 214.494C709.579 214.363 711.086 213.979 711.275 213.092C711.432 212.359 710.546 211.95 710.682 211.263C710.865 210.342 712.608 210.331 714.75 209.268C716.261 208.519 717.202 207.627 718.011 206.861C718.255 206.63 721.882 203.153 721.09 201.817Z" fill="#E6E6E6"/>
<path d="M659.351 225.104C658.687 225.106 658.472 226.68 657.889 226.649C657.308 226.619 657.319 225.046 656.164 223.464C655.956 223.179 654.643 221.382 653.768 221.626C652.11 222.09 653.484 229.483 651.087 230.378C650.561 230.574 649.798 230.478 648.14 231.034C647.481 231.255 647.142 231.424 647.053 231.728C646.926 232.159 647.411 232.484 648.163 233.469C649.29 234.945 648.99 235.249 649.966 236.297C650.69 237.075 651.236 237.315 651.155 237.681C651.04 238.199 649.873 238.052 649.632 238.653C649.387 239.266 650.271 240.244 651.02 240.828C652.424 241.926 653.758 241.958 654.998 242.269C656.344 242.607 658.209 243.435 660.224 245.668L677.397 266.136C673.944 261.816 664.631 249.711 661.312 244.974C660.353 243.606 659.413 242.165 659.685 240.502C659.946 238.901 661.3 237.287 662.092 234.681C662.184 234.376 662.431 233.525 662.051 233.176C661.736 232.888 661.28 233.205 660.982 232.94C660.583 232.585 661.08 231.725 661.177 230.367C661.245 229.409 661.08 228.69 660.937 228.071C660.894 227.885 660.235 225.1 659.351 225.104Z" fill="#E6E6E6"/>
<path d="M672.594 228.078L672.194 224.506L672.377 224.235C673.223 222.983 673.654 221.76 673.659 220.6C673.66 220.415 673.651 220.231 673.642 220.043C673.608 219.298 673.565 218.371 674.047 217.292C674.318 216.69 675.078 215.296 676.221 215.469C676.529 215.512 676.762 215.653 676.938 215.819C676.964 215.778 676.991 215.736 677.019 215.691C677.375 215.148 677.657 214.915 677.929 214.691C678.137 214.519 678.353 214.341 678.691 213.92C678.839 213.736 678.954 213.573 679.052 213.437C679.348 213.025 679.734 212.533 680.415 212.542C681.142 212.577 681.523 213.178 681.776 213.577C682.226 214.287 682.431 214.8 682.566 215.139C682.615 215.264 682.671 215.403 682.7 215.446C682.934 215.791 684.84 215.469 685.558 215.352C687.17 215.082 688.566 214.85 689.141 215.867C689.553 216.595 689.247 217.557 688.204 218.804C687.879 219.192 687.533 219.487 687.226 219.718C687.481 219.87 687.708 220.103 687.8 220.469C688.018 221.334 687.274 222.202 685.59 223.05C685.172 223.263 684.61 223.545 683.821 223.682C683.45 223.745 683.115 223.761 682.829 223.77C682.823 223.935 682.784 224.115 682.683 224.299C682.388 224.842 681.772 225.101 680.845 225.039C679.824 224.985 678.984 224.791 678.243 224.62C677.595 224.472 677.038 224.346 676.6 224.375C675.788 224.44 675.162 225.091 674.428 225.934L672.594 228.078Z" fill="#E6E6E6"/>
<path d="M674.449 206.812L671.097 208.105L670.789 207.997C669.364 207.496 668.073 207.389 666.949 207.678C666.77 207.724 666.594 207.78 666.415 207.836C665.703 208.058 664.819 208.335 663.652 208.141C663.002 208.032 661.461 207.65 661.338 206.5C661.302 206.191 661.38 205.93 661.495 205.717C661.448 205.703 661.402 205.687 661.351 205.671C660.735 205.464 660.439 205.251 660.153 205.045C659.934 204.887 659.707 204.723 659.215 204.503C658.999 204.406 658.812 204.336 658.656 204.276C658.183 204.095 657.609 203.846 657.445 203.184C657.294 202.472 657.779 201.95 658.1 201.605C658.673 200.988 659.116 200.661 659.41 200.444C659.518 200.365 659.639 200.275 659.673 200.236C659.947 199.922 659.152 198.16 658.857 197.495C658.188 196.002 657.608 194.711 658.446 193.896C659.046 193.313 660.054 193.365 661.524 194.058C661.981 194.274 662.354 194.534 662.656 194.772C662.738 194.487 662.905 194.208 663.235 194.026C664.017 193.596 665.045 194.096 666.292 195.51C666.603 195.861 667.02 196.334 667.351 197.062C667.507 197.406 667.607 197.725 667.688 198C667.85 197.964 668.033 197.956 668.237 198.007C668.837 198.155 669.243 198.685 669.418 199.598C669.626 200.599 669.65 201.462 669.673 202.223C669.694 202.887 669.714 203.459 669.853 203.875C670.123 204.644 670.91 205.085 671.912 205.581L674.449 206.812Z" fill="#E6E6E6"/>
<path d="M672.594 196.289L672.194 192.717L672.377 192.447C673.223 191.195 673.654 189.972 673.659 188.811C673.66 188.627 673.651 188.442 673.642 188.254C673.608 187.509 673.565 186.583 674.047 185.503C674.318 184.901 675.078 183.508 676.221 183.68C676.529 183.723 676.762 183.865 676.938 184.03C676.964 183.989 676.991 183.948 677.019 183.903C677.375 183.359 677.657 183.127 677.929 182.902C678.137 182.73 678.353 182.552 678.691 182.132C678.839 181.947 678.954 181.785 679.052 181.649C679.348 181.236 679.734 180.745 680.415 180.754C681.142 180.788 681.523 181.39 681.776 181.788C682.226 182.499 682.431 183.011 682.566 183.351C682.615 183.475 682.671 183.615 682.7 183.658C682.934 184.003 684.84 183.68 685.558 183.563C687.17 183.294 688.566 183.061 689.141 184.079C689.553 184.806 689.247 185.769 688.204 187.016C687.879 187.404 687.533 187.699 687.226 187.93C687.481 188.082 687.708 188.314 687.8 188.68C688.018 189.546 687.274 190.413 685.59 191.262C685.172 191.474 684.61 191.757 683.821 191.893C683.45 191.957 683.115 191.972 682.829 191.981C682.823 192.147 682.784 192.326 682.683 192.511C682.388 193.054 681.772 193.312 680.845 193.25C679.824 193.197 678.984 193.002 678.243 192.831C677.595 192.683 677.038 192.557 676.6 192.586C675.788 192.652 675.162 193.302 674.428 194.145L672.594 196.289Z" fill="#E6E6E6"/>
<path d="M676.247 265.62L675.499 265.151L674.627 265.251C674.613 265.17 674.565 264.984 674.494 264.693C674.103 263.096 672.913 258.235 671.92 250.581C671.227 245.238 670.835 239.745 670.754 234.252C670.673 228.751 670.933 224.586 671.142 221.238C671.3 218.713 671.491 216.309 671.679 213.967C672.179 207.71 672.65 201.8 672.299 195.256C672.222 193.795 672.059 190.755 670.283 187.519C669.253 185.643 667.835 183.977 666.066 182.57L667.166 181.187C669.118 182.742 670.688 184.588 671.831 186.671C673.8 190.258 673.978 193.571 674.063 195.163C674.42 201.822 673.943 207.789 673.438 214.107C673.252 216.44 673.06 218.834 672.904 221.349C672.697 224.665 672.439 228.794 672.519 234.225C672.598 239.652 672.986 245.078 673.67 250.354C674.651 257.911 675.824 262.699 676.209 264.272C676.414 265.112 676.457 265.288 676.247 265.62Z" fill="#E6E6E6"/>
<path d="M662.828 185.376C662.756 185.376 662.683 185.374 662.608 185.369C661.105 185.288 659.713 184.387 658.47 182.694C657.888 181.897 657.589 180.988 656.995 179.175C656.902 178.896 656.454 177.478 656.182 175.528C656.003 174.253 656.026 173.72 656.278 173.249C656.558 172.725 657.012 172.36 657.522 172.113C657.5 171.944 657.518 171.77 657.591 171.592C657.892 170.856 658.692 170.952 659.125 170.999C659.343 171.026 659.617 171.063 659.912 171.047C660.375 171.025 660.624 170.887 661.002 170.68C661.363 170.481 661.812 170.235 662.478 170.098C663.792 169.824 664.893 170.197 665.255 170.319C667.165 170.956 668.106 172.441 669.195 174.16C669.413 174.505 670.158 175.761 670.65 177.482C671.005 178.723 670.955 179.275 670.849 179.686C670.631 180.529 670.119 181.012 668.816 182.078C667.456 183.194 666.773 183.753 666.187 184.092C664.823 184.881 663.966 185.376 662.828 185.376Z" fill="#E6E6E6"/>
<path d="M620.619 381.058L613.622 381.057L610.293 354.06L620.62 354.061L620.619 381.058Z" fill="#FFB7B7"/>
<path d="M622.403 387.842L599.842 387.842V387.556C599.842 385.226 600.767 382.992 602.414 381.345C604.061 379.698 606.294 378.772 608.623 378.772L622.403 378.773L622.403 387.842Z" fill="#2F2E41"/>
<path d="M637.708 381.058L644.706 381.057L648.034 354.06L637.707 354.061L637.708 381.058Z" fill="#FFB7B7"/>
<path d="M635.923 378.773L649.703 378.772C652.032 378.772 654.266 379.698 655.913 381.345C657.56 382.992 658.485 385.226 658.485 387.556V387.842L635.924 387.842L635.923 378.773Z" fill="#2F2E41"/>
<path d="M619.064 170.084C622.069 164.033 619.602 156.691 613.553 153.685C607.504 150.679 600.165 153.147 597.159 159.198C594.154 165.248 596.621 172.59 602.67 175.597C608.719 178.603 616.059 176.135 619.064 170.084Z" fill="#FFB7B7"/>
<path d="M599.106 248.799C599.106 248.799 595.244 264.896 597.175 272.623C599.106 280.349 604.899 333.146 604.899 333.146L608.761 374.998L624.209 376.285L622.278 327.351L624.209 284.856L635.151 326.064V375.143L651.534 375.787L651.886 311.898C651.886 311.898 653.174 261.677 644.806 255.238C636.438 248.799 635.151 247.512 635.151 247.512L599.106 248.799Z" fill="#2F2E41"/>
<path d="M622.426 177.974L637.082 185.701L639.013 252.663C639.013 252.663 630.645 247.512 617.772 253.95C604.899 260.389 596.531 255.882 596.531 255.882L604.255 226.908L601.037 188.276L605.64 184.097L622.426 177.974Z" fill="#CBCBCB"/>
<path d="M605.642 182.878L602.968 185.056C602.968 185.056 586.233 193.427 585.589 199.221L597.175 230.771C597.175 230.771 600.394 237.853 597.819 240.429C595.244 243.004 592.67 249.443 593.313 252.662C593.957 255.882 589.451 269.403 594.601 269.403C599.75 269.403 611.98 238.497 611.336 226.264C610.692 214.03 610.247 181.987 605.642 182.878Z" fill="#2F2E41"/>
<path d="M616.893 178.7L622.789 177.718C622.789 177.718 644.673 183.513 647.892 193.171L638.88 215.706C638.88 215.706 645.317 256.914 643.386 256.914H641.455C641.455 256.914 646.604 260.777 643.386 262.065C640.168 263.353 632.444 273.655 630.513 269.147C628.582 264.64 616.996 211.199 618.283 199.61C619.57 188.02 615.75 179.914 616.893 178.7Z" fill="#2F2E41"/>
<path d="M619.452 152.662L620.024 151.509L617.142 150.077C617.142 150.077 613.963 144.902 608.209 146.356C602.456 147.81 599.867 148.681 599.867 148.681L596.992 150.128L598.435 151.564L595.847 152.434L597.576 153.293L595.564 154.45L596.647 160.381C596.647 160.381 598.446 155.883 601.905 157.602C605.363 159.321 611.69 156.713 611.69 156.713L617.186 167.353C617.186 167.353 618.32 163.623 620.341 164.618C620.341 164.618 625.506 156.39 619.452 152.662Z" fill="#2F2E41"/>
<path d="M637.355 265.644C637.036 264.868 636.893 264.031 636.933 263.192C636.973 262.354 637.197 261.535 637.588 260.792C637.979 260.05 638.528 259.402 639.196 258.895C639.865 258.387 640.636 258.033 641.457 257.856L643.934 237.606L652.007 244.474L648.417 262.651C648.623 264.049 648.308 265.474 647.534 266.656C646.759 267.838 645.578 268.694 644.215 269.063C642.851 269.432 641.4 269.288 640.135 268.658C638.871 268.028 637.881 266.955 637.355 265.644Z" fill="#FFB7B7"/>
<path d="M602.825 264.251C603.059 263.445 603.113 262.598 602.984 261.768C602.855 260.939 602.546 260.148 602.078 259.451C601.611 258.754 600.996 258.169 600.278 257.735C599.559 257.302 598.754 257.031 597.92 256.942L593.31 237.069L586.01 244.755L591.507 262.448C591.451 263.86 591.915 265.244 592.81 266.337C593.705 267.43 594.97 268.156 596.365 268.378C597.76 268.601 599.189 268.303 600.379 267.543C601.569 266.782 602.44 265.611 602.825 264.251Z" fill="#FFB7B7"/>
<path d="M637.666 187.924C637.666 187.924 646.033 184.704 648.608 194.362C651.183 204.021 654.401 223.337 654.401 223.337C654.561 234.078 653.99 234.078 654.401 244.584L652.47 254.242L641.528 252.954L642.005 228.368L636.378 203.377L637.666 187.924Z" fill="#2F2E41"/>
<path d="M591.382 195.358L587.415 195.783C587.415 195.783 583.658 198.578 583.658 205.016C583.658 211.455 583.014 230.771 583.014 230.771C583.014 230.771 582.649 231.223 585.589 247.512C587.022 255.451 589.498 259.197 589.498 259.197L597.488 251.776L596.531 232.703L599.106 222.401L591.382 195.358Z" fill="#2F2E41"/>
<path d="M657.921 149.792C661.173 149.792 663.809 147.152 663.809 143.896C663.809 140.64 661.173 138 657.921 138C654.669 138 652.033 140.64 652.033 143.896C652.033 147.152 654.669 149.792 657.921 149.792Z" fill="#FD6584"/>
</svg>
