<svg width="363" height="362" viewBox="0 0 363 362" fill="none" xmlns="http://www.w3.org/2000/svg">
<mask id="mask0_922_377" style="mask-type:alpha" maskUnits="userSpaceOnUse" x="0" y="0" width="363" height="362">
<rect width="363" height="362" fill="#D9D9D9"/>
</mask>
<g mask="url(#mask0_922_377)">
<path d="M362.889 166.952H358.891V61.204C358.891 53.1666 357.251 45.2078 354.064 37.7822C350.878 30.3566 346.208 23.6096 340.321 17.9262C334.433 12.2429 327.444 7.73468 319.752 4.65889C312.059 1.5831 303.815 6.33864e-06 295.489 1.71313e-10H63.402C55.076 -1.90153e-05 46.8314 1.58305 39.1391 4.65882C31.4469 7.73459 24.4575 12.2428 18.5701 17.9261C12.6827 23.6094 8.01249 30.3565 4.82623 37.7821C1.63997 45.2077 1.70718e-05 53.1664 0 61.2038V641.344C-7.95649e-06 657.577 6.67983 673.144 18.57 684.622C30.4601 696.1 46.5866 702.548 63.4018 702.548H295.488C312.304 702.548 328.43 696.1 340.32 684.622C352.211 673.144 358.89 657.577 358.89 641.345V242.225H362.889L362.889 166.952Z" fill="#3F3D56"/>
<path d="M298.047 15.9234H267.752C269.145 19.2206 269.677 22.798 269.3 26.3404C268.924 29.8827 267.651 33.2814 265.593 36.2369C263.536 39.1925 260.757 41.6142 257.501 43.2887C254.246 44.9633 250.614 45.8393 246.925 45.8396H113.965C110.276 45.8393 106.644 44.9633 103.389 43.2888C100.133 41.6142 97.3541 39.1925 95.2965 36.237C93.2389 33.2814 91.9659 29.8827 91.5895 26.3404C91.2131 22.798 91.7449 19.2206 93.1381 15.9233H64.8425C52.2851 15.9233 40.2419 20.7388 31.3625 29.3104C22.483 37.882 17.4946 49.5076 17.4946 61.6297V640.919C17.4946 646.921 18.7193 652.865 21.0988 658.41C23.4782 663.955 26.9658 668.994 31.3625 673.238C35.7591 677.483 40.9787 680.849 46.7232 683.146C52.4677 685.443 58.6246 686.626 64.8424 686.626H298.047C304.265 686.626 310.422 685.443 316.166 683.146C321.911 680.849 327.13 677.483 331.527 673.238C335.923 668.994 339.411 663.956 341.791 658.41C344.17 652.865 345.395 646.921 345.395 640.919V61.6297C345.395 55.6275 344.17 49.684 341.79 44.1386C339.411 38.5933 335.923 33.5546 331.527 29.3104C327.13 25.0662 321.911 21.6995 316.166 19.4025C310.422 17.1056 304.265 15.9234 298.047 15.9234Z" fill="white"/>
</g>
<path d="M37.5968 95.682C36.1386 95.6849 34.7406 96.6683 33.7095 98.4166C32.6784 100.165 32.0984 102.535 32.0967 105.007V208.675C32.0984 211.147 32.6784 213.517 33.7095 215.265C34.7406 217.014 36.1386 217.997 37.5968 218H330.343C331.801 217.997 333.199 217.014 334.23 215.265C335.261 213.517 335.841 211.147 335.843 208.675V105.007C335.841 102.535 335.261 100.165 334.23 98.4166C333.199 96.6684 331.801 95.6849 330.343 95.682L37.5968 95.682Z" fill="#E6E6E6"/>
<path d="M38.236 99.1936C37.3843 99.1951 36.5678 99.8019 35.9655 100.881C35.3633 101.96 35.0245 103.422 35.0234 104.948V208.149C35.0245 209.674 35.3633 211.137 35.9655 212.216C36.5678 213.295 37.3843 213.902 38.2359 213.903H329.121C329.972 213.902 330.789 213.295 331.391 212.216C331.993 211.137 332.331 209.674 332.332 208.149V104.948C332.331 103.423 331.993 101.96 331.391 100.881C330.789 99.8021 329.972 99.1953 329.121 99.1936H38.236Z" fill="white"/>
<path d="M313.874 167.083C314.889 167.078 315.861 166.307 316.578 164.937C317.295 163.568 317.699 161.713 317.7 159.777C317.702 157.842 317.301 155.984 316.586 154.611C315.871 153.238 314.899 152.462 313.885 152.452C313.881 152.452 313.878 152.452 313.874 152.452H133.068C132.054 152.46 131.082 153.234 130.366 154.605C129.65 155.976 129.249 157.832 129.249 159.767C129.249 161.702 129.65 163.559 130.366 164.93C131.082 166.301 132.054 167.075 133.068 167.083H313.874Z" fill="#E6E6E6"/>
<path d="M313.874 188.152C314.889 188.147 315.861 187.376 316.578 186.006C317.295 184.637 317.699 182.782 317.7 180.846C317.702 178.911 317.301 177.053 316.586 175.68C315.871 174.307 314.899 173.531 313.885 173.521C313.881 173.521 313.878 173.521 313.874 173.521H133.068C132.054 173.529 131.082 174.303 130.366 175.674C129.65 177.045 129.249 178.901 129.249 180.836C129.249 182.772 129.65 184.628 130.366 185.999C131.082 187.37 132.054 188.144 133.068 188.152H313.874Z" fill="#E6E6E6"/>
<path d="M223.713 146.014C224.296 146.015 224.874 145.827 225.413 145.46C225.952 145.092 226.442 144.554 226.855 143.874C227.267 143.195 227.595 142.388 227.818 141.5C228.041 140.612 228.156 139.66 228.156 138.698C228.156 137.737 228.041 136.785 227.818 135.897C227.595 135.008 227.267 134.202 226.855 133.522C226.442 132.843 225.952 132.304 225.413 131.937C224.874 131.57 224.296 131.381 223.713 131.383H133.692C133.108 131.381 132.531 131.57 131.992 131.937C131.453 132.304 130.963 132.843 130.55 133.522C130.138 134.202 129.81 135.008 129.587 135.897C129.364 136.785 129.249 137.737 129.249 138.698C129.249 139.66 129.364 140.612 129.587 141.5C129.81 142.388 130.138 143.195 130.55 143.874C130.963 144.554 131.453 145.092 131.992 145.46C132.531 145.827 133.108 146.015 133.692 146.014H223.713Z" fill="#2FAF9E"/>
<path d="M37.9493 110.899C43.4442 110.899 47.8986 106.444 47.8986 100.949C47.8986 95.4545 43.4442 91 37.9493 91C32.4545 91 28 95.4545 28 100.949C28 106.444 32.4545 110.899 37.9493 110.899Z" fill="#2FAF9E"/>
<mask id="mask1_922_377" style="mask-type:alpha" maskUnits="userSpaceOnUse" x="47" y="124" width="66" height="64">
<rect x="47.8989" y="124.945" width="64.3779" height="63.0417" rx="5.46605" fill="#D9D9D9"/>
</mask>
<g mask="url(#mask1_922_377)">
<rect x="47.7158" y="123.427" width="64.5877" height="64.5877" rx="0.567665" fill="#74C3BE"/>
<path d="M47.7158 124.797C47.7158 124.291 48.3273 124.038 48.6849 124.396L111.334 187.045C111.692 187.403 111.439 188.014 110.933 188.014H48.2835C47.97 188.014 47.7158 187.76 47.7158 187.447V124.797Z" fill="white" fill-opacity="0.5"/>
<rect x="56.2687" y="151.914" width="44.0248" height="20.3313" rx="0.423521" transform="rotate(-20 56.2687 151.914)" fill="#E1E6E7" stroke="black" stroke-width="0.288287"/>
<g filter="url(#filter0_d_922_377)">
<rect x="56.2156" y="151.701" width="44.0248" height="20.3313" rx="0.423521" transform="rotate(-10.6041 56.2156 151.701)" fill="#F8FAFA" stroke="black" stroke-width="0.288287"/>
<circle cx="58.927" cy="153.735" r="1.7442" transform="rotate(-10.6041 58.927 153.735)" fill="#D9D9D9"/>
</g>
<g filter="url(#filter1_d_922_377)">
<rect x="56.3805" y="151.537" width="44.0248" height="20.3313" rx="0.423521" fill="white"/>
<rect x="56.3805" y="151.537" width="44.0248" height="20.3313" rx="0.423521" stroke="black" stroke-width="0.288287"/>
<rect x="56.3805" y="151.537" width="44.0248" height="20.3313" rx="0.423521" stroke="black" stroke-opacity="0.2" stroke-width="0.288287"/>
<path d="M59.3397 153.765C59.3397 154.272 58.915 154.688 58.3854 154.688C57.8559 154.688 57.4312 154.272 57.4312 153.765C57.4312 153.258 57.8559 152.842 58.3854 152.842C58.915 152.842 59.3397 153.258 59.3397 153.765Z" fill="#74C3BE"/>
<path d="M59.3397 153.765C59.3397 154.272 58.915 154.688 58.3854 154.688C57.8559 154.688 57.4312 154.272 57.4312 153.765C57.4312 153.258 57.8559 152.842 58.3854 152.842C58.915 152.842 59.3397 153.258 59.3397 153.765Z" stroke="black" stroke-width="0.172972"/>
<path d="M59.3397 153.765C59.3397 154.272 58.915 154.688 58.3854 154.688C57.8559 154.688 57.4312 154.272 57.4312 153.765C57.4312 153.258 57.8559 152.842 58.3854 152.842C58.915 152.842 59.3397 153.258 59.3397 153.765Z" stroke="black" stroke-opacity="0.2" stroke-width="0.172972"/>
</g>
<mask id="path-18-outside-1_922_377" maskUnits="userSpaceOnUse" x="70.688" y="155.297" width="16" height="14" fill="black">
<rect fill="white" x="70.688" y="155.297" width="16" height="14"/>
<path d="M71.7362 168.297V155.497H74.2962V168.297H71.7362ZM79.9884 168.297V157.624H76.3733V155.497H86.1635V157.624H82.5484V168.297H79.9884Z"/>
</mask>
<path d="M71.7362 168.297V155.497H74.2962V168.297H71.7362ZM79.9884 168.297V157.624H76.3733V155.497H86.1635V157.624H82.5484V168.297H79.9884Z" fill="#3F3D56"/>
<path d="M71.7362 168.297H71.6732V168.36H71.7362V168.297ZM71.7362 155.497V155.434H71.6732V155.497H71.7362ZM74.2962 155.497H74.3593V155.434H74.2962V155.497ZM74.2962 168.297V168.36H74.3593V168.297H74.2962ZM71.7993 168.297V155.497H71.6732V168.297H71.7993ZM71.7362 155.56H74.2962V155.434H71.7362V155.56ZM74.2332 155.497V168.297H74.3593V155.497H74.2332ZM74.2962 168.234H71.7362V168.36H74.2962V168.234ZM79.9884 168.297H79.9253V168.36H79.9884V168.297ZM79.9884 157.624H80.0515V157.561H79.9884V157.624ZM76.3733 157.624H76.3102V157.687H76.3733V157.624ZM76.3733 155.497V155.434H76.3102V155.497H76.3733ZM86.1635 155.497H86.2266V155.434H86.1635V155.497ZM86.1635 157.624V157.687H86.2266V157.624H86.1635ZM82.5484 157.624V157.561H82.4853V157.624H82.5484ZM82.5484 168.297V168.36H82.6114V168.297H82.5484ZM80.0515 168.297V157.624H79.9253V168.297H80.0515ZM79.9884 157.561H76.3733V157.687H79.9884V157.561ZM76.4363 157.624V155.497H76.3102V157.624H76.4363ZM76.3733 155.56H86.1635V155.434H76.3733V155.56ZM86.1004 155.497V157.624H86.2266V155.497H86.1004ZM86.1635 157.561H82.5484V157.687H86.1635V157.561ZM82.4853 157.624V168.297H82.6114V157.624H82.4853ZM82.5484 168.234H79.9884V168.36H82.5484V168.234Z" fill="black" mask="url(#path-18-outside-1_922_377)"/>
<path d="M59.5881 150.739C58.9197 149.908 57.6855 149.793 56.8315 150.48C55.9775 151.168 55.827 152.398 56.4954 153.229C57.1638 154.059 58.3979 154.174 59.2519 153.487" stroke="#3F3D56" stroke-opacity="0.95" stroke-width="0.946108"/>
<path d="M59.5881 150.727C58.9197 149.897 57.6855 149.781 56.8315 150.469C55.9775 151.156 55.827 152.387 56.4954 153.217C57.1638 154.047 58.3979 154.163 59.2519 153.475" stroke="#68BAB5" stroke-width="0.315369"/>
</g>
<defs>
<filter id="filter0_d_922_377" x="55.8898" y="143.526" width="47.6662" height="28.7373" filterUnits="userSpaceOnUse" color-interpolation-filters="sRGB">
<feFlood flood-opacity="0" result="BackgroundImageFix"/>
<feColorMatrix in="SourceAlpha" type="matrix" values="0 0 0 0 0 0 0 0 0 0 0 0 0 0 0 0 0 0 127 0" result="hardAlpha"/>
<feOffset dy="0.252296"/>
<feGaussianBlur stdDeviation="0.126148"/>
<feComposite in2="hardAlpha" operator="out"/>
<feColorMatrix type="matrix" values="0 0 0 0 0 0 0 0 0 0 0 0 0 0 0 0 0 0 0.25 0"/>
<feBlend mode="normal" in2="BackgroundImageFix" result="effect1_dropShadow_922_377"/>
<feBlend mode="normal" in="SourceGraphic" in2="effect1_dropShadow_922_377" result="shape"/>
</filter>
<filter id="filter1_d_922_377" x="55.984" y="151.393" width="44.8176" height="21.1242" filterUnits="userSpaceOnUse" color-interpolation-filters="sRGB">
<feFlood flood-opacity="0" result="BackgroundImageFix"/>
<feColorMatrix in="SourceAlpha" type="matrix" values="0 0 0 0 0 0 0 0 0 0 0 0 0 0 0 0 0 0 127 0" result="hardAlpha"/>
<feOffset dy="0.252296"/>
<feGaussianBlur stdDeviation="0.126148"/>
<feComposite in2="hardAlpha" operator="out"/>
<feColorMatrix type="matrix" values="0 0 0 0 0 0 0 0 0 0 0 0 0 0 0 0 0 0 0.25 0"/>
<feBlend mode="normal" in2="BackgroundImageFix" result="effect1_dropShadow_922_377"/>
<feBlend mode="normal" in="SourceGraphic" in2="effect1_dropShadow_922_377" result="shape"/>
</filter>
</defs>
</svg>
