<svg width="808" height="745" viewBox="0 0 808 745" fill="none" xmlns="http://www.w3.org/2000/svg">
<path d="M647.411 732.81C645.754 732.808 644.125 732.368 642.692 731.535C641.258 730.703 640.069 729.506 639.246 728.067C638.423 726.628 637.994 724.997 638.003 723.34C638.011 721.682 638.457 720.055 639.296 718.625L652.485 696.106L668.748 705.632L655.559 728.151C654.726 729.571 653.536 730.748 652.106 731.566C650.677 732.383 649.058 732.812 647.411 732.81Z" fill="#00BFA6"/>
<path d="M699.169 681.344C705.574 681.344 710.767 676.152 710.767 669.746C710.767 663.34 705.574 658.147 699.169 658.147C692.763 658.147 687.57 663.34 687.57 669.746C687.57 676.152 692.763 681.344 699.169 681.344Z" fill="#00BFA6"/>
<path d="M596.382 732.81C594.724 732.808 593.095 732.368 591.662 731.535C590.228 730.703 589.039 729.506 588.216 728.067C587.392 726.628 586.963 724.997 586.972 723.339C586.981 721.681 587.427 720.055 588.266 718.624L601.455 696.106L617.718 705.632L604.529 728.151C603.696 729.571 602.505 730.748 601.076 731.566C599.647 732.383 598.028 732.812 596.382 732.81Z" fill="#00BFA6"/>
<path d="M672.318 717.758H613.878C605.924 717.749 598.3 714.586 592.676 708.962C587.052 703.338 583.889 695.714 583.88 687.76V678.882C583.883 676.121 584.982 673.473 586.934 671.52C588.887 669.567 591.535 668.468 594.297 668.465H672.318C678.855 668.465 685.124 671.061 689.746 675.684C694.368 680.306 696.965 686.575 696.965 693.112C696.965 699.648 694.368 705.917 689.746 710.539C685.124 715.162 678.855 717.758 672.318 717.758Z" fill="#3F3D56"/>
<path d="M669.549 740.478C667.05 740.475 664.655 739.482 662.888 737.715C661.122 735.948 660.128 733.553 660.125 731.054V704.958H678.972V731.054C678.97 733.553 677.976 735.948 676.209 737.715C674.442 739.482 672.047 740.475 669.549 740.478Z" fill="#3F3D56"/>
<path d="M614.859 740.478C612.36 740.475 609.965 739.482 608.198 737.715C606.432 735.948 605.438 733.553 605.435 731.054V704.958H624.282V731.054C624.28 733.553 623.286 735.948 621.519 737.715C619.753 739.482 617.357 740.475 614.859 740.478Z" fill="#3F3D56"/>
<path d="M566.664 651.542L548.578 666.068L529.513 642.33C527.596 639.931 526.709 636.869 527.047 633.817C527.384 630.765 528.918 627.971 531.312 626.048C533.706 624.125 536.766 623.23 539.819 623.56C542.872 623.889 545.67 625.415 547.599 627.805L566.664 651.542Z" fill="#00BFA6"/>
<path d="M592.241 686.326L562.328 710.351C560.598 711.737 558.388 712.381 556.184 712.14C553.98 711.9 551.961 710.794 550.57 709.067L537.987 693.399C533.571 687.889 531.522 680.852 532.288 673.832C533.055 666.813 536.574 660.384 542.075 655.956L546.847 652.123C551.468 648.42 557.37 646.701 563.258 647.344C569.145 647.987 574.537 650.939 578.251 655.552L593.525 674.569C594.911 676.299 595.555 678.509 595.314 680.713C595.073 682.917 593.968 684.936 592.241 686.326Z" fill="#3F3D56"/>
<path d="M566.664 651.544L554.23 661.531L532.896 634.967C531.571 633.318 530.956 631.211 531.186 629.109C531.415 627.006 532.471 625.081 534.119 623.757C535.768 622.433 537.876 621.818 539.978 622.047C542.08 622.277 544.005 623.332 545.33 624.981L566.664 651.544Z" fill="#3F3D56"/>
<path d="M590.419 687.468L557.638 713.796C555.239 715.713 552.178 716.601 549.125 716.264C546.072 715.927 543.278 714.393 541.355 711.998C539.432 709.603 538.537 706.544 538.866 703.491C539.196 700.437 540.723 697.639 543.113 695.71L575.894 669.382L590.419 687.468Z" fill="#3F3D56"/>
<path d="M545.112 714.988C546.283 714.048 545.86 711.578 544.168 709.471C542.475 707.364 540.155 706.418 538.984 707.358C537.814 708.298 538.237 710.769 539.929 712.876C541.621 714.983 543.942 715.928 545.112 714.988Z" fill="#00BFA6"/>
<path d="M492 725.096C492 728.801 493.472 732.353 496.091 734.973C498.71 737.592 502.263 739.064 505.968 739.064C513.682 739.064 513.949 732.08 507.963 725.096C513.949 721.105 513.682 711.128 505.968 711.128C502.263 711.128 498.71 712.6 496.091 715.219C493.472 717.839 492 721.392 492 725.096Z" fill="#CCCCCC"/>
<path d="M631.238 445.033H196.058C194.717 445.031 193.432 444.458 192.483 443.439C191.535 442.42 191.002 441.039 191 439.599V5.43385C191.002 3.99328 191.535 2.61225 192.483 1.59362C193.432 0.574982 194.717 0.00188318 196.058 0H631.238C632.579 0.00188318 633.865 0.574982 634.813 1.59362C635.761 2.61225 636.295 3.99328 636.296 5.43385V439.598C636.295 441.038 635.762 442.42 634.813 443.438C633.865 444.457 632.579 445.031 631.238 445.033Z" fill="white"/>
<path d="M631.238 445.033H196.058C194.717 445.031 193.432 444.458 192.483 443.439C191.535 442.42 191.002 441.039 191 439.599V5.43385C191.002 3.99328 191.535 2.61225 192.483 1.59362C193.432 0.574982 194.717 0.00188318 196.058 0H631.238C632.579 0.00188318 633.865 0.574982 634.813 1.59362C635.761 2.61225 636.295 3.99328 636.296 5.43385V439.598C636.295 441.038 635.762 442.42 634.813 443.438C633.865 444.457 632.579 445.031 631.238 445.033ZM196.058 2.16926C195.254 2.17113 194.484 2.51494 193.916 3.12542C193.348 3.7359 193.028 4.56336 193.026 5.42672V439.598C193.028 440.461 193.348 441.289 193.916 441.899C194.484 442.51 195.254 442.853 196.058 442.855H631.238C632.042 442.854 632.812 442.51 633.381 441.899C633.949 441.289 634.269 440.461 634.271 439.598V5.43385C634.269 4.57049 633.949 3.74303 633.38 3.13255C632.812 2.52207 632.042 2.17826 631.238 2.17639L196.058 2.16926Z" fill="#CACACA"/>
<path d="M236.714 190.297C235.804 190.299 234.933 190.662 234.291 191.306C233.649 191.949 233.288 192.822 233.288 193.731C233.288 194.64 233.649 195.512 234.291 196.156C234.933 196.8 235.804 197.163 236.714 197.165H590.015C590.924 197.163 591.795 196.8 592.438 196.156C593.08 195.512 593.441 194.64 593.441 193.731C593.441 192.822 593.08 191.949 592.438 191.306C591.795 190.662 590.924 190.299 590.015 190.297H236.714Z" fill="#E4E4E4"/>
<path d="M236.997 87.8843C236.088 87.8865 235.217 88.2492 234.575 88.893C233.932 89.5367 233.572 90.4089 233.572 91.3182C233.572 92.2275 233.932 93.0997 234.575 93.7434C235.217 94.3872 236.088 94.7499 236.997 94.7521H498.067C498.977 94.7499 499.848 94.3872 500.49 93.7434C501.132 93.0997 501.493 92.2275 501.493 91.3182C501.493 90.4089 501.132 89.5367 500.49 88.893C499.848 88.2492 498.977 87.8865 498.067 87.8843H236.997Z" fill="#E4E4E4"/>
<path d="M236.997 108.023C236.088 108.026 235.217 108.388 234.575 109.032C233.932 109.676 233.572 110.548 233.572 111.457C233.572 112.367 233.932 113.239 234.575 113.883C235.217 114.526 236.088 114.889 236.997 114.891H590.299C591.208 114.889 592.079 114.526 592.721 113.883C593.364 113.239 593.724 112.367 593.724 111.457C593.724 110.548 593.364 109.676 592.721 109.032C592.079 108.388 591.208 108.026 590.299 108.023H236.997Z" fill="#E4E4E4"/>
<path d="M236.997 128.629C236.088 128.631 235.217 128.994 234.575 129.638C233.932 130.281 233.572 131.154 233.572 132.063C233.572 132.972 233.932 133.844 234.575 134.488C235.217 135.132 236.088 135.495 236.997 135.497H498.067C498.977 135.495 499.848 135.132 500.49 134.488C501.132 133.844 501.493 132.972 501.493 132.063C501.493 131.154 501.132 130.281 500.49 129.638C499.848 128.994 498.977 128.631 498.067 128.629H236.997Z" fill="#E4E4E4"/>
<path d="M236.997 149.305C236.088 149.307 235.217 149.67 234.575 150.313C233.932 150.957 233.572 151.829 233.572 152.739C233.572 153.648 233.932 154.52 234.575 155.164C235.217 155.808 236.088 156.17 236.997 156.173H590.299C591.208 156.17 592.079 155.808 592.721 155.164C593.364 154.52 593.724 153.648 593.724 152.739C593.724 151.829 593.364 150.957 592.721 150.313C592.079 149.67 591.208 149.307 590.299 149.305H236.997Z" fill="#E4E4E4"/>
<path d="M236.997 169.911C236.088 169.913 235.217 170.276 234.575 170.919C233.932 171.563 233.572 172.435 233.572 173.345C233.572 174.254 233.932 175.126 234.575 175.77C235.217 176.414 236.088 176.776 236.997 176.778H498.067C498.977 176.776 499.848 176.414 500.49 175.77C501.132 175.126 501.493 174.254 501.493 173.345C501.493 172.435 501.132 171.563 500.49 170.919C499.848 170.276 498.977 169.913 498.067 169.911H236.997Z" fill="#E4E4E4"/>
<path d="M413.095 412.976C396.252 412.976 379.787 407.982 365.782 398.624C351.777 389.267 340.862 375.967 334.416 360.405C327.97 344.844 326.284 327.721 329.569 311.201C332.855 294.682 340.966 279.507 352.876 267.597C364.786 255.687 379.96 247.576 396.48 244.29C413 241.004 430.123 242.691 445.684 249.136C461.245 255.582 474.546 266.497 483.903 280.502C493.261 294.507 498.256 310.972 498.256 327.815C498.23 350.393 489.25 372.039 473.284 388.005C457.319 403.97 435.673 412.95 413.095 412.976Z" fill="#00BFA6"/>
<path d="M408.177 359.98C406.642 359.982 405.162 359.401 404.038 358.354L375.957 332.272C374.777 331.173 374.081 329.651 374.023 328.04C373.964 326.429 374.547 324.86 375.645 323.679C376.742 322.498 378.263 321.8 379.874 321.74C381.485 321.68 383.054 322.262 384.237 323.358L408.022 345.451L455.081 298.393C455.645 297.824 456.316 297.373 457.055 297.064C457.794 296.756 458.586 296.596 459.387 296.595C460.188 296.593 460.981 296.75 461.721 297.056C462.461 297.362 463.134 297.81 463.7 298.377C464.266 298.943 464.715 299.616 465.021 300.356C465.326 301.096 465.483 301.889 465.481 302.69C465.48 303.491 465.32 304.284 465.011 305.022C464.702 305.761 464.251 306.432 463.682 306.996L412.48 358.199C411.915 358.764 411.244 359.213 410.506 359.518C409.768 359.824 408.976 359.981 408.177 359.98Z" fill="white"/>
<path d="M572.947 52.3573H244.016C241.171 52.3573 238.442 51.6147 236.43 50.2929C234.418 48.9711 233.288 47.1784 233.288 45.3091C233.288 43.4398 234.418 41.6474 236.43 40.3256C238.442 39.0038 241.171 38.2612 244.016 38.2612H572.947C575.793 38.2612 578.522 39.0038 580.533 40.3256C582.545 41.6474 583.676 43.4398 583.676 45.3091C583.676 47.1784 582.545 48.9711 580.533 50.2929C578.522 51.6147 575.793 52.3573 572.947 52.3573Z" fill="#38C3B3"/>
<path d="M51.1251 695.369C55.0482 696.748 59.2604 697.094 63.3559 696.372C67.4513 695.651 71.2919 693.887 74.5078 691.25C82.6975 684.376 85.2658 673.054 87.3545 662.568L93.5342 631.552L80.5965 640.46C71.2919 646.867 61.7782 653.479 55.3364 662.758C48.8945 672.037 46.0841 684.705 51.2585 694.746" fill="#E6E6E6"/>
<path d="M53.1226 735.079C51.4942 723.216 49.8188 711.199 50.9638 699.208C51.9784 688.558 55.2275 678.159 61.8421 669.628C65.3531 665.11 69.6253 661.238 74.4667 658.188C75.7289 657.391 76.8908 659.391 75.6341 660.185C67.2569 665.479 60.7773 673.296 57.1296 682.51C53.101 692.757 52.4541 703.926 53.148 714.811C53.5675 721.393 54.4588 727.932 55.3539 734.463C55.4246 734.759 55.3805 735.07 55.2305 735.334C55.0805 735.598 54.8358 735.795 54.5459 735.886C54.2502 735.965 53.935 735.925 53.6687 735.774C53.4024 735.623 53.2065 735.373 53.1234 735.078L53.1226 735.079Z" fill="#F2F2F2"/>
<path d="M64.8438 716.043C66.5261 718.601 68.8388 720.682 71.5591 722.087C74.2794 723.491 77.3156 724.171 80.3752 724.062C88.2396 723.688 94.7932 718.202 100.692 712.991L118.144 697.583L106.594 697.03C98.2882 696.632 89.7677 696.259 81.8563 698.823C73.9449 701.388 66.6487 707.55 65.2023 715.739" fill="#E6E6E6"/>
<path d="M48.5198 741.899C56.3595 728.028 65.4521 712.611 81.7006 707.683C86.2181 706.318 90.9549 705.829 95.656 706.242C97.1379 706.37 96.7678 708.654 95.289 708.527C87.4086 707.873 79.5433 709.954 73.0174 714.419C66.7375 718.694 61.8477 724.637 57.7096 730.938C55.1745 734.799 52.9038 738.823 50.6332 742.841C49.9076 744.126 47.7858 743.198 48.5198 741.899Z" fill="#F2F2F2"/>
<path d="M191.098 511.441C191.013 509.652 190.537 507.904 189.704 506.32C188.87 504.735 187.699 503.352 186.274 502.269C184.848 501.186 183.202 500.428 181.452 500.05C179.702 499.671 177.89 499.681 176.145 500.079L159.948 477.253L143.677 483.713L167.002 515.625C167.864 518.514 169.756 520.986 172.319 522.573C174.882 524.16 177.938 524.751 180.908 524.236C183.878 523.72 186.556 522.132 188.434 519.774C190.312 517.416 191.26 514.451 191.098 511.441Z" fill="#A0616A"/>
<path d="M159.531 509.75L110.524 446.172L128.886 388.461C130.232 373.951 139.311 369.9 139.698 369.734L140.287 369.481L156.266 412.093L144.534 443.38L173.33 491.811L159.531 509.75Z" fill="#3F3D56"/>
<path d="M329.727 313.761C327.951 313.983 326.244 314.593 324.729 315.546C323.213 316.5 321.925 317.774 320.956 319.279C319.986 320.784 319.358 322.484 319.116 324.258C318.874 326.032 319.024 327.838 319.555 329.547L298.05 347.46L305.748 363.183L335.762 337.461C338.575 336.378 340.893 334.3 342.278 331.622C343.662 328.944 344.015 325.852 343.271 322.93C342.527 320.009 340.738 317.462 338.242 315.772C335.745 314.082 332.716 313.366 329.727 313.761Z" fill="#A0616A"/>
<path d="M330.481 345.363L270.883 399.14L211.925 385.294C197.355 385.074 192.613 376.335 192.418 375.963L192.121 375.395L233.37 356.169L265.469 365.447L311.53 332.992L330.481 345.363Z" fill="#3F3D56"/>
<path d="M227.248 727.661L243.261 727.66L250.878 665.896L227.245 665.897L227.248 727.661Z" fill="#A0616A"/>
<path d="M274.143 742.528L223.817 742.531L223.816 723.086L260.023 723.085C263.768 723.085 267.359 724.572 270.007 727.22C272.655 729.867 274.143 733.459 274.143 737.203L274.143 742.528Z" fill="#2F2E41"/>
<path d="M163.247 727.661L179.26 727.66L186.878 665.896L163.245 665.897L163.247 727.661Z" fill="#A0616A"/>
<path d="M210.143 742.528L159.817 742.531L159.816 723.086L196.023 723.085C197.877 723.085 199.713 723.45 201.426 724.159C203.139 724.869 204.696 725.909 206.007 727.22C207.318 728.531 208.358 730.087 209.068 731.8C209.777 733.513 210.143 735.349 210.143 737.203L210.143 742.528Z" fill="#2F2E41"/>
<path d="M157.552 502.216L158.858 593.645L160.165 713.809L188.899 711.197L203.267 545.319L221.553 711.197H251.218L254.206 544.013L243.757 507.441L157.552 502.216Z" fill="#2F2E41"/>
<path d="M213.794 514.494C182.528 514.496 153.749 500.345 153.36 500.151L153.038 499.99L150.414 437.023C149.653 434.798 134.671 390.893 132.134 376.937C129.563 362.798 166.822 350.39 171.347 348.939L172.374 337.565L214.127 333.065L219.419 347.619L234.399 353.236C236.097 353.873 237.502 355.111 238.349 356.715C239.195 358.32 239.424 360.179 238.991 361.94L230.665 395.796L250.999 507.809L246.621 507.998C236.128 512.737 224.804 514.493 213.794 514.494Z" fill="#3F3D56"/>
<path d="M209.305 322.177C223.873 314.213 229.227 295.947 221.263 281.379C213.299 266.81 195.033 261.456 180.465 269.42C165.896 277.384 160.542 295.65 168.506 310.218C176.47 324.787 194.736 330.141 209.305 322.177Z" fill="#A0616A"/>
<path d="M170.536 324.902C176.265 331.005 186.905 327.729 187.652 319.391C187.71 318.744 187.706 318.093 187.639 317.446C187.254 313.753 185.12 310.4 185.631 306.501C185.747 305.53 186.108 304.605 186.681 303.814C191.247 297.7 201.964 306.548 206.273 301.014C208.915 297.62 205.809 292.277 207.837 288.484C210.513 283.478 218.438 285.948 223.409 283.206C228.939 280.156 228.608 271.671 224.968 266.51C220.528 260.216 212.744 256.857 205.057 256.373C197.371 255.889 189.737 257.967 182.56 260.764C174.406 263.942 166.32 268.333 161.303 275.503C155.2 284.222 154.613 295.944 157.665 306.14C159.521 312.342 165.857 319.918 170.536 324.902Z" fill="#2F2E41"/>
<path d="M805.89 744.413H2.10966C1.55014 744.413 1.01351 744.19 0.617871 743.795C0.222233 743.399 0 742.863 0 742.303C0 741.744 0.222233 741.207 0.617871 740.811C1.01351 740.416 1.55014 740.193 2.10966 740.193H805.89C806.45 740.193 806.987 740.416 807.382 740.811C807.778 741.207 808 741.744 808 742.303C808 742.863 807.778 743.399 807.382 743.795C806.987 744.19 806.45 744.413 805.89 744.413Z" fill="#CACACA"/>
</svg>
