<svg width="347" height="410" viewBox="0 0 347 410" fill="none" xmlns="http://www.w3.org/2000/svg">
<g clip-path="url(#clip0_150_903)">
<path d="M151.328 388.991L150.225 393.817L150.49 394.106C150.431 394.254 150.372 394.401 150.302 394.549C149.716 395.872 149.046 397.157 148.296 398.395C147.304 400.041 146.195 401.628 145.045 403.186C144.414 404.047 143.765 404.902 143.116 405.752C143.098 405.781 143.078 405.808 143.057 405.835C143.064 405.804 143.074 405.775 143.086 405.746L142.874 405.699L141.652 400.401L141.281 401.239V401.245L140.679 402.631C140.726 402.885 140.773 403.133 140.832 403.38C140.826 403.374 140.826 403.363 140.82 403.357C140.815 403.351 140.815 403.351 140.815 403.345C140.738 403.18 140.655 403.02 140.579 402.855L139.658 404.967L137.794 404.543C136.814 404.035 135.835 403.522 134.862 402.991C121.563 395.776 109.25 386.567 100.96 374.03C97.6653 369.036 95.1747 363.555 93.5796 357.789C90.4349 346.332 90.9777 334.002 96.7006 323.766L96.7011 323.764L96.7023 323.762L96.7043 323.761L96.7065 323.76C96.8481 323.501 96.9956 323.241 97.149 322.981C97.2611 323.276 97.3673 323.571 97.4853 323.866V323.872C99.0236 327.878 100.88 331.755 103.037 335.465C103.202 335.754 103.368 336.043 103.545 336.326C108.814 345.171 115.68 352.961 123.793 359.299C123.815 359.32 123.839 359.34 123.864 359.358C123.892 359.382 123.922 359.403 123.953 359.423C125.758 360.839 127.624 362.17 129.552 363.417V363.423C131.056 364.402 132.602 365.328 134.171 366.207C137.516 368.072 141.157 369.865 144.284 372.101C147.322 374.266 149.883 376.844 151.246 380.295C151.352 380.573 151.452 380.85 151.541 381.127L149.11 388.626L151.328 388.991Z" fill="#F0F0F0"/>
<path d="M141.281 401.24V401.245L140.679 402.632C139.77 397.582 140.85 392.243 140.101 387.128C140.018 386.556 139.912 385.983 139.776 385.417C139.009 382.184 137.257 379.158 134.142 377.712C133.232 377.298 132.278 376.991 131.298 376.798C129.363 376.385 127.345 376.296 125.392 376.066C124.902 376.007 124.419 375.942 123.947 375.854C121.421 375.463 119.01 374.531 116.878 373.122C114.268 371.268 111.994 368.981 110.152 366.361C108.936 364.717 107.804 363.012 106.76 361.252C106.618 361.028 106.489 360.798 106.353 360.568C103.911 356.339 101.909 351.872 100.376 347.235C99.587 344.865 98.9252 342.455 98.3939 340.014C97.2114 334.681 96.6433 329.229 96.7006 323.767C96.7006 323.766 96.7007 323.765 96.701 323.765C96.7013 323.764 96.7017 323.763 96.7023 323.763C96.7028 323.762 96.7035 323.762 96.7042 323.761C96.7049 323.761 96.7057 323.761 96.7065 323.761C96.7006 323.513 96.7065 323.265 96.7124 323.018C96.7242 322.51 97.5089 322.622 97.4971 323.13C97.4912 323.377 97.4853 323.619 97.4853 323.867V323.873C97.4373 329.107 97.9655 334.33 99.0606 339.448C99.1196 339.707 99.1786 339.967 99.2317 340.227C100.827 347.319 103.507 354.123 107.179 360.397C107.22 360.468 107.261 360.539 107.309 360.609C108.164 362.067 109.085 363.482 110.052 364.869C111.83 367.538 114.016 369.911 116.53 371.901C118.646 373.484 121.103 374.548 123.705 375.01C123.964 375.057 124.224 375.105 124.489 375.146C124.696 375.181 124.908 375.211 125.121 375.234C127.109 375.482 129.15 375.577 131.127 375.954C132.025 376.124 132.908 376.37 133.764 376.692C135.166 377.253 136.433 378.105 137.482 379.191C138.532 380.277 139.34 381.572 139.853 382.992C140.379 384.37 140.739 385.806 140.927 387.269C140.991 387.747 141.039 388.225 141.08 388.709V388.715C141.139 389.494 141.168 390.278 141.18 391.063C141.192 392.042 141.174 393.021 141.151 393.995C141.02 396.41 141.063 398.831 141.281 401.24Z" fill="white"/>
<path d="M107.096 361.087C104.847 362.229 102.267 362.535 99.8139 361.95C97.3612 361.364 95.1964 359.926 93.7061 357.892C93.406 357.48 94.0331 356.994 94.3336 357.407C95.7178 359.304 97.7345 360.643 100.02 361.183C102.305 361.724 104.708 361.43 106.795 360.354C107.249 360.121 107.547 360.856 107.096 361.087Z" fill="white"/>
<path d="M123.628 375.245C125.271 370.36 125.012 365.035 122.902 360.332C122.693 359.866 123.427 359.566 123.636 360.031C125.822 364.929 126.08 370.471 124.359 375.551C124.195 376.035 123.464 375.727 123.628 375.245Z" fill="white"/>
<path d="M98.8315 339.521C99.7934 339.26 100.676 338.765 101.399 338.079C102.122 337.394 102.663 336.539 102.975 335.592C103.133 335.106 103.863 335.416 103.706 335.898C103.357 336.943 102.758 337.886 101.961 338.645C101.164 339.405 100.193 339.957 99.1324 340.255C99.0348 340.291 98.9271 340.289 98.831 340.249C98.7349 340.209 98.6577 340.133 98.6151 340.038C98.5758 339.941 98.5764 339.832 98.6169 339.735C98.6574 339.638 98.7345 339.561 98.8315 339.521Z" fill="white"/>
<path d="M143.021 405.882C143.033 405.864 143.045 405.853 143.056 405.835C143.033 405.906 143.009 405.977 142.992 406.053L143.021 405.882Z" fill="#F0F0F0"/>
<path d="M160.562 369.565L159.736 372.455L154.662 371.506L152.98 376.691L152.691 377.582L151.541 381.128L149.11 388.626L151.328 388.992L150.225 393.818L150.49 394.107L150.573 394.195L151.122 394.797L154.461 398.443L145.328 406.26L143.865 405.924L143.116 405.752C143.098 405.781 143.078 405.809 143.057 405.835C143.064 405.805 143.074 405.775 143.086 405.747L142.874 405.699L141.652 400.402L141.281 401.239V401.245L140.679 402.632C140.726 402.885 140.773 403.133 140.832 403.381C140.826 403.375 140.826 403.363 140.82 403.357C140.815 403.351 140.815 403.351 140.815 403.345C140.738 403.18 140.655 403.021 140.579 402.856C139.41 400.419 138.295 397.947 137.263 395.446C134.718 389.422 132.722 383.18 131.298 376.798C131.239 376.52 131.174 376.243 131.127 375.96V375.954C130.261 371.827 129.735 367.636 129.552 363.423V363.417C129.457 361.111 129.481 358.801 129.622 356.497C129.996 350.542 131.304 344.683 133.499 339.135C133.51 339.105 133.522 339.082 133.534 339.052C137.741 328.468 145.145 319.289 155.21 314.398C155.629 314.186 156.06 313.985 156.491 313.796H156.503L156.508 313.79C156.78 313.672 157.045 313.56 157.317 313.442C157.228 313.749 157.134 314.056 157.051 314.369C155.861 318.491 155.008 322.703 154.502 326.964V326.97C154.455 327.294 154.414 327.631 154.379 327.961V327.967C153.265 338.244 154.07 348.638 156.75 358.621C156.756 358.651 156.768 358.674 156.774 358.704C157.775 362.41 159.041 366.04 160.562 369.565Z" fill="#F0F0F0"/>
<path d="M151.122 394.797C150.656 395.422 150.178 396.03 149.694 396.638C149.228 397.222 148.762 397.806 148.296 398.396C147.077 399.897 145.99 401.5 145.045 403.186C144.571 404.062 144.176 404.978 143.865 405.924L143.116 405.752C143.098 405.781 143.078 405.809 143.057 405.835C143.064 405.805 143.074 405.775 143.086 405.747C144.461 401.452 147.588 398.124 150.302 394.549C150.396 394.431 150.485 394.313 150.573 394.195L151.122 394.797Z" fill="white"/>
<path d="M157.511 313.773C157.358 313.968 157.199 314.168 157.051 314.369C155.901 315.861 154.813 317.401 153.789 318.988C151.964 321.788 150.343 324.716 148.939 327.749C148.827 327.985 148.715 328.227 148.608 328.469C145.604 335.096 143.645 342.149 142.803 349.377C142.791 349.447 142.785 349.512 142.779 349.583C142.585 351.27 142.459 352.963 142.402 354.663C142.213 357.862 142.53 361.071 143.34 364.173C143.458 364.58 143.588 364.981 143.729 365.37C144.084 366.324 144.529 367.243 145.057 368.113C145.436 368.749 145.858 369.358 146.319 369.936C146.597 370.29 146.886 370.638 147.192 370.975C147.369 371.169 147.552 371.364 147.735 371.559C147.889 371.706 148.036 371.86 148.189 372.007C149.782 373.553 151.541 374.986 152.98 376.691L152.691 377.582C151.305 375.824 149.517 374.367 147.906 372.833C146.895 371.882 145.975 370.84 145.157 369.718C145.051 369.565 144.939 369.411 144.838 369.252C144.292 368.453 143.82 367.606 143.428 366.721C143.228 366.279 143.045 365.824 142.88 365.352C141.916 362.302 141.477 359.11 141.582 355.913C141.601 353.865 141.723 351.819 141.947 349.784C141.971 349.518 142 349.259 142.036 348.993C142.634 344.148 143.725 339.376 145.293 334.752C147.276 328.885 150.005 323.298 153.411 318.127C154.384 316.646 155.417 315.201 156.508 313.791C156.65 313.596 156.798 313.407 156.951 313.212C157.264 312.811 157.824 313.372 157.511 313.773Z" fill="white"/>
<path d="M142.317 349.858C139.834 349.416 137.589 348.106 135.984 346.163C134.378 344.219 133.515 341.767 133.55 339.246C133.552 339.143 133.594 339.045 133.667 338.973C133.74 338.901 133.839 338.86 133.942 338.858C134.044 338.857 134.144 338.896 134.219 338.966C134.293 339.037 134.338 339.134 134.343 339.236C134.306 341.584 135.11 343.868 136.609 345.675C138.108 347.482 140.204 348.693 142.518 349.091C143.021 349.178 142.817 349.945 142.317 349.858Z" fill="white"/>
<path d="M146.992 371.115C151.245 368.203 154.244 363.796 155.392 358.771C155.505 358.273 156.272 358.475 156.159 358.972C154.955 364.199 151.824 368.78 147.392 371.8C146.969 372.088 146.571 371.401 146.992 371.115Z" fill="white"/>
<path d="M148.704 327.663C149.628 328.034 150.631 328.17 151.621 328.057C152.612 327.945 153.559 327.589 154.377 327.02C154.796 326.728 155.193 327.414 154.777 327.705C153.87 328.329 152.823 328.721 151.73 328.848C150.636 328.974 149.528 328.831 148.502 328.43C148.402 328.4 148.317 328.334 148.265 328.244C148.212 328.154 148.196 328.047 148.219 327.946C148.246 327.844 148.313 327.758 148.403 327.705C148.494 327.652 148.602 327.637 148.704 327.663Z" fill="white"/>
<path d="M232.812 66.0325C228.345 42.1275 235.378 14.9316 254.924 0.461914C253.816 26.8845 262.091 52.8472 278.284 73.7566C284.558 81.7979 292.374 90.0884 292.131 100.285C291.98 106.629 288.549 112.539 284.027 116.992C279.505 121.445 273.934 124.655 268.431 127.815L267.574 129.148C251.44 110.951 237.279 89.9375 232.812 66.0325Z" fill="#F0F0F0"/>
<path d="M255.28 0.826903C247.068 19.2047 244.856 39.7027 248.958 59.4093C249.862 63.6259 251.147 67.8245 253.325 71.5707C255.477 75.2059 258.562 78.1987 262.262 80.2381C265.673 82.209 269.39 83.83 272.263 86.5956C275.291 89.5108 276.639 93.4895 276.527 97.6464C276.389 102.733 274.432 107.466 272.357 112.028C270.054 117.094 267.581 122.319 267.73 128.014C267.748 128.704 266.677 128.692 266.658 128.003C266.399 118.094 273.563 110.137 275.159 100.629C275.904 96.1925 275.316 91.5046 272.197 88.0657C269.469 85.0586 265.637 83.3837 262.166 81.418C258.522 79.354 255.419 76.8039 253.112 73.2687C250.753 69.6523 249.302 65.4951 248.294 61.3201C246.078 51.8359 245.367 42.0622 246.188 32.3572C247.062 21.2758 249.827 10.4257 254.361 0.276279C254.642 -0.351786 255.56 0.202938 255.28 0.826903Z" fill="white"/>
<path d="M247.263 53.1414C243.863 53.3807 240.489 52.4037 237.743 50.3849C234.997 48.3661 233.058 45.4369 232.272 42.1205C232.116 41.4489 233.152 41.174 233.309 41.8464C234.035 44.936 235.841 47.6643 238.402 49.539C240.963 51.4137 244.11 52.3112 247.275 52.0696C247.962 52.0179 247.947 53.09 247.263 53.1414Z" fill="white"/>
<path d="M260.4 79.4668C265.016 74.2477 267.495 67.4809 267.342 60.5156C267.327 59.8255 268.398 59.8376 268.414 60.5268C268.559 67.7754 265.965 74.8121 261.15 80.2325C260.691 80.7489 259.944 79.9803 260.4 79.4668Z" fill="white"/>
<path d="M248.318 21.9413C249.653 22.1229 251.012 21.97 252.273 21.4966C253.534 21.0231 254.658 20.2438 255.544 19.2287C255.996 18.7068 256.743 19.476 256.294 19.9945C255.31 21.1114 254.068 21.9706 252.676 22.4967C251.283 23.0229 249.783 23.2002 248.307 23.013C248.166 23.0071 248.033 22.9478 247.935 22.8472C247.836 22.7466 247.78 22.6123 247.777 22.4716C247.779 22.3297 247.837 22.1944 247.938 22.0951C248.04 21.9958 248.176 21.9406 248.318 21.9413Z" fill="white"/>
<path d="M334.858 20.2343C334.585 20.5682 334.312 20.9022 334.041 21.2448C330.39 25.7532 327.111 30.5507 324.237 35.5899C324.009 35.976 323.783 36.3707 323.566 36.7626C316.772 48.9771 312.304 62.3469 310.39 76.1923C309.634 81.7025 309.298 87.2621 309.385 92.8232C309.506 100.503 310.248 108.821 307.893 115.884C307.656 116.624 307.373 117.348 307.046 118.053L269.266 130.089C269.167 130.074 269.069 130.066 268.969 130.051L267.483 130.6C267.458 130.314 267.439 130.016 267.415 129.73C267.4 129.564 267.393 129.395 267.378 129.229C267.371 129.117 267.364 129.005 267.351 128.905C267.349 128.868 267.346 128.831 267.347 128.802C267.334 128.702 267.332 128.607 267.322 128.516C267.21 126.852 267.106 125.186 267.02 123.514C267.017 123.505 267.017 123.505 267.022 123.494C266.374 110.76 266.783 97.8605 269.137 85.433C269.208 85.0591 269.276 84.6768 269.364 84.2974C270.456 78.7015 272.004 73.2043 273.992 67.8606C275.09 64.9381 276.335 62.073 277.722 59.2763C281.322 52.0571 286.034 45.4489 291.687 39.694C302.958 28.2233 317.772 20.4847 333.646 20.241C334.052 20.2351 334.45 20.2316 334.858 20.2343Z" fill="#F0F0F0"/>
<path d="M334.926 20.7411C317.304 30.4708 303.195 45.5054 294.605 63.7094C292.788 67.6206 291.286 71.7463 290.769 76.0489C290.298 80.2466 290.96 84.4938 292.686 88.3493C294.223 91.9765 296.215 95.5088 296.843 99.4463C297.506 103.597 296.187 107.585 293.594 110.837C290.422 114.815 286.009 117.416 281.606 119.81C276.716 122.468 271.596 125.151 268.286 129.788C267.885 130.35 267.036 129.695 267.437 129.134C273.195 121.066 283.707 119.025 290.706 112.395C293.972 109.301 296.326 105.204 295.906 100.581C295.538 96.5373 293.487 92.8931 291.899 89.2339C290.232 85.3918 289.29 81.4877 289.577 77.2766C289.871 72.9688 291.215 68.7757 292.924 64.8352C296.865 55.9286 302.183 47.697 308.681 40.442C316.052 32.1209 324.792 25.1218 334.523 19.7476C335.126 19.4153 335.525 20.4109 334.926 20.7411Z" fill="white"/>
<path d="M297.026 57.685C294.167 55.8292 292.061 53.0177 291.084 49.7525C290.107 46.4874 290.322 42.9813 291.692 39.8604C291.971 39.2298 292.964 39.6341 292.685 40.2655C291.404 43.1694 291.204 46.4354 292.12 49.474C293.036 52.5126 295.008 55.1237 297.68 56.836C298.26 57.2088 297.603 58.0557 297.026 57.685Z" fill="white"/>
<path d="M291.664 86.6125C298.492 85.2241 304.546 81.3134 308.618 75.6602C309.021 75.0998 309.87 75.7547 309.467 76.3145C305.218 82.1894 298.91 86.2462 291.802 87.6754C291.125 87.8112 290.991 86.7475 291.664 86.6125Z" fill="white"/>
<path d="M316.654 33.4082C317.611 34.3567 318.788 35.0528 320.08 35.4341C321.372 35.8153 322.738 35.8696 324.057 35.5923C324.732 35.448 324.865 36.5119 324.194 36.6552C322.736 36.9549 321.227 36.893 319.799 36.475C318.37 36.0569 317.066 35.2955 316 34.2571C315.891 34.1677 315.821 34.0402 315.802 33.9006C315.784 33.761 315.82 33.6197 315.902 33.5055C315.99 33.3936 316.118 33.3205 316.258 33.3023C316.399 33.2841 316.541 33.3221 316.654 33.4082Z" fill="white"/>
<path d="M92.0839 37.4748C89.9964 36.0013 87.7124 34.4648 85.1579 34.5262C78.9752 34.6749 75.6417 43.7378 69.4654 43.4191C65.5266 43.2158 62.9118 39.2148 59.2443 37.7641C54.4696 35.8754 48.3935 39.5691 47.8726 44.6769L48.4857 44.1158C67.0459 48.6401 86.3064 49.5298 105.205 46.7359C100.831 43.6488 96.4576 40.5618 92.0839 37.4748Z" fill="#F0F0F0"/>
<path d="M103.652 48.3761C115.501 48.3761 125.106 38.7717 125.106 26.9239C125.106 15.0762 115.501 5.47168 103.652 5.47168C91.8038 5.47168 82.1986 15.0762 82.1986 26.9239C82.1986 38.7717 91.8038 48.3761 103.652 48.3761Z" fill="#FF6582"/>
<path d="M153.87 22.8264C151.21 20.9485 148.299 18.9904 145.044 19.0687C137.164 19.2581 132.916 30.8081 125.045 30.4019C120.025 30.1429 116.693 25.0439 112.019 23.195C105.934 20.7881 98.1904 25.4955 97.5266 32.0049L98.3081 31.2898C121.961 37.0557 146.507 38.1896 170.592 34.6289C165.018 30.6947 159.444 26.7605 153.87 22.8264Z" fill="#F0F0F0"/>
<path d="M346.848 238.176L324.08 116.28C323.691 114.271 322.63 112.453 321.072 111.126C319.514 109.798 317.551 109.039 315.505 108.974C315.321 108.97 315.137 108.97 314.953 108.974L299.443 109.53L297.774 109.591L290.034 109.87L288.365 109.927L283.386 110.107L182.989 113.711C182.837 113.719 182.682 113.719 182.531 113.715L160.033 113.245L151.708 113.073L151.442 113.069L145.297 112.938L91.7518 111.825L77.5555 111.526L70.5555 111.383L68.8782 111.346L60.8963 111.183L59.2231 111.146L51.0571 110.978L49.3838 110.941L40.4119 110.753L39.0046 110.725L31.0023 110.557L29.7381 110.532H29.554C27.4296 110.541 25.3766 111.3 23.758 112.676C22.1394 114.052 21.0594 115.956 20.709 118.051L0.118145 244.541C-0.0909567 245.822 -0.0189783 247.134 0.329094 248.385C0.677167 249.635 1.293 250.796 2.13395 251.785C2.97491 252.774 4.02087 253.568 5.19938 254.113C6.37788 254.658 7.66075 254.94 8.95912 254.94H127.21C128.95 254.945 130.644 255.504 132.046 256.536L134.288 258.196C135.833 259.334 137.7 259.95 139.618 259.956H209.307C210.485 259.959 211.651 259.728 212.739 259.277C213.827 258.826 214.814 258.164 215.644 257.329C217.064 255.91 218.958 255.066 220.963 254.961L338.51 248.767C339.785 248.7 341.03 248.362 342.164 247.775C343.297 247.188 344.292 246.365 345.081 245.362C345.871 244.359 346.437 243.199 346.741 241.96C347.046 240.721 347.082 239.43 346.848 238.176Z" fill="#CCCCCC"/>
<path d="M328.217 234.862L315.526 109.137C315.522 109.084 315.514 109.027 315.505 108.974C315.268 106.965 314.276 105.121 312.732 103.815L285.431 81.0741C284.244 80.0776 282.768 79.4883 281.221 79.3927C268.731 78.5909 205.232 75.6209 181.794 95.9648C181.083 96.5836 180.245 97.0391 179.339 97.2992C178.432 97.5593 177.48 97.6177 176.549 97.4702C175.616 97.3188 174.726 96.9678 173.941 96.4411C173.156 95.9144 172.494 95.2245 172 94.4184C170.007 91.3124 167.396 88.6499 164.329 86.5967C162.952 85.6407 161.517 84.7704 160.033 83.9908C158.72 83.2995 157.292 82.6286 155.737 81.9822C154.4 81.4258 152.972 80.8899 151.442 80.3786C143.509 77.7277 132.905 75.7477 118.733 75.085C112.854 74.8068 106.464 74.77 99.7418 74.9705C93.6051 75.1505 87.0838 75.5227 80.362 76.0791L80.2638 76.0832L34.7824 103.848C33.7628 104.484 32.9011 105.343 32.2625 106.36C31.6239 107.378 31.2251 108.528 31.0963 109.722L31.0022 110.557L16.5604 239.587C16.4357 240.683 16.5365 241.794 16.8566 242.85C17.1767 243.906 17.7094 244.885 18.4219 245.727C19.1155 246.549 19.9791 247.21 20.9532 247.665C21.9273 248.12 22.9886 248.357 24.0636 248.362H136.129C137.619 248.37 139.062 248.881 140.224 249.814L145.117 253.733C146.392 254.757 147.97 255.33 149.605 255.361L198.879 256.167H198.997C200.242 256.165 201.465 255.847 202.553 255.243L212.056 249.966C212.923 249.483 213.889 249.203 214.879 249.147L321.086 243.539C322.121 243.484 323.133 243.211 324.055 242.739C324.978 242.266 325.791 241.605 326.441 240.798C327.117 239.976 327.622 239.028 327.926 238.009C328.231 236.99 328.33 235.92 328.217 234.862Z" fill="#E6E6E6"/>
<path d="M291.145 212.188L289.658 192.62L283.387 110.109L282.455 97.9026C282.219 94.6965 280.797 91.6932 278.468 89.478C276.138 87.2629 273.066 85.9947 269.852 85.9206C246.872 85.3307 205.26 86.369 184.84 100.05C182.569 101.594 179.814 102.259 177.088 101.923C174.363 101.587 171.853 100.271 170.025 98.2212C167.2 95.1195 163.807 92.5864 160.031 90.7583C157.267 89.3723 154.394 88.216 151.44 87.3011C142.797 84.5401 131.89 82.8627 118.719 82.2688L87.4613 82.0859H87.4082C85.2429 82.0879 83.1595 82.9142 81.5815 84.3968C80.0034 85.8794 79.049 87.9071 78.9123 90.068L77.5553 111.525L71.6258 205.622C71.5149 207.375 71.7614 209.132 72.3503 210.787C72.9393 212.442 73.8584 213.96 75.0518 215.249C76.2453 216.538 77.6882 217.57 79.293 218.285C80.8978 218.999 82.631 219.38 84.3874 219.404C136.856 220.182 159.777 231.256 169.771 240.4C171.897 242.35 174.611 243.535 177.486 243.768C180.361 244 183.231 243.268 185.642 241.686C203.785 229.804 233.945 226.501 257.952 225.987C265.303 225.834 272.077 225.934 277.752 226.135C279.577 226.201 281.394 225.88 283.086 225.195C284.778 224.51 286.306 223.475 287.57 222.159C288.834 220.842 289.806 219.273 290.422 217.555C291.039 215.837 291.285 214.008 291.145 212.188Z" fill="white"/>
<path d="M30.6707 239.481C30.6511 239.481 30.6308 239.48 30.6111 239.479C30.5017 239.471 30.3949 239.442 30.2967 239.393C30.1986 239.344 30.111 239.276 30.0391 239.193C29.9672 239.11 29.9123 239.014 29.8776 238.91C29.8428 238.806 29.8289 238.696 29.8367 238.587L38.8643 111.126C38.8707 111.016 38.899 110.908 38.9476 110.81C38.9962 110.711 39.064 110.623 39.1472 110.551C39.2303 110.479 39.327 110.424 39.4316 110.39C39.5362 110.355 39.6466 110.342 39.7562 110.351C39.8657 110.359 39.9725 110.388 40.0707 110.437C40.1688 110.486 40.2563 110.554 40.3283 110.637C40.4002 110.72 40.4551 110.816 40.4898 110.92C40.5246 111.024 40.5384 111.134 40.5307 111.243L31.5031 238.704C31.4884 238.915 31.3944 239.112 31.2399 239.257C31.0854 239.401 30.882 239.481 30.6707 239.481Z" fill="white"/>
<path d="M41.5345 234.467C41.5149 234.467 41.4945 234.467 41.4749 234.465C41.3655 234.457 41.2586 234.428 41.1605 234.379C41.0623 234.33 40.9748 234.262 40.9029 234.18C40.831 234.097 40.7761 234.001 40.7414 233.896C40.7066 233.792 40.6927 233.683 40.7004 233.573L49.728 106.112C49.7345 106.002 49.7628 105.895 49.8114 105.796C49.86 105.697 49.9278 105.609 50.0109 105.537C50.094 105.465 50.1907 105.41 50.2953 105.376C50.3999 105.342 50.5103 105.329 50.62 105.338C50.7294 105.345 50.8363 105.375 50.9344 105.424C51.0326 105.473 51.1201 105.54 51.192 105.623C51.2639 105.706 51.3188 105.802 51.3536 105.906C51.3883 106.01 51.4022 106.12 51.3945 106.23L42.3669 233.691C42.3522 233.901 42.2581 234.099 42.1037 234.243C41.9492 234.387 41.7458 234.467 41.5345 234.467Z" fill="white"/>
<path d="M51.5626 231.961C51.543 231.961 51.5226 231.96 51.503 231.958C51.3936 231.951 51.2867 231.921 51.1886 231.872C51.0904 231.823 51.0029 231.755 50.931 231.673C50.8591 231.59 50.8041 231.494 50.7694 231.39C50.7347 231.286 50.7208 231.176 50.7285 231.066L59.7561 103.605C59.7625 103.495 59.7909 103.388 59.8394 103.289C59.888 103.19 59.9559 103.102 60.039 103.03C60.1221 102.958 60.2188 102.903 60.3234 102.869C60.428 102.835 60.5384 102.822 60.6481 102.831C60.7575 102.839 60.8643 102.868 60.9625 102.917C61.0606 102.966 61.1482 103.034 61.2201 103.116C61.292 103.199 61.3469 103.295 61.3816 103.4C61.4164 103.504 61.4303 103.613 61.4226 103.723L52.395 231.184C52.3803 231.395 52.2862 231.592 52.1317 231.736C51.9773 231.88 51.7739 231.961 51.5626 231.961Z" fill="white"/>
<path d="M61.5908 226.947C61.5712 226.947 61.5508 226.946 61.5312 226.945C61.4218 226.937 61.3149 226.908 61.2168 226.859C61.1186 226.81 61.0311 226.742 60.9592 226.659C60.8872 226.576 60.8324 226.48 60.7976 226.376C60.7629 226.272 60.749 226.162 60.7567 226.053L69.7843 98.5917C69.7907 98.4818 69.8191 98.3743 69.8677 98.2756C69.9162 98.1768 69.9841 98.0888 70.0672 98.0166C70.1503 97.9445 70.247 97.8897 70.3516 97.8554C70.4562 97.8212 70.5666 97.8082 70.6763 97.8172C70.7857 97.8249 70.8926 97.8541 70.9907 97.9031C71.0888 97.9521 71.1764 98.02 71.2483 98.1028C71.3202 98.1856 71.3751 98.2818 71.4099 98.3858C71.4446 98.4899 71.4585 98.5998 71.4508 98.7092L62.4232 226.17C62.4085 226.381 62.3144 226.578 62.16 226.722C62.0055 226.867 61.8021 226.947 61.5908 226.947Z" fill="white"/>
<path d="M318.141 240.317C318.161 240.317 318.181 240.316 318.201 240.315C318.31 240.307 318.417 240.278 318.515 240.229C318.614 240.18 318.701 240.112 318.773 240.029C318.845 239.946 318.9 239.85 318.935 239.746C318.969 239.642 318.983 239.532 318.975 239.423L309.948 111.962C309.941 111.852 309.913 111.744 309.864 111.646C309.816 111.547 309.748 111.459 309.665 111.387C309.582 111.315 309.485 111.26 309.381 111.226C309.276 111.191 309.166 111.178 309.056 111.187C308.946 111.195 308.84 111.224 308.741 111.273C308.643 111.322 308.556 111.39 308.484 111.473C308.412 111.556 308.357 111.652 308.322 111.756C308.288 111.86 308.274 111.97 308.281 112.079L317.309 239.54C317.324 239.751 317.418 239.948 317.572 240.093C317.727 240.237 317.93 240.317 318.141 240.317Z" fill="white"/>
<path d="M307.278 232.797C307.297 232.797 307.318 232.796 307.337 232.794C307.447 232.786 307.553 232.757 307.652 232.708C307.75 232.659 307.837 232.591 307.909 232.509C307.981 232.426 308.036 232.33 308.071 232.226C308.105 232.122 308.119 232.012 308.112 231.902L299.084 104.441C299.078 104.331 299.049 104.224 299.001 104.125C298.952 104.026 298.884 103.938 298.801 103.866C298.718 103.794 298.621 103.739 298.517 103.705C298.412 103.671 298.302 103.658 298.192 103.667C298.083 103.675 297.976 103.704 297.878 103.753C297.779 103.802 297.692 103.87 297.62 103.952C297.548 104.035 297.493 104.131 297.458 104.235C297.424 104.339 297.41 104.449 297.418 104.559L306.445 232.02C306.46 232.231 306.554 232.428 306.708 232.572C306.863 232.716 307.066 232.796 307.278 232.797Z" fill="white"/>
<path d="M297.25 224.44C297.269 224.44 297.29 224.439 297.309 224.438C297.419 224.43 297.525 224.401 297.624 224.352C297.722 224.303 297.809 224.235 297.881 224.152C297.953 224.069 298.008 223.973 298.043 223.869C298.077 223.765 298.091 223.655 298.084 223.546L289.056 96.0848C289.05 95.975 289.021 95.8675 288.973 95.7687C288.924 95.67 288.856 95.5819 288.773 95.5098C288.69 95.4376 288.593 95.3828 288.489 95.3486C288.384 95.3143 288.274 95.3014 288.164 95.3104C288.055 95.3181 287.948 95.3473 287.85 95.3963C287.751 95.4453 287.664 95.5131 287.592 95.596C287.52 95.6788 287.465 95.775 287.43 95.879C287.396 95.9831 287.382 96.0929 287.39 96.2023L296.417 223.663C296.432 223.874 296.526 224.071 296.68 224.216C296.835 224.36 297.038 224.44 297.25 224.44Z" fill="white"/>
<path d="M92.1667 110.88C111.003 104.87 132.019 106.461 149.864 114.927C154.955 117.33 159.764 120.292 164.202 123.757C165.457 124.742 167.243 122.98 165.974 121.985C149.584 109.273 128.989 103.234 108.329 105.082C102.613 105.593 96.97 106.727 91.5002 108.462C89.9689 108.951 90.6234 111.372 92.1667 110.88Z" fill="#3F3D56"/>
<path d="M195.819 124.73C213.333 115.525 234.304 113.518 253.346 118.743C258.775 120.229 264.021 122.315 268.988 124.962C270.411 125.721 271.679 123.558 270.253 122.797C252.105 113.114 230.32 110.885 210.502 116.283C204.974 117.791 199.626 119.898 194.554 122.565C193.125 123.316 194.391 125.481 195.819 124.73Z" fill="#3F3D56"/>
<path d="M195.819 141.442C213.333 132.237 234.304 130.23 253.346 135.455C258.775 136.941 264.021 139.027 268.988 141.674C270.411 142.433 271.679 140.27 270.253 139.509C252.105 129.826 230.32 127.597 210.502 132.995C204.974 134.503 199.626 136.61 194.554 139.277C193.125 140.028 194.391 142.193 195.819 141.442Z" fill="#3F3D56"/>
<path d="M270.867 157.258C270.88 157.043 270.828 156.829 270.718 156.644C270.608 156.458 270.444 156.311 270.249 156.219C255.711 148.607 239.226 145.52 222.918 147.354C222.816 147.363 222.722 147.379 222.612 147.387H222.607C222.507 147.396 222.407 147.411 222.309 147.432C212.609 148.548 203.199 151.448 194.554 155.986C194.366 156.098 194.21 156.258 194.102 156.448C193.993 156.639 193.936 156.855 193.937 157.074V188.251C193.94 188.443 193.986 188.631 194.073 188.802C194.16 188.974 194.285 189.123 194.438 189.239C194.59 189.354 194.768 189.434 194.956 189.471C195.144 189.508 195.338 189.502 195.524 189.454C195.909 189.343 196.293 189.237 196.686 189.134C205.426 186.769 214.397 185.366 223.442 184.949C223.634 184.941 223.827 184.933 224.027 184.925C231.394 184.609 238.774 184.874 246.099 185.719C246.252 185.727 246.405 185.744 246.557 185.768C246.933 185.809 247.318 185.854 247.694 185.903C247.846 185.919 247.989 185.935 248.128 185.96C249.593 186.144 251.045 186.353 252.502 186.578C254.604 186.913 256.707 187.287 258.81 187.699C258.941 187.723 259.076 187.756 259.211 187.78C262.586 188.451 265.945 189.229 269.288 190.088C269.474 190.136 269.668 190.141 269.857 190.103C270.045 190.065 270.222 189.984 270.375 189.868C270.528 189.751 270.652 189.601 270.739 189.43C270.826 189.258 270.872 189.069 270.875 188.877V157.307C270.876 157.291 270.873 157.274 270.867 157.258Z" fill="#3F3D56"/>
<path d="M224.884 149.054C223.965 148.604 222.913 148.512 221.93 148.795C221.496 148.957 221.098 149.205 220.76 149.522C220.423 149.84 220.151 150.222 219.962 150.645C219.622 151.457 219.403 152.314 219.315 153.19C219.263 153.534 219.259 153.969 219.606 154.13C219.731 154.176 219.867 154.186 219.998 154.16C220.129 154.134 220.251 154.073 220.35 153.983C220.529 153.806 220.676 153.601 220.786 153.375C221.387 152.439 222.214 151.671 223.191 151.14C224.168 150.608 225.263 150.332 226.375 150.336L227.301 150.705C226.572 150.049 225.76 149.494 224.884 149.054Z" fill="#FF6582"/>
<path d="M234.901 156.24C234.183 155.183 233.332 154.054 231.999 153.708C230.455 153.309 228.869 154.103 227.524 154.887C223.525 157.216 219.652 159.756 215.921 162.496L215.925 162.537L224.584 162.005C226.669 161.877 228.826 161.732 230.669 160.854C231.33 160.439 232.07 160.164 232.842 160.045C233.321 160.07 233.79 160.191 234.222 160.399C234.654 160.607 235.041 160.899 235.359 161.257C239.35 165.039 240.504 170.823 244.981 174.146C242.132 167.903 238.76 161.913 234.901 156.24Z" fill="white"/>
<path d="M224.028 184.924C223.828 184.933 223.636 184.941 223.444 184.949C222.048 184.448 220.619 184.005 219.173 183.621C218.237 183.37 217.285 183.144 216.332 182.952C215.254 182.718 214.168 182.534 213.081 182.376C211.013 182.075 208.928 181.899 206.839 181.849C206.823 181.851 206.807 181.849 206.792 181.845C206.777 181.84 206.763 181.832 206.751 181.821C206.739 181.81 206.729 181.797 206.723 181.783C206.717 181.768 206.713 181.752 206.713 181.737C206.713 181.721 206.717 181.705 206.723 181.69C206.729 181.676 206.739 181.663 206.751 181.652C206.763 181.641 206.777 181.633 206.792 181.629C206.807 181.624 206.823 181.622 206.839 181.624C207.106 181.624 207.374 181.632 207.633 181.649C209.727 181.726 211.814 181.93 213.883 182.259C214.962 182.434 216.04 182.643 217.109 182.877C218.079 183.094 219.048 183.337 220.001 183.604C221.363 183.988 222.705 184.429 224.028 184.924Z" fill="white"/>
<path d="M248.129 185.96C247.987 185.935 247.845 185.919 247.695 185.902C247.118 185.426 246.533 184.974 245.923 184.531C245.163 183.98 244.377 183.462 243.575 182.977C241.798 181.899 239.943 180.955 238.026 180.153C234.994 178.891 231.857 177.901 228.65 177.195C224.992 176.393 221.288 175.813 217.56 175.457C213.833 175.072 210.089 174.838 206.346 174.604C206.187 174.596 206.178 174.362 206.346 174.37C206.814 174.404 207.282 174.429 207.758 174.462C211.543 174.696 215.329 174.964 219.09 175.39C222.818 175.789 226.517 176.431 230.162 177.312C233.274 178.079 236.311 179.122 239.238 180.429C240.921 181.185 242.551 182.053 244.118 183.027C245.112 183.654 246.074 184.323 246.993 185.033C247.377 185.334 247.762 185.635 248.129 185.96Z" fill="white"/>
<path d="M246.558 185.768C246.406 185.744 246.253 185.727 246.099 185.718C245.923 185.576 245.739 185.442 245.556 185.309C244.269 184.388 242.927 183.548 241.536 182.794C240.273 182.107 238.976 181.485 237.65 180.93C234.62 179.664 231.482 178.674 228.274 177.972C224.616 177.171 220.912 176.59 217.184 176.234C213.457 175.85 209.713 175.616 205.97 175.382C205.811 175.365 205.811 175.139 205.97 175.148C206.446 175.181 206.914 175.206 207.382 175.24C211.168 175.473 214.953 175.741 218.714 176.167C222.442 176.567 226.141 177.209 229.786 178.089C232.899 178.854 235.936 179.898 238.862 181.206C239.965 181.707 241.043 182.25 242.096 182.844C243.657 183.701 245.149 184.679 246.558 185.768Z" fill="white"/>
<path d="M259.211 187.782C259.077 187.757 258.943 187.724 258.809 187.699C258.659 187.54 258.517 187.373 258.375 187.206C257.656 186.378 256.946 185.543 256.244 184.699C253.478 181.407 250.854 178.014 248.38 174.555C246.258 171.596 244.244 168.58 242.338 165.505C241.427 164.051 240.55 162.58 239.689 161.093C239.021 159.94 238.369 158.784 237.734 157.625C237.55 157.291 237.374 156.956 237.199 156.622C236.789 155.837 236.38 155.043 235.945 154.266C235.473 153.314 234.78 152.488 233.923 151.859C233.495 151.572 232.999 151.403 232.486 151.366C231.761 151.369 231.049 151.553 230.413 151.901C225.738 154.078 221.327 156.784 217.268 159.965C213.303 163.048 209.718 166.591 206.588 170.518C206.488 170.635 206.27 170.527 206.362 170.401C206.738 169.934 207.123 169.466 207.507 169.006C210.516 165.448 213.904 162.228 217.611 159.405C217.619 159.396 217.636 159.388 217.644 159.38C217.97 159.121 218.296 158.87 218.63 158.628C220.7 157.104 222.854 155.698 225.082 154.416C226.218 153.756 227.38 153.129 228.566 152.536C228.859 152.386 229.16 152.235 229.46 152.093C229.761 151.943 230.062 151.801 230.363 151.659C230.959 151.355 231.61 151.176 232.277 151.132C234.6 151.099 235.795 153.438 236.622 155.018C236.881 155.511 237.149 156.004 237.408 156.497C238.411 158.36 239.455 160.215 240.542 162.045C241.202 163.182 241.887 164.31 242.581 165.43C243.575 167.026 244.595 168.605 245.656 170.176L245.656 170.179L245.658 170.182L245.661 170.184L245.664 170.184C246.893 172.039 248.171 173.861 249.492 175.674C251.756 178.774 254.13 181.805 256.612 184.766C257.464 185.785 258.33 186.791 259.211 187.782Z" fill="white"/>
<path d="M270.876 184.097V184.481C270.049 183.512 269.205 182.551 268.369 181.59C268.019 181.189 267.668 180.788 267.316 180.387C265.829 178.699 264.333 177.016 262.829 175.34C261.316 173.668 259.804 171.997 258.274 170.334C257.907 169.933 257.539 169.532 257.163 169.131C256.862 168.794 256.535 168.481 256.185 168.195C255.832 167.901 255.427 167.677 254.99 167.535C254.488 167.396 253.958 167.39 253.453 167.518C252.876 167.652 252.324 167.861 251.765 168.036C251.188 168.229 250.62 168.412 250.043 168.596C248.89 168.972 247.745 169.348 246.592 169.724C246.577 169.73 246.562 169.733 246.547 169.733C246.531 169.732 246.516 169.729 246.502 169.723C246.488 169.717 246.476 169.708 246.465 169.696C246.455 169.685 246.447 169.672 246.441 169.657C246.435 169.642 246.432 169.624 246.432 169.607C246.433 169.59 246.438 169.574 246.446 169.558C246.454 169.543 246.465 169.53 246.479 169.52C246.492 169.509 246.508 169.502 246.525 169.499C246.809 169.407 247.102 169.315 247.394 169.223C248.556 168.839 249.709 168.463 250.87 168.087C251.447 167.894 252.024 167.71 252.6 167.527C253.135 167.324 253.7 167.211 254.272 167.192C255.205 167.26 256.08 167.67 256.728 168.346C257.088 168.68 257.414 169.031 257.74 169.39C258.124 169.808 258.508 170.226 258.893 170.643C260.439 172.331 261.974 174.025 263.497 175.724C265.027 177.429 266.542 179.136 268.044 180.846C268.152 180.972 268.261 181.097 268.369 181.222C269.213 182.175 270.041 183.136 270.876 184.097Z" fill="white"/>
<path d="M229.396 150.877L229.165 150.978C228.635 150.084 227.893 149.335 227.004 148.797C226.115 148.258 225.107 147.948 224.07 147.894C220.648 147.65 217.643 149.93 217.37 152.975C217.259 154.229 217.622 155.479 218.387 156.478L218.172 156.605C217.375 155.565 216.997 154.263 217.113 152.957C217.397 149.786 220.527 147.412 224.09 147.665C225.171 147.722 226.221 148.045 227.146 148.605C228.072 149.166 228.845 149.946 229.396 150.877Z" fill="#FF6582"/>
<path d="M212.49 157.037C211.593 156.647 210.615 156.476 209.637 156.538C208.66 156.6 207.712 156.894 206.871 157.395C209.942 157.866 212.985 158.499 215.99 159.289C214.746 158.641 213.773 157.624 212.49 157.037Z" fill="white"/>
<path d="M206.854 157.393L206.515 157.637C206.63 157.552 206.749 157.471 206.871 157.395L206.854 157.393Z" fill="white"/>
<path d="M256.055 169.734C255.74 169.328 255.319 169.015 254.839 168.83L254.363 168.847C258.093 174.65 262.98 179.622 268.717 183.453C264.497 178.88 260.276 174.307 256.055 169.734Z" fill="white"/>
<path d="M217.036 158.811C216.901 158.677 216.767 158.544 216.632 158.41C215.592 157.278 214.339 156.362 212.945 155.713C212.236 155.414 211.474 155.257 210.704 155.25C209.909 155.269 209.122 155.421 208.378 155.702C208.027 155.826 207.685 155.968 207.348 156.118C206.962 156.291 206.583 156.475 206.206 156.661C205.499 157.009 204.801 157.373 204.112 157.752C202.74 158.506 201.412 159.318 200.127 160.187C199.461 160.638 198.808 161.104 198.17 161.584C197.575 162.031 196.993 162.489 196.423 162.959C196.301 163.059 196.119 162.897 196.241 162.797C196.391 162.672 196.543 162.549 196.695 162.426C197.125 162.081 197.561 161.742 198.004 161.41C198.812 160.803 199.641 160.22 200.49 159.66C201.812 158.789 203.178 157.977 204.591 157.224C205.296 156.848 206.012 156.488 206.737 156.144C206.956 156.04 207.178 155.938 207.402 155.842C207.913 155.612 208.441 155.421 208.981 155.269C209.756 155.047 210.566 154.977 211.367 155.061C212.135 155.159 212.879 155.388 213.569 155.739C214.935 156.504 216.168 157.487 217.218 158.648C217.328 158.758 217.147 158.921 217.036 158.811Z" fill="white"/>
<path d="M92.1667 127.591C111.003 121.582 132.019 123.173 149.864 131.639C154.955 134.042 159.764 137.004 164.202 140.469C165.457 141.454 167.243 139.692 165.974 138.697C149.584 125.985 128.989 119.946 108.329 121.793C102.613 122.305 96.97 123.439 91.5002 125.174C89.9689 125.663 90.6234 128.084 92.1667 127.591Z" fill="#3F3D56"/>
<path d="M92.1667 144.304C111.003 138.295 132.019 139.886 149.864 148.352C154.955 150.755 159.764 153.717 164.202 157.182C165.457 158.167 167.243 156.405 165.974 155.41C149.584 142.697 128.989 136.659 108.329 138.506C102.613 139.018 96.97 140.151 91.5002 141.887C89.9689 142.376 90.6234 144.797 92.1667 144.304Z" fill="#3F3D56"/>
<path d="M92.1667 161.016C111.003 155.007 132.019 156.598 149.864 165.064C154.955 167.467 159.764 170.429 164.202 173.894C165.457 174.879 167.243 173.117 165.974 172.121C149.584 159.409 128.989 153.371 108.329 155.218C102.613 155.73 96.97 156.863 91.5002 158.599C89.9689 159.087 90.6234 161.509 92.1667 161.016Z" fill="#3F3D56"/>
<path d="M92.1667 177.729C111.003 171.72 132.019 173.311 149.864 181.777C154.955 184.18 159.764 187.141 164.202 190.607C165.457 191.592 167.243 189.83 165.974 188.834C149.584 176.122 128.989 170.083 108.329 171.931C102.613 172.443 96.97 173.576 91.5002 175.312C89.9689 175.8 90.6234 178.222 92.1667 177.729Z" fill="#3F3D56"/>
<path d="M92.1667 194.441C111.003 188.432 132.019 190.023 149.864 198.489C154.955 200.892 159.764 203.853 164.202 207.319C165.457 208.304 167.243 206.542 165.974 205.546C149.584 192.834 128.989 186.795 108.329 188.643C102.613 189.155 96.97 190.288 91.5002 192.024C89.9689 192.512 90.6234 194.933 92.1667 194.441Z" fill="#3F3D56"/>
<path d="M160.033 83.9902V130.831C160.033 131.628 158.642 132.295 156.764 132.475C156.437 132.508 156.093 132.524 155.737 132.524C154.704 132.544 153.676 132.376 152.702 132.029C152.521 131.959 152.346 131.876 152.178 131.78C151.712 131.506 151.442 131.182 151.442 130.831V80.3779C152.972 80.8893 154.4 81.4252 155.737 81.9816C157.292 82.6279 158.72 83.2988 160.033 83.9902Z" fill="#00BFA6"/>
<path d="M178.039 100.052H176.812V251.569H178.039V100.052Z" fill="#E6E6E6"/>
<path d="M287.576 222.153C286.31 223.47 284.781 224.505 283.089 225.191C281.396 225.877 279.578 226.199 277.752 226.135C272.077 225.934 265.303 225.834 257.952 225.987L257.911 225.952L289.771 184.655L291.145 212.188C291.283 214.007 291.036 215.834 290.421 217.55C289.806 219.267 288.837 220.835 287.576 222.153Z" fill="#F2F2F2"/>
<path d="M208.263 366.485L206.564 380.278L205.266 390.762L204.747 394.992H197.36V391.234L197.354 378.798V366.485H208.263Z" fill="#FFB6B6"/>
<path d="M156.756 365.039L154.662 371.505L152.98 376.691L152.691 377.582L151.541 381.127L149.11 388.626L147.9 392.36L141.18 391.062L140.644 390.962L141.08 388.708L141.346 387.334L144.284 372.101L144.762 369.647L144.838 369.252L145.057 368.113L146.048 362.975L153.21 364.355L154.036 364.514L156.756 365.039Z" fill="#FFB6B6"/>
<path d="M219.361 284.346C215.136 307.561 214.08 317.584 214.08 317.584C214.08 317.584 217.248 321.277 215.136 323.389C213.024 325.501 215.136 329.719 215.136 329.719L210.387 380.898L206.564 380.278L197.354 378.798L194.032 378.261L196.144 330.25C196.144 330.25 194.032 326.026 195.088 324.97C196.144 323.914 194.032 317.584 194.032 317.584L191.395 267.461L175.034 322.333C175.034 322.333 176.621 324.445 175.034 326.026C173.453 327.607 170.291 335.524 170.291 335.524L160.562 369.565L159.736 372.456L154.662 371.506L149.139 370.467L148.125 370.279L146.319 369.936L145.157 369.718L144.762 369.647L142.85 369.287L143.428 366.721L143.729 365.37L151.959 328.817L152.148 327.973L152.349 327.082C152.349 327.082 151.293 324.445 152.874 322.858C153.337 322.375 153.674 321.786 153.858 321.142C154.042 320.499 154.067 319.82 153.93 319.165C153.878 319.11 153.831 319.051 153.788 318.988C153.602 318.732 153.473 318.438 153.411 318.127C153.269 317.466 153.393 316.54 154.461 315.472C154.762 315.152 155.014 314.791 155.21 314.398C156.815 311.36 157.623 304.924 157.623 304.924C157.623 304.924 159.051 253.946 163.724 246.158C163.909 245.819 164.169 245.526 164.485 245.303C169.76 242.141 220.411 245.303 220.411 245.303C220.411 245.303 220.482 245.669 220.594 246.365C221.201 250.276 222.942 264.653 219.361 284.346Z" fill="#2F2E41"/>
<path d="M217.7 190.691L219.179 181.782L246.415 186.366L285.058 189.13C285.896 188.203 287.012 187.571 288.238 187.328C289.465 187.086 290.737 187.246 291.866 187.785C292.994 188.324 293.918 189.213 294.5 190.32C295.082 191.427 295.291 192.692 295.096 193.927C294.901 195.162 294.313 196.301 293.418 197.174C292.523 198.048 291.37 198.609 290.131 198.774C288.891 198.94 287.632 198.7 286.539 198.092C285.447 197.484 284.58 196.539 284.068 195.398L260.368 196.993L217.7 190.691Z" fill="#FFB6B6"/>
<path d="M197.342 184.525L199.265 176.572C199.265 176.572 209.708 174.65 217.964 176.489L249.025 182.449L246.511 201.223L197.342 184.525Z" fill="#00BFA6"/>
<path d="M125.248 250.013L142.625 212.265L155.307 185.559L166.305 192.031L132.067 254.167C132.368 255.274 132.333 256.446 131.968 257.535C131.603 258.623 130.923 259.578 130.014 260.28C129.106 260.981 128.01 261.398 126.864 261.477C125.719 261.555 124.576 261.293 123.58 260.722C122.584 260.151 121.78 259.298 121.269 258.27C120.758 257.243 120.563 256.086 120.709 254.948C120.856 253.809 121.336 252.74 122.09 251.874C122.844 251.009 123.838 250.386 124.946 250.086C125.046 250.059 125.147 250.035 125.248 250.013Z" fill="#FFB6B6"/>
<path d="M175.364 174.116L166.929 170.246C166.929 170.246 165.434 169.727 162.209 174.192C158.983 178.658 131.239 220.793 131.239 220.793L148.857 228.757L175.364 174.116Z" fill="#00BFA6"/>
<path d="M217.809 403.204L206.829 395.617V390.667L205.266 390.761L197.36 391.233L195.277 391.357L193.837 408.596L193.82 408.838H199.006L199.053 408.596L199.932 403.941L202.18 408.596L202.298 408.838H216.057C216.47 408.837 216.879 408.754 217.26 408.596C217.771 408.38 218.214 408.031 218.543 407.585C218.873 407.14 219.076 406.614 219.132 406.062C219.188 405.511 219.095 404.954 218.862 404.452C218.629 403.949 218.266 403.517 217.809 403.204Z" fill="#2F2E41"/>
<path d="M159.246 403.658L154.461 398.442L151.122 394.797L150.573 394.195L150.49 394.106L150.225 393.817L151.328 388.991L149.11 388.626L141.345 387.334L140.927 387.269L140.101 387.127L139.912 387.098L137.263 395.446L134.861 402.991L134.602 403.817L137.794 404.543L139.658 404.967L140.578 402.855L140.679 402.631L141.281 401.245V401.239L141.652 400.401L142.874 405.699L143.086 405.746L143.115 405.752L143.865 405.923L145.328 406.259L155.558 408.596L156.284 408.761C157.083 408.939 157.921 408.794 158.614 408.357C159.306 407.921 159.799 407.228 159.983 406.43C160.094 405.943 160.085 405.436 159.957 404.953C159.828 404.47 159.584 404.025 159.246 403.658Z" fill="#2F2E41"/>
<path d="M206.599 149.777C205.406 151.966 203.749 153.869 201.745 155.353C199.74 156.836 197.436 157.865 194.994 158.366C194.722 158.425 194.451 158.473 194.173 158.514C190.341 159.113 186.418 158.398 183.043 156.484C179.668 154.57 177.041 151.571 175.587 147.974C174.134 144.378 173.941 140.395 175.039 136.674C176.137 132.954 178.462 129.714 181.635 127.483C184.808 125.251 188.644 124.159 192.517 124.384C196.39 124.61 200.072 126.138 202.966 128.722C205.859 131.307 207.793 134.794 208.453 138.616C209.112 142.439 208.459 146.372 206.599 149.777Z" fill="#FFB6B6"/>
<path d="M199.767 126.456C194.144 122.589 189.193 122 185.126 123.097C184.598 122.282 183.859 121.625 182.987 121.198C179.815 113.206 170.161 108.406 161.877 110.739C153.539 113.088 147.786 122.323 149.355 130.842C150.327 136.122 153.651 140.694 154.987 145.894C157.575 155.96 151.263 167.491 141.388 170.736C150.737 172.613 161.029 166.903 164.383 157.977C166.012 153.641 166.11 148.907 166.318 144.28C166.372 141.087 166.763 137.908 167.485 134.796C167.843 133.4 168.349 132.046 168.994 130.758C170.4 127.925 172.735 125.661 175.609 124.341C175.351 125.137 175.287 125.983 175.421 126.809C175.555 127.634 175.883 128.416 176.379 129.09C174.186 131.837 172.993 134.807 172.993 136.586C168.438 144.91 174.951 152.06 183.276 156.614C186.597 158.441 190.431 159.109 194.173 158.514L194.522 157.027L194.994 158.367L196.569 162.856C198.386 163.735 200.188 164.699 201.973 165.747C201.295 162.561 200.746 159.381 200.368 156.272C199.846 152.041 201.668 145.741 202.983 141.91C203.798 139.549 204.217 137.069 204.221 134.571V134.462L205.501 138.574L210.162 136.586C209.295 131.612 210.162 125.966 199.767 126.456Z" fill="#2F2E41"/>
<path d="M163.956 240.555C164.568 238.131 164.568 235.593 163.956 233.169C162.9 229.476 165.011 227.893 165.011 227.893L165.539 170.912C167.768 168.683 173.74 168.647 177.081 168.82V166.311C177.081 165.387 177.449 164.501 178.102 163.848C178.755 163.194 179.642 162.827 180.566 162.827H196.017C196.941 162.827 197.827 163.194 198.481 163.848C199.134 164.501 199.501 165.387 199.501 166.311V169.319L204.033 169.39C211.925 169.978 218.83 177.771 218.83 177.771L211.97 204.151C211.97 204.151 214.081 225.782 216.719 228.42C219.357 231.058 218.302 232.641 218.302 232.641C218.302 232.641 216.719 238.445 219.885 240.555C223.051 242.666 220.94 246.359 220.94 246.359C220.94 246.359 163.956 247.414 162.373 245.831C160.79 244.248 163.956 240.555 163.956 240.555Z" fill="#00BFA6"/>
<path d="M268.95 409.298C268.95 409.39 268.932 409.481 268.897 409.567C268.862 409.652 268.81 409.73 268.745 409.795C268.679 409.86 268.602 409.912 268.517 409.947C268.431 409.982 268.34 410 268.248 410H102.878C102.692 410 102.513 409.926 102.381 409.794C102.25 409.663 102.176 409.484 102.176 409.298C102.176 409.112 102.25 408.933 102.381 408.801C102.513 408.67 102.692 408.596 102.878 408.596H268.248C268.34 408.595 268.431 408.613 268.517 408.649C268.602 408.684 268.679 408.735 268.745 408.801C268.81 408.866 268.862 408.943 268.897 409.029C268.932 409.114 268.95 409.205 268.95 409.298Z" fill="#CCCCCC"/>
</g>
<defs>
<clipPath id="clip0_150_903">
<rect width="347" height="410" fill="white"/>
</clipPath>
</defs>
</svg>
