<svg width="386" height="383" viewBox="0 0 386 383" fill="none" xmlns="http://www.w3.org/2000/svg">
<g clip-path="url(#clip0_150_656)">
<path d="M382.694 191.499C382.719 213.293 379.019 234.931 371.754 255.477C371.75 255.49 371.745 255.499 371.741 255.513C371.709 255.609 371.677 255.695 371.641 255.791V255.795C370.091 260.153 368.388 264.438 366.532 268.65C361.85 279.271 356.212 289.445 349.688 299.044C348.106 301.382 346.469 303.682 344.775 305.944C342.911 308.446 340.989 310.898 339.007 313.299C337.18 315.515 335.304 317.687 333.38 319.818C331.094 322.356 328.74 324.829 326.317 327.237C320.616 332.919 314.562 338.237 308.192 343.157C307.073 344.026 305.943 344.879 304.801 345.718C302.142 347.683 299.43 349.578 296.665 351.404C290.584 355.427 284.275 359.097 277.771 362.393C276.649 362.967 275.517 363.531 274.381 364.076C269.986 366.201 265.501 368.155 260.927 369.94C259.623 370.454 258.314 370.949 256.991 371.427C256.769 371.514 256.546 371.595 256.319 371.673C240.635 377.338 224.275 380.913 207.659 382.307C206.505 382.412 205.349 382.5 204.191 382.571C202.964 382.658 201.736 382.728 200.505 382.781C199.533 382.831 198.565 382.867 197.587 382.894C197.387 382.903 197.183 382.912 196.983 382.912C195.669 382.953 194.351 382.979 193.029 382.99C192.47 382.994 191.911 382.999 191.347 382.999C191.083 382.999 190.82 382.999 190.556 382.994C186.743 382.981 182.958 382.856 179.203 382.621C179.125 382.617 179.048 382.608 178.971 382.608C177.626 382.517 176.285 382.421 174.949 382.303C170.19 381.903 165.483 381.327 160.827 380.574C159.754 380.406 158.685 380.224 157.618 380.029C152.987 379.21 148.416 378.223 143.906 377.067C142.565 376.726 141.232 376.37 139.906 375.998C132.255 373.868 124.745 371.258 117.422 368.184C113.217 366.419 109.092 364.512 105.045 362.462C103.223 361.538 101.418 360.586 99.6323 359.605C99.146 359.341 98.6642 359.073 98.1824 358.804C94.6645 356.839 91.2194 354.768 87.8469 352.591C85.0835 350.812 82.3716 348.963 79.7113 347.042C79.384 346.814 79.0613 346.578 78.7387 346.341C76.6979 344.854 74.6905 343.328 72.7164 341.765C68.4214 338.358 64.2793 334.778 60.2902 331.026C57.5314 328.433 54.8528 325.758 52.2546 323.002C37.1153 306.978 24.8503 288.462 15.9986 268.268C14.117 263.969 12.3898 259.592 10.8172 255.136C10.8121 255.126 10.809 255.115 10.8082 255.104C3.63148 234.668 -0.0232617 213.161 -1.18374e-05 191.499C-1.18374e-05 111.097 49.5139 42.2664 119.69 13.8826C144.699 3.81014 171.549 -0.874441 198.488 0.134246C225.428 1.14293 251.852 7.82224 276.04 19.7367C339.234 50.9998 382.694 116.173 382.694 191.499Z" fill="#F2F2F2"/>
<path d="M276.04 19.7367V261.731H119.69V13.8826C144.699 3.81014 171.549 -0.874441 198.488 0.134246C225.428 1.14293 251.852 7.82224 276.04 19.7367Z" fill="white"/>
<path d="M157.314 130.092C161.556 123.071 166.582 115.576 174.453 113.283C183.568 110.628 192.931 115.902 200.874 121.106C224.626 136.67 247.5 153.537 269.391 171.629L269.367 171.902C252.324 170.725 235.281 169.549 218.238 168.373C205.925 167.523 193.188 166.556 182.307 160.726C178.178 158.514 174.152 155.559 169.473 155.353C163.66 155.098 158.591 159.161 154.608 163.406C131.044 188.518 124.226 226.919 97.79 248.982C114.46 207.839 134.363 168.085 157.314 130.092Z" fill="#F2F2F2"/>
<path d="M287.476 25.9094C287.08 25.6456 286.68 25.3954 286.285 25.1407C274.855 17.8245 262.603 11.8809 249.784 7.43265L246.811 48.4709H227.967V1.44204C226.781 1.19641 225.586 0.96443 224.39 0.746094V48.4709H201.997C189.669 48.4709 177.846 43.5697 169.129 34.8457C160.412 26.1216 155.515 14.2892 155.515 1.95155C154.315 2.21082 153.124 2.48825 151.933 2.78391V48.4709H133.694L130.862 9.33856C117.688 14.395 105.181 21.0445 93.6199 29.139C93.4199 29.2754 93.2199 29.4164 93.0245 29.5529C92.02 30.2579 91.0292 30.9766 90.0429 31.7044V260.135H143.797L142.847 246.966L137.621 102.796H242.88L237.653 246.966L236.703 260.135H289.862V27.4924C289.071 26.9556 288.276 26.428 287.476 25.9094ZM151.933 90.8555H136.757L133.953 52.0552H151.933V90.8555ZM224.39 90.8555H198.902V90.0867C198.902 89.7172 198.829 89.3513 198.687 89.0099C198.546 88.6685 198.339 88.3585 198.077 88.0974C197.816 87.8363 197.506 87.6293 197.165 87.4883C196.823 87.3473 196.458 87.275 196.088 87.2757H185.007C184.639 87.2755 184.273 87.3481 183.932 87.4893C183.592 87.6306 183.282 87.8376 183.021 88.0987C182.76 88.3597 182.553 88.6697 182.412 89.0108C182.271 89.3519 182.198 89.7175 182.199 90.0867V90.8555H155.515V52.0552H224.39V90.8555ZM227.967 90.8555V52.0552H246.552L243.748 90.8555H227.967Z" fill="#3F3D56"/>
<path d="M371.755 255.476C371.75 255.489 371.746 255.498 371.741 255.512C371.709 255.607 371.677 255.694 371.641 255.789V255.794C370.091 260.152 368.388 264.436 366.532 268.648L15.9991 268.266C14.1175 263.968 12.3903 259.591 10.8177 255.134C10.8126 255.124 10.8096 255.114 10.8087 255.103L371.755 255.476Z" fill="#3F3D56"/>
<path d="M240.757 256.973H179.399V265.16H240.757V256.973Z" fill="white"/>
<path d="M98.1779 337.153C98.3961 335.229 98.6975 333.317 99.0823 331.417C101.186 321.116 105.7 311.46 112.254 303.243C116.004 303.452 119.29 302.879 119.603 295.61C119.662 294.318 120.621 293.195 120.83 291.921C120.476 291.971 120.108 291.998 119.753 292.021C119.64 292.026 119.521 292.035 119.412 292.039H119.371C118.978 292.058 118.587 291.962 118.247 291.763C117.907 291.564 117.631 291.271 117.454 290.919C117.277 290.567 117.205 290.171 117.248 289.779C117.29 289.387 117.445 289.015 117.694 288.71C117.849 288.523 118.003 288.332 118.158 288.141C118.39 287.845 118.631 287.559 118.867 287.268C118.894 287.236 118.917 287.209 118.944 287.177C119.212 286.845 119.481 286.513 119.753 286.181C119.261 285.415 118.598 284.774 117.817 284.307C115.113 282.719 111.381 283.82 109.427 286.267C107.468 288.714 107.095 292.153 107.777 295.21C108.359 297.83 109.627 300.232 111.049 302.515C110.904 302.701 110.75 302.883 110.604 303.074C107.924 306.525 105.587 310.23 103.627 314.137C104.182 309.802 97.4052 294.154 94.7827 290.838C91.633 286.858 85.179 288.596 84.6245 293.645C84.6199 293.69 84.6109 293.741 84.6063 293.791C84.9972 294.009 85.379 294.241 85.7517 294.491C86.2199 294.804 86.5826 295.252 86.7924 295.774C87.0022 296.297 87.0493 296.872 86.9274 297.422C86.8056 297.972 86.5205 298.473 86.1096 298.858C85.6987 299.243 85.181 299.495 84.6245 299.581L84.5654 299.59C79.3568 307.036 96.0599 326.418 100.246 322.07C99.1935 325.029 98.3535 328.06 97.7324 331.14C97.175 333.856 96.7865 336.604 96.5689 339.368C96.3038 342.85 96.3205 346.347 96.6189 349.826C96.6106 349.785 96.6046 349.744 96.6007 349.703C95.669 342.125 79.7295 330.858 75.0753 331.795C72.3937 332.336 69.753 332.213 70.1621 334.92C70.1666 334.965 70.1757 335.006 70.1803 335.052C70.903 335.344 71.606 335.682 72.2847 336.066C72.6755 336.284 73.0573 336.521 73.43 336.767C73.8683 337.06 74.2149 337.471 74.4298 337.953C74.6447 338.435 74.7192 338.968 74.6446 339.491C74.57 340.013 74.3494 340.504 74.0083 340.906C73.6672 341.309 73.2194 341.607 72.7165 341.765C74.6936 343.326 76.701 344.851 78.7387 346.341C79.0614 346.578 79.3841 346.815 79.7113 347.042C82.3702 348.962 85.0821 350.811 87.847 352.591C91.2194 354.766 94.6645 356.837 98.1824 358.805C98.6642 359.073 99.146 359.342 99.6323 359.605C98.4096 354.571 97.7901 349.408 97.787 344.226C97.7858 341.863 97.9163 339.502 98.1779 337.153ZM100.664 320.901L100.673 320.887C100.673 320.896 100.67 320.904 100.664 320.91V320.901ZM97.0416 353.61L96.9007 353.296C96.9053 353.064 96.9053 352.837 96.9007 352.6C96.9007 352.537 96.8871 352.473 96.8871 352.409C96.9416 352.814 96.9871 353.219 97.0462 353.624L97.0416 353.61ZM117.917 354.229C117.967 354.02 118.008 353.874 118.058 353.665C118.04 353.619 118.022 353.574 118.003 353.533C116.49 349.926 108.5 357.199 105.045 362.462C109.091 364.509 113.216 366.416 117.422 368.184C117.703 367.829 117.994 367.479 118.281 367.124C118.308 367.093 118.331 367.065 118.353 367.033C118.972 366.269 119.594 365.514 120.208 364.75C120.212 364.6 120.212 364.45 120.212 364.304C120.206 362.113 119.938 359.931 119.412 357.804C118.99 357.824 118.572 357.713 118.215 357.487C117.858 357.26 117.579 356.93 117.416 356.54C117.253 356.15 117.213 355.719 117.303 355.305C117.392 354.892 117.607 354.516 117.917 354.229Z" fill="white"/>
<path d="M216.235 259.559C217.326 260.312 218.569 260.817 219.876 261.038C221.184 261.258 222.523 261.189 223.801 260.835C225.079 260.482 226.264 259.852 227.272 258.99C228.28 258.129 229.087 257.056 229.637 255.849L261.722 258.852L253.845 244.063L224.584 243.478C222.496 242.689 220.191 242.694 218.106 243.492C216.021 244.29 214.301 245.825 213.272 247.807C212.243 249.789 211.976 252.081 212.522 254.246C213.068 256.412 214.389 258.303 216.235 259.559Z" fill="#FFB6B6"/>
<path d="M248.769 258.547L293.17 263.529L293.323 263.333C293.616 262.958 322.669 225.74 327.55 216.88C330.553 211.557 331.647 205.366 330.65 199.335L330.616 199.188L330.501 199.09C328.134 197.105 325.162 195.986 322.074 195.918C318.987 195.851 315.968 196.838 313.517 198.717C301.728 207.854 292.223 219.609 285.752 233.052L282.079 240.704L248.769 243.991V258.547Z" fill="#00BFA6"/>
<path d="M212.746 362.64L204.193 382.572C202.965 382.659 201.737 382.728 200.507 382.781C199.534 382.831 198.566 382.868 197.589 382.895L197.257 383L196.984 382.913C195.671 382.954 194.353 382.98 193.03 382.991C192.471 382.995 191.912 383 191.348 383C191.085 383 190.821 383 190.557 382.995L191.126 381.048L191.794 378.742L194.448 369.608L198.279 356.422L203.979 358.869L212.746 362.64Z" fill="#FFB6B6"/>
<path d="M274.382 364.077C269.987 366.202 265.502 368.156 260.929 369.941L256.456 362.412L270.873 356.076L274.382 364.077Z" fill="#FFB6B6"/>
<path d="M304.802 329.862V345.719C302.143 347.684 299.431 349.579 296.666 351.405V329.862H304.802Z" fill="#CACACA"/>
<path d="M333.381 319.818C331.095 322.357 328.741 324.829 326.318 327.237C320.617 332.92 314.563 338.237 308.193 343.158H271.923C270.96 343.158 270.008 342.952 269.131 342.554C268.254 342.157 267.472 341.576 266.837 340.851L266.833 340.838C266.076 339.984 265.551 338.95 265.305 337.836L265.301 337.827C265.198 337.348 265.147 336.86 265.146 336.371V326.605C265.148 324.806 265.862 323.081 267.132 321.809C268.403 320.537 270.126 319.821 271.923 319.818H333.381Z" fill="#3F3D56"/>
<path d="M348.326 281.701L344.394 298.558C344.778 301 344.906 303.476 344.776 305.945C342.912 308.447 340.99 310.899 339.008 313.3C337.181 315.516 335.305 317.688 333.381 319.819C331.095 322.357 328.741 324.83 326.318 327.238C320.01 329.221 312.574 330.031 304.802 330.085C302.12 330.108 299.398 330.035 296.666 329.889C285.59 329.307 274.386 327.529 265.21 325.682C262.783 325.2 260.501 324.709 258.402 324.231C254.425 323.335 251.098 322.498 248.689 321.861C245.975 321.151 244.43 320.692 244.43 320.692L234.108 337.991L224.736 353.693L212.66 369.117C211.506 369.222 210.35 369.31 209.192 369.381C207.965 369.468 206.736 369.537 205.506 369.59C204.533 369.64 203.565 369.677 202.588 369.704L202.256 369.809L201.984 369.722L197.602 368.326L196.125 367.857L190.812 366.165C190.812 366.165 191.998 362.426 194.075 356.19C194.839 353.902 200.247 336.985 205.906 322.216C207.583 317.831 209.319 313.382 211.106 308.956C212.569 305.322 214.06 301.701 215.569 298.131C218.191 291.94 230.863 288.601 245.784 286.85C246.543 286.763 247.307 286.677 248.075 286.595C255.679 285.795 263.746 285.381 271.291 285.19C275.068 285.094 278.713 285.058 282.104 285.053C283.199 285.053 284.264 285.056 285.299 285.062H285.304C288.099 285.076 290.671 285.117 292.935 285.162C293.376 285.171 293.803 285.185 294.221 285.194H294.226C294.507 285.199 294.785 285.208 295.057 285.212C300.007 285.34 303.043 285.494 303.043 285.494L304.22 276.251L304.461 274.386L304.688 272.612V272.608L304.716 272.385L304.902 272.381L308.174 272.317L335.681 271.78L347.397 271.283L348.326 281.701Z" fill="#2F2E41"/>
<path d="M273.682 356.481C272.559 357.054 271.428 357.618 270.291 358.164C265.896 360.288 261.412 362.243 256.838 364.027C255.534 364.541 254.225 365.037 252.902 365.515C252.757 365.31 252.607 365.105 252.457 364.901C246.148 356.235 242.221 350.713 234.108 337.991C230.713 332.669 227.3 327.119 223.986 321.452L247.975 310.244L250.666 308.988L258.401 324.231L265.301 337.827L266.837 340.852L273.682 356.481Z" fill="#2F2E41"/>
<path d="M312.593 172.874C324.799 172.874 334.694 162.971 334.694 150.756C334.694 138.54 324.799 128.638 312.593 128.638C300.387 128.638 290.493 138.54 290.493 150.756C290.493 162.971 300.387 172.874 312.593 172.874Z" fill="#FFB6B6"/>
<path d="M352.043 219.506C351.862 201.239 352.398 206.529 350.953 200.238C347.071 183.326 330.959 180.242 328.15 179.86C327.851 179.063 327.391 178.336 326.799 177.724C326.207 177.113 325.496 176.63 324.709 176.305C323.923 175.98 323.078 175.821 322.227 175.837C321.376 175.853 320.538 176.044 319.764 176.399L314.387 179.189C309.174 181.577 312.338 185.027 310.538 190.472L308.647 196.249L293.153 239.111L296.289 255.418L296.294 255.427L298.407 266.412L304.674 273.557L304.557 272.417L304.416 272.635L304.411 272.64L304.048 273.181C304.552 273.458 305.052 273.731 305.543 274.004C306.816 274.705 308.056 275.391 309.265 276.065C309.556 276.228 309.843 276.388 310.129 276.551H310.133C310.315 276.651 310.497 276.752 310.674 276.852C315.21 279.39 298.421 284.011 302.152 286.181C302.67 286.481 303.184 286.781 303.689 287.077C320.869 297.134 334.577 309.661 339.008 313.3C340.99 310.898 342.912 308.447 344.776 305.945C346.467 303.684 348.104 301.384 349.689 299.045C349.966 297.216 350.153 295.387 350.335 293.595C350.553 291.439 349.416 271.466 349.798 269.269C349.966 268.296 349.321 267.372 348.698 266.481C348.121 265.648 347.576 264.866 347.689 264.129C347.807 263.369 348.644 262.541 349.457 261.736C350.344 260.854 351.262 259.944 351.394 258.984C351.757 256.31 350.262 253.626 350.544 250.933C351.007 246.553 351.363 242.159 351.612 237.751C351.962 231.665 352.106 225.583 352.043 219.506Z" fill="#00BFA6"/>
<path d="M227.388 264.307C228.301 263.345 229.413 262.594 230.647 262.108C231.881 261.622 233.206 261.413 234.529 261.495C235.852 261.578 237.141 261.949 238.305 262.584C239.469 263.219 240.48 264.101 241.267 265.169L272.042 255.603L267.385 271.701L238.874 278.317C236.994 279.521 234.738 279.992 232.533 279.642C230.329 279.292 228.329 278.145 226.913 276.418C225.498 274.691 224.764 272.504 224.852 270.272C224.939 268.04 225.842 265.918 227.388 264.307Z" fill="#FFB6B6"/>
<path d="M264.699 273.212L321.822 261.426L306.997 265.101C307.165 264.656 323.827 220.468 325.851 210.556C327.134 204.579 326.337 198.343 323.59 192.883L323.515 192.752L323.375 192.693C320.525 191.503 317.355 191.321 314.387 192.176C311.419 193.032 308.832 194.874 307.05 197.399C298.515 209.634 292.938 223.688 290.76 238.45L289.531 246.848L269.391 252.878L264.699 273.212Z" fill="#00BFA6"/>
<path d="M158.242 255.213C158.442 255.796 158.822 256.301 159.327 256.655C159.832 257.009 160.436 257.194 161.052 257.183L173.093 256.873C173.714 256.86 174.314 256.648 174.804 256.266C175.294 255.884 175.647 255.354 175.811 254.754L177.515 236.52C178.12 236.794 178.778 236.929 179.441 236.916C180.606 236.887 181.71 236.396 182.513 235.551C183.316 234.707 183.75 233.578 183.721 232.412C183.692 231.247 183.201 230.141 182.357 229.338C181.513 228.535 180.385 228.1 179.221 228.129C178.956 228.129 178.691 228.156 178.432 228.212C178.15 227.906 177.807 227.663 177.425 227.499C177.044 227.334 176.632 227.251 176.217 227.255L157.695 227.734C157.542 227.739 157.389 227.758 157.238 227.79C156.832 227.866 156.447 228.028 156.109 228.265C155.77 228.503 155.486 228.81 155.277 229.166C155.067 229.522 154.936 229.919 154.892 230.33C154.848 230.742 154.893 231.157 155.023 231.55L158.242 255.213ZM177.865 235.282L179.077 230.937C179.215 230.435 179.218 229.905 179.086 229.402C179.145 229.401 179.197 229.374 179.256 229.373C180.087 229.356 180.891 229.67 181.492 230.245C182.093 230.82 182.441 231.611 182.461 232.442C182.48 233.274 182.169 234.08 181.596 234.683C181.023 235.286 180.234 235.637 179.403 235.658C178.865 235.675 178.334 235.545 177.865 235.282Z" fill="#2F2E41"/>
<path d="M157.238 227.791C157.633 230.049 162.069 231.636 167.404 231.36C172.309 231.134 176.32 229.41 177.055 227.367C176.783 227.287 176.5 227.249 176.216 227.256L157.695 227.734C157.542 227.74 157.389 227.759 157.238 227.791Z" fill="#3F3D56"/>
<path d="M76.6946 211.284V250.268C76.695 250.764 76.8924 251.241 77.2434 251.592C77.5944 251.943 78.0704 252.141 78.5668 252.141H136.291C136.788 252.141 137.263 251.943 137.614 251.592C137.965 251.241 138.163 250.764 138.163 250.268V211.284C138.162 210.787 137.964 210.312 137.613 209.961C137.263 209.61 136.787 209.413 136.291 209.412H78.5668C78.0708 209.413 77.5953 209.61 77.2444 209.961C76.8935 210.312 76.6958 210.787 76.6946 211.284Z" fill="#3F3D56"/>
<path d="M78.0488 211.769V249.787C78.0493 250.053 78.1549 250.307 78.3424 250.495C78.5299 250.682 78.7842 250.788 79.0494 250.788H135.811C136.076 250.788 136.33 250.682 136.518 250.495C136.705 250.307 136.811 250.053 136.811 249.787V211.769C136.811 211.503 136.706 211.248 136.518 211.06C136.331 210.872 136.076 210.766 135.811 210.766H79.0494C78.7838 210.766 78.5294 210.872 78.3418 211.06C78.1542 211.248 78.0489 211.503 78.0488 211.769Z" fill="#00BFA6"/>
<path d="M75.4874 257.871C75.5932 258.004 75.7276 258.111 75.8806 258.184C76.0336 258.257 76.2011 258.295 76.3707 258.294H138.18C138.349 258.294 138.516 258.256 138.668 258.183C138.821 258.11 138.955 258.004 139.062 257.873C139.168 257.741 139.244 257.588 139.284 257.423C139.324 257.259 139.326 257.088 139.292 256.922L138.332 252.361C138.292 252.175 138.207 252.002 138.083 251.858C137.959 251.713 137.802 251.602 137.624 251.534C137.495 251.484 137.359 251.458 137.22 251.458H77.3264C77.1883 251.458 77.0514 251.484 76.9228 251.534C76.7452 251.602 76.5874 251.713 76.4637 251.858C76.34 252.002 76.2544 252.175 76.2146 252.361L75.2552 256.922C75.221 257.088 75.2242 257.259 75.2643 257.423C75.3045 257.587 75.3807 257.74 75.4874 257.871Z" fill="#2F2E41"/>
<path d="M135.1 253.422H136.56C136.682 253.422 136.781 253.322 136.781 253.2V252.501C136.781 252.378 136.682 252.279 136.56 252.279H135.1C134.977 252.279 134.878 252.378 134.878 252.501V253.2C134.878 253.322 134.977 253.422 135.1 253.422Z" fill="#3F3D56"/>
<path d="M131.292 253.422H132.752C132.875 253.422 132.974 253.322 132.974 253.2V252.501C132.974 252.378 132.875 252.279 132.752 252.279H131.292C131.17 252.279 131.07 252.378 131.07 252.501V253.2C131.07 253.322 131.17 253.422 131.292 253.422Z" fill="#3F3D56"/>
<path d="M127.485 253.422H128.945C129.067 253.422 129.167 253.322 129.167 253.2V252.501C129.167 252.378 129.067 252.279 128.945 252.279H127.485C127.362 252.279 127.263 252.378 127.263 252.501V253.2C127.263 253.322 127.362 253.422 127.485 253.422Z" fill="#3F3D56"/>
<path d="M123.677 253.422H125.137C125.26 253.422 125.359 253.322 125.359 253.2V252.501C125.359 252.378 125.26 252.279 125.137 252.279H123.677C123.555 252.279 123.456 252.378 123.456 252.501V253.2C123.456 253.322 123.555 253.422 123.677 253.422Z" fill="#3F3D56"/>
<path d="M119.87 253.422H121.33C121.453 253.422 121.552 253.322 121.552 253.2V252.501C121.552 252.378 121.453 252.279 121.33 252.279H119.87C119.748 252.279 119.648 252.378 119.648 252.501V253.2C119.648 253.322 119.748 253.422 119.87 253.422Z" fill="#3F3D56"/>
<path d="M116.063 253.422H117.523C117.645 253.422 117.744 253.322 117.744 253.2V252.501C117.744 252.378 117.645 252.279 117.523 252.279H116.063C115.94 252.279 115.841 252.378 115.841 252.501V253.2C115.841 253.322 115.94 253.422 116.063 253.422Z" fill="#3F3D56"/>
<path d="M112.255 253.422H113.715C113.838 253.422 113.937 253.322 113.937 253.2V252.501C113.937 252.378 113.838 252.279 113.715 252.279H112.255C112.133 252.279 112.033 252.378 112.033 252.501V253.2C112.033 253.322 112.133 253.422 112.255 253.422Z" fill="#3F3D56"/>
<path d="M108.448 253.422H109.908C110.03 253.422 110.13 253.322 110.13 253.2V252.501C110.13 252.378 110.03 252.279 109.908 252.279H108.448C108.325 252.279 108.226 252.378 108.226 252.501V253.2C108.226 253.322 108.325 253.422 108.448 253.422Z" fill="#3F3D56"/>
<path d="M104.64 253.422H106.1C106.223 253.422 106.322 253.322 106.322 253.2V252.501C106.322 252.378 106.223 252.279 106.1 252.279H104.64C104.518 252.279 104.419 252.378 104.419 252.501V253.2C104.419 253.322 104.518 253.422 104.64 253.422Z" fill="#3F3D56"/>
<path d="M100.833 253.422H102.293C102.416 253.422 102.515 253.322 102.515 253.2V252.501C102.515 252.378 102.416 252.279 102.293 252.279H100.833C100.711 252.279 100.611 252.378 100.611 252.501V253.2C100.611 253.322 100.711 253.422 100.833 253.422Z" fill="#3F3D56"/>
<path d="M97.0257 253.422H98.4856C98.6082 253.422 98.7075 253.322 98.7075 253.2V252.501C98.7075 252.378 98.6082 252.279 98.4856 252.279H97.0257C96.9032 252.279 96.8038 252.378 96.8038 252.501V253.2C96.8038 253.322 96.9032 253.422 97.0257 253.422Z" fill="#3F3D56"/>
<path d="M93.2183 253.422H94.6783C94.8008 253.422 94.9001 253.322 94.9001 253.2V252.501C94.9001 252.378 94.8008 252.279 94.6783 252.279H93.2183C93.0958 252.279 92.9965 252.378 92.9965 252.501V253.2C92.9965 253.322 93.0958 253.422 93.2183 253.422Z" fill="#3F3D56"/>
<path d="M89.4109 253.422H90.8708C90.9934 253.422 91.0927 253.322 91.0927 253.2V252.501C91.0927 252.378 90.9934 252.279 90.8708 252.279H89.4109C89.2884 252.279 89.189 252.378 89.189 252.501V253.2C89.189 253.322 89.2884 253.422 89.4109 253.422Z" fill="#3F3D56"/>
<path d="M85.6035 253.422H87.0635C87.186 253.422 87.2853 253.322 87.2853 253.2V252.501C87.2853 252.378 87.186 252.279 87.0635 252.279H85.6035C85.481 252.279 85.3817 252.378 85.3817 252.501V253.2C85.3817 253.322 85.481 253.422 85.6035 253.422Z" fill="#3F3D56"/>
<path d="M81.7962 253.422H83.2561C83.3786 253.422 83.478 253.322 83.478 253.2V252.501C83.478 252.378 83.3786 252.279 83.2561 252.279H81.7962C81.6736 252.279 81.5743 252.378 81.5743 252.501V253.2C81.5743 253.322 81.6736 253.422 81.7962 253.422Z" fill="#3F3D56"/>
<path d="M77.9887 253.422H79.4486C79.5712 253.422 79.6705 253.322 79.6705 253.2V252.501C79.6705 252.378 79.5712 252.279 79.4486 252.279H77.9887C77.8662 252.279 77.7668 252.378 77.7668 252.501V253.2C77.7668 253.322 77.8662 253.422 77.9887 253.422Z" fill="#3F3D56"/>
<path d="M135.145 255.327H136.605C136.727 255.327 136.826 255.228 136.826 255.105V254.406C136.826 254.283 136.727 254.184 136.605 254.184H135.145C135.022 254.184 134.923 254.283 134.923 254.406V255.105C134.923 255.228 135.022 255.327 135.145 255.327Z" fill="#3F3D56"/>
<path d="M131.337 255.327H132.797C132.92 255.327 133.019 255.228 133.019 255.105V254.406C133.019 254.283 132.92 254.184 132.797 254.184H131.337C131.215 254.184 131.115 254.283 131.115 254.406V255.105C131.115 255.228 131.215 255.327 131.337 255.327Z" fill="#3F3D56"/>
<path d="M127.53 255.327H128.99C129.112 255.327 129.212 255.228 129.212 255.105V254.406C129.212 254.283 129.112 254.184 128.99 254.184H127.53C127.407 254.184 127.308 254.283 127.308 254.406V255.105C127.308 255.228 127.407 255.327 127.53 255.327Z" fill="#3F3D56"/>
<path d="M123.722 255.327H125.182C125.305 255.327 125.404 255.228 125.404 255.105V254.406C125.404 254.283 125.305 254.184 125.182 254.184H123.722C123.6 254.184 123.501 254.283 123.501 254.406V255.105C123.501 255.228 123.6 255.327 123.722 255.327Z" fill="#3F3D56"/>
<path d="M119.915 255.327H121.375C121.498 255.327 121.597 255.228 121.597 255.105V254.406C121.597 254.283 121.498 254.184 121.375 254.184H119.915C119.793 254.184 119.693 254.283 119.693 254.406V255.105C119.693 255.228 119.793 255.327 119.915 255.327Z" fill="#3F3D56"/>
<path d="M116.108 255.327H117.568C117.69 255.327 117.789 255.228 117.789 255.105V254.406C117.789 254.283 117.69 254.184 117.568 254.184H116.108C115.985 254.184 115.886 254.283 115.886 254.406V255.105C115.886 255.228 115.985 255.327 116.108 255.327Z" fill="#3F3D56"/>
<path d="M112.3 255.327H113.76C113.883 255.327 113.982 255.228 113.982 255.105V254.406C113.982 254.283 113.883 254.184 113.76 254.184H112.3C112.178 254.184 112.078 254.283 112.078 254.406V255.105C112.078 255.228 112.178 255.327 112.3 255.327Z" fill="#3F3D56"/>
<path d="M108.493 255.327H109.953C110.075 255.327 110.175 255.228 110.175 255.105V254.406C110.175 254.283 110.075 254.184 109.953 254.184H108.493C108.37 254.184 108.271 254.283 108.271 254.406V255.105C108.271 255.228 108.37 255.327 108.493 255.327Z" fill="#3F3D56"/>
<path d="M104.686 255.327H106.145C106.268 255.327 106.367 255.228 106.367 255.105V254.406C106.367 254.283 106.268 254.184 106.145 254.184H104.686C104.563 254.184 104.464 254.283 104.464 254.406V255.105C104.464 255.228 104.563 255.327 104.686 255.327Z" fill="#3F3D56"/>
<path d="M100.878 255.327H102.338C102.461 255.327 102.56 255.228 102.56 255.105V254.406C102.56 254.283 102.461 254.184 102.338 254.184H100.878C100.756 254.184 100.656 254.283 100.656 254.406V255.105C100.656 255.228 100.756 255.327 100.878 255.327Z" fill="#3F3D56"/>
<path d="M97.0707 255.327H98.5306C98.6532 255.327 98.7525 255.228 98.7525 255.105V254.406C98.7525 254.283 98.6532 254.184 98.5306 254.184H97.0707C96.9481 254.184 96.8488 254.283 96.8488 254.406V255.105C96.8488 255.228 96.9481 255.327 97.0707 255.327Z" fill="#3F3D56"/>
<path d="M93.2633 255.327H94.7232C94.8458 255.327 94.9451 255.228 94.9451 255.105V254.406C94.9451 254.283 94.8458 254.184 94.7232 254.184H93.2633C93.1408 254.184 93.0414 254.283 93.0414 254.406V255.105C93.0414 255.228 93.1408 255.327 93.2633 255.327Z" fill="#3F3D56"/>
<path d="M89.4559 255.327H90.9158C91.0384 255.327 91.1377 255.228 91.1377 255.105V254.406C91.1377 254.283 91.0384 254.184 90.9158 254.184H89.4559C89.3333 254.184 89.234 254.283 89.234 254.406V255.105C89.234 255.228 89.3333 255.327 89.4559 255.327Z" fill="#3F3D56"/>
<path d="M85.6485 255.327H87.1084C87.231 255.327 87.3303 255.228 87.3303 255.105V254.406C87.3303 254.283 87.231 254.184 87.1084 254.184H85.6485C85.526 254.184 85.4266 254.283 85.4266 254.406V255.105C85.4266 255.228 85.526 255.327 85.6485 255.327Z" fill="#3F3D56"/>
<path d="M81.8411 255.327H83.3011C83.4236 255.327 83.5229 255.228 83.5229 255.105V254.406C83.5229 254.283 83.4236 254.184 83.3011 254.184H81.8411C81.7186 254.184 81.6192 254.283 81.6192 254.406V255.105C81.6192 255.228 81.7186 255.327 81.8411 255.327Z" fill="#3F3D56"/>
<path d="M78.0338 255.327H79.4937C79.6162 255.327 79.7156 255.228 79.7156 255.105V254.406C79.7156 254.283 79.6162 254.184 79.4937 254.184H78.0338C77.9112 254.184 77.8119 254.283 77.8119 254.406V255.105C77.8119 255.228 77.9112 255.327 78.0338 255.327Z" fill="#3F3D56"/>
<path d="M103.543 257.613H118.329C118.452 257.613 118.551 257.514 118.551 257.391V256.692C118.551 256.57 118.452 256.47 118.329 256.47H103.543C103.421 256.47 103.321 256.57 103.321 256.692V257.391C103.321 257.514 103.421 257.613 103.543 257.613Z" fill="#3F3D56"/>
<path d="M214.963 255.751L240.797 233.147C242.026 232.072 239.683 235.274 240.757 236.504C241.831 237.733 245.915 236.524 244.686 237.599L218.852 260.203L212.31 261.698L214.963 255.751Z" fill="#3F3D56"/>
<path d="M214.963 255.751L215.589 255.203C216.425 255.622 217.171 256.201 217.785 256.907C218.511 257.737 219.039 258.722 219.328 259.787L218.852 260.203L213.638 261.394L212.31 261.698L212.864 260.452L214.963 255.751Z" fill="#CCCCCC"/>
<path d="M212.864 260.451C213.057 260.537 213.228 260.666 213.363 260.83C213.497 260.993 213.591 261.186 213.638 261.393L212.31 261.697L212.864 260.451Z" fill="#3F3D56"/>
<path d="M383.521 183.303C381.085 186.951 377.186 189.475 372.986 190.726C371.28 191.234 369.519 191.533 367.741 191.618C367.521 189.606 366.996 187.639 366.182 185.786C366.265 187.758 365.991 189.729 365.373 191.604C362.703 191.452 360.093 190.752 357.705 189.548C353.047 187.16 349.461 182.593 348.665 177.412C347.729 171.362 350.47 165.422 351.461 159.381C352.456 153.34 350.588 145.689 344.679 144.102C340.18 142.892 340.684 143.415 336.944 146.194C340.835 151.952 326.463 173.052 320.581 171.212C317.256 170.172 315.127 167.118 314.441 167.118C309.819 175.088 318.522 188.515 309.751 191.304L310.473 190.58C315.768 184.062 304.701 170.266 309.996 163.748C311.473 161.924 313.046 159.763 312.609 157.457C312.196 155.264 308.719 154.105 307.701 155.906C309.532 151.707 306.828 146.103 302.351 145.025C298.374 144.066 298.447 145.248 294.456 145.762C294.196 144.036 293.708 142.352 293.007 140.754C293.08 142.476 292.879 144.199 292.411 145.858C291.001 145.83 289.64 145.338 288.539 144.457C285.284 141.832 285.943 136.319 288.848 133.312C291.757 130.306 296.079 129.223 300.201 128.523C301.4 120.171 324.424 119.3 327.476 127.645C328.776 121.413 336.571 118.179 342.63 120.112C348.688 122.045 352.892 127.709 355.106 133.676C357.319 139.64 357.937 146.058 359.301 152.271C360.664 158.485 362.969 164.812 367.714 169.047C372.459 173.277 380.19 174.678 385.189 170.748C386.767 174.842 385.953 179.65 383.521 183.303Z" fill="#2F2E41"/>
</g>
<defs>
<clipPath id="clip0_150_656">
<rect width="386" height="383" fill="white"/>
</clipPath>
</defs>
</svg>
