<svg width="343" height="317" viewBox="0 0 343 317" fill="none" xmlns="http://www.w3.org/2000/svg">
<g clip-path="url(#clip0_150_532)">
<path d="M312.489 253.968L284.646 212.606C284.646 212.606 326.813 227.328 322.027 253.968H312.489Z" fill="#E5E5E5"/>
<path d="M23.8685 254.242L22.8115 254.221C23.2203 242.468 24.4743 230.759 26.5637 219.186C31.1345 194.407 38.7348 178.133 49.1537 170.817L49.7607 171.682C25.422 188.772 23.8809 253.589 23.8685 254.242Z" fill="#E5E5E5"/>
<path d="M37.0812 253.989L36.0242 253.968C36.0469 252.797 36.7075 225.208 47.5682 217.582L48.1751 218.447C37.7526 225.765 37.0863 253.707 37.0812 253.989Z" fill="#E5E5E5"/>
<path d="M55.774 171.778C58.6928 171.778 61.059 169.412 61.059 166.492C61.059 163.573 58.6928 161.207 55.774 161.207C52.8551 161.207 50.4889 163.573 50.4889 166.492C50.4889 169.412 52.8551 171.778 55.774 171.778Z" fill="#00BFA6"/>
<path d="M53.1568 217.233C56.0756 217.233 58.4418 214.867 58.4418 211.948C58.4418 209.028 56.0756 206.662 53.1568 206.662C50.2379 206.662 47.8717 209.028 47.8717 211.948C47.8717 214.867 50.2379 217.233 53.1568 217.233Z" fill="#00BFA6"/>
<path d="M34.6177 174.947C35.611 181.292 33.0222 186.966 33.0222 186.966C33.0222 186.966 28.8231 182.354 27.8298 176.01C26.8366 169.665 29.4253 163.99 29.4253 163.99C29.4253 163.99 33.6245 168.602 34.6177 174.947Z" fill="#E5E5E5"/>
<path d="M51.893 190.356C45.8189 192.44 39.7803 190.879 39.7803 190.879C39.7803 190.879 43.5898 185.94 49.6638 183.857C55.7379 181.773 61.7765 183.334 61.7765 183.334C61.7765 183.334 57.9671 188.272 51.893 190.356Z" fill="#E5E5E5"/>
<path d="M52.0882 230.61C49.3391 231.474 46.4114 231.6 43.5981 230.977C45.3844 228.702 47.7902 226.993 50.5257 226.054C53.2612 225.116 56.2096 224.989 59.0157 225.688C57.1773 227.907 54.7885 229.604 52.0882 230.61Z" fill="#E5E5E5"/>
<path d="M342.471 255.024H0.528505C0.388337 255.024 0.253917 254.968 0.154803 254.869C0.0556893 254.77 0 254.636 0 254.495C0 254.355 0.0556893 254.221 0.154803 254.122C0.253917 254.022 0.388337 253.967 0.528505 253.967H342.471C342.612 253.967 342.746 254.022 342.845 254.122C342.944 254.221 343 254.355 343 254.495C343 254.636 342.944 254.77 342.845 254.869C342.746 254.968 342.612 255.024 342.471 255.024Z" fill="#CBCBCB"/>
<path d="M216.577 279.39L212.254 290.645L166.789 279.322L173.171 262.711L216.577 279.39Z" fill="#FFB7B7"/>
<path d="M228.589 280.711L214.647 317L214.188 316.824C210.442 315.384 207.422 312.516 205.791 308.849C204.16 305.183 204.052 301.019 205.49 297.272L205.491 297.271L214.006 275.107L228.589 280.711Z" fill="#2F2E41"/>
<path d="M147.493 138.475L127.68 140.33L126.697 199.285C126.96 202.174 128.343 204.846 130.551 206.728C132.759 208.609 135.617 209.551 138.511 209.352L151.072 208.486L147.493 138.475Z" fill="#E5E5E5"/>
<path d="M217.341 135.573L203.785 135.398L202.982 205.45C205.977 205.55 208.961 205.031 211.748 203.927C214.534 202.822 217.063 201.155 219.177 199.03C221.291 196.905 222.944 194.367 224.034 191.574C225.123 188.782 225.626 185.795 225.51 182.799L217.341 135.573Z" fill="#E5E5E5"/>
<path d="M138.68 230.336C138.359 232.367 137.893 234.374 137.286 236.339C136.602 238.263 135.545 240.042 134.92 241.986C132.926 248.181 135.69 255.088 140.105 259.87C143.933 264.001 148.874 266.935 154.333 268.32C158.315 269.321 162.456 269.465 166.56 269.605C177.924 269.99 189.581 270.335 200.349 266.682C203.751 265.5 207.037 264.007 210.166 262.222C211.154 261.752 212.024 261.066 212.713 260.216C213.534 259.047 213.639 257.531 213.632 256.102C213.608 251.284 212.631 246.49 212.863 241.678C212.992 239.012 213.491 236.349 213.245 233.691C212.905 230.673 211.641 227.834 209.625 225.562C207.61 223.29 204.942 221.697 201.986 221C198.931 220.344 195.763 220.701 192.653 221C184.58 221.776 176.473 222.138 168.363 222.086C160.077 222.033 151.842 220.768 143.597 220.636C141.158 220.597 141.208 221.349 140.431 223.709C139.716 225.881 139.132 228.094 138.68 230.336Z" fill="#2F2E41"/>
<path d="M106.278 226.42C104.05 225.86 101.754 225.616 99.458 225.695C97.0455 225.829 94.689 226.474 92.5452 227.589C90.4015 228.703 88.5196 230.262 87.0246 232.16C85.5297 234.058 84.456 236.253 83.8749 238.599C83.2939 240.944 83.2187 243.387 83.6546 245.763C84.211 248.338 85.1204 250.823 86.3571 253.149C88.1658 256.82 90.3351 260.482 93.6836 262.835C95.6423 264.211 97.9093 265.069 100.149 265.913L117.785 272.557C120.379 273.534 122.974 274.512 125.594 275.418C138.757 279.968 152.48 282.697 166.383 283.527C170.617 283.78 174.916 283.85 179.047 282.886C180.027 282.657 181.073 282.316 181.641 281.484C181.977 280.899 182.175 280.244 182.22 279.57L183.306 271.972C183.458 270.903 183.605 269.777 183.213 268.77C182.716 267.493 181.47 266.69 180.282 266.007C168.688 259.347 155.15 255.673 145.391 246.533C143.094 244.382 141.171 240.971 138.38 239.509C135.215 237.852 131.487 236.906 128.215 235.378C121.063 232.039 114.03 228.202 106.278 226.42Z" fill="#2F2E41"/>
<path opacity="0.1" d="M123.885 236.663C130.118 238.616 156.436 252.149 160.947 256.874C160.342 257.092 139.827 245.595 139.211 245.41C133.616 243.73 127.989 242.04 122.675 239.582C121.606 239.087 115.73 236.763 115.996 235.415C116.297 233.892 122.778 236.316 123.885 236.663Z" fill="black"/>
<path d="M161.504 118.659L144.721 131.403C144.721 131.403 127.012 131.957 127.61 143.279C128.208 154.6 135.296 208.204 135.296 208.204L136.834 226.648L166.004 234.96C181.764 239.451 198.416 239.808 214.355 235.996L210.888 217.493C210.888 217.493 224.925 133.458 216.469 129.759C208.013 126.059 202.728 127.116 202.728 127.116L192.128 117.866L161.504 118.659Z" fill="#E5E5E5"/>
<path d="M211.184 98.0747C211.184 114.619 195.887 112.116 177.018 112.116C158.149 112.116 142.853 114.619 142.853 98.0747C142.853 81.5306 150.324 52.2051 177.018 52.2051C204.631 52.2051 211.184 81.5306 211.184 98.0747Z" fill="#2F2E41"/>
<path d="M194.778 103.682C203.756 94.7027 203.756 80.145 194.778 71.1661C185.8 62.1871 171.243 62.1871 162.265 71.1661C153.287 80.145 153.287 94.7027 162.265 103.682C171.243 112.66 185.8 112.66 194.778 103.682Z" fill="#FFB7B7"/>
<path d="M150.341 86.8409H159.434L163.445 75.6075L164.248 86.8409H168.594L170.934 80.2881L171.402 86.8409H203.695C203.695 80.3858 201.131 74.1951 196.567 69.6307C192.003 65.0662 185.813 62.502 179.358 62.502H174.678C168.223 62.502 162.033 65.0662 157.469 69.6307C152.905 74.1951 150.341 80.3858 150.341 86.8409Z" fill="#2F2E41"/>
<path d="M200.085 121.302H154.105V176.799H200.085V121.302Z" fill="#00BFA6"/>
<path d="M156.639 278.862L160.963 290.116L206.427 278.793L200.046 262.183L156.639 278.862Z" fill="#FFB7B7"/>
<path d="M159.211 274.579L167.726 296.743L167.726 296.744C169.165 300.49 169.057 304.655 167.426 308.321C165.795 311.988 162.774 314.856 159.028 316.295L158.569 316.472L144.628 280.183L159.211 274.579Z" fill="#2F2E41"/>
<path d="M247.517 222.112C251.17 221.196 254.956 220.937 258.699 221.347C261.688 221.677 264.768 222.509 266.951 224.578C269.607 227.096 270.461 230.991 270.532 234.651C270.649 241.941 268.231 249.045 263.692 254.75C262.584 256.193 261.265 257.462 259.781 258.515C258.181 259.516 256.474 260.339 254.694 260.967L215.2 276.546C204.81 280.644 194.383 284.755 183.546 287.456C182.956 287.741 182.278 287.78 181.661 287.564C181.043 287.349 180.536 286.896 180.251 286.307C180.243 286.289 180.234 286.271 180.226 286.253C176.766 281.31 173.863 275.999 171.57 270.418C171.461 270.285 171.386 270.128 171.351 269.96C171.316 269.792 171.322 269.619 171.368 269.454C171.415 269.289 171.5 269.137 171.617 269.012C171.734 268.887 171.88 268.792 172.042 268.735L199.976 252.684C201.977 251.534 204 250.368 205.662 248.766C206.869 247.596 207.858 246.219 208.581 244.702C209.16 243.492 209.214 240.638 209.953 239.744C210.678 238.868 213.155 238.799 214.299 238.454C215.913 237.96 217.493 237.363 219.03 236.666C225.278 233.87 230.843 229.808 236.833 226.535C240.193 224.614 243.783 223.127 247.517 222.112Z" fill="#2F2E41"/>
<path opacity="0.1" d="M231.681 234.099C226.882 237.704 220.668 241.018 215.911 244.718C214.288 245.98 187.226 261.196 186.843 263.217C191.281 263.964 219.549 244.187 223.593 242.214C227.638 240.24 231.223 237.458 234.776 234.695C235.681 233.991 239.518 231.875 236.919 231.088C235.455 230.645 232.762 233.379 231.681 234.099Z" fill="black"/>
<path d="M317.942 94.9879C327.063 94.9879 334.456 87.5935 334.456 78.472C334.456 69.3505 327.063 61.9561 317.942 61.9561C308.821 61.9561 301.427 69.3505 301.427 78.472C301.427 87.5935 308.821 94.9879 317.942 94.9879Z" fill="#F1F1F1"/>
<path d="M287.377 97.946C293.776 97.946 298.962 92.7589 298.962 86.3602C298.962 79.9616 293.776 74.7744 287.377 74.7744C280.979 74.7744 275.792 79.9616 275.792 86.3602C275.792 92.7589 280.979 97.946 287.377 97.946Z" fill="#F1F1F1"/>
<path d="M75.1605 90.3881C80.2907 90.3881 84.4495 86.2289 84.4495 81.0983C84.4495 75.9677 80.2907 71.8086 75.1605 71.8086C70.0303 71.8086 65.8715 75.9677 65.8715 81.0983C65.8715 86.2289 70.0303 90.3881 75.1605 90.3881Z" fill="#F1F1F1"/>
<path d="M90.4539 96.6349C94.0527 96.6349 96.9701 93.7173 96.9701 90.1182C96.9701 86.5192 94.0527 83.6016 90.4539 83.6016C86.8551 83.6016 83.9377 86.5192 83.9377 90.1182C83.9377 93.7173 86.8551 96.6349 90.4539 96.6349Z" fill="#F1F1F1"/>
<path d="M180.566 14.2023C184.487 14.2023 187.666 11.023 187.666 7.10115C187.666 3.17929 184.487 0 180.566 0C176.644 0 173.465 3.17929 173.465 7.10115C173.465 11.023 176.644 14.2023 180.566 14.2023Z" fill="#F1F1F1"/>
<path opacity="0.17" d="M138.25 156.715L138.885 151.815C138.885 151.815 162.561 153.544 158.862 159.358C155.162 165.172 146.178 165.7 146.178 165.7L138.25 156.715Z" fill="#2F2E41"/>
<path d="M156.122 135.41C157.478 135.559 158.784 136.007 159.947 136.721C161.11 137.435 162.1 138.398 162.847 139.54C163.527 140.582 163.99 141.751 164.207 142.976C164.425 144.202 164.392 145.459 164.112 146.671C163.831 147.884 163.309 149.027 162.575 150.033C161.842 151.038 160.912 151.885 159.843 152.522C159.452 152.754 159.042 152.955 158.62 153.124L144.067 197.642C143.645 198.521 143.054 199.307 142.327 199.956C141.601 200.605 140.753 201.104 139.833 201.425C138.913 201.745 137.938 201.881 136.966 201.823C135.993 201.766 135.041 201.517 134.165 201.09C133.289 200.664 132.506 200.068 131.861 199.338C131.216 198.608 130.721 197.757 130.406 196.835C130.091 195.913 129.961 194.938 130.023 193.966C130.086 192.993 130.34 192.043 130.772 191.169L146.248 147.145C145.827 145.689 145.771 144.151 146.085 142.667C146.4 141.184 147.075 139.801 148.051 138.64C149.027 137.48 150.274 136.578 151.682 136.015C153.09 135.452 154.615 135.244 156.122 135.41Z" fill="#FFB7B7"/>
<path d="M138.467 152.232C138.467 152.232 146.806 166.481 158.862 159.357L147.178 204.072H137.334L127.151 202.17L130.003 183.695L138.467 152.232Z" fill="#E5E5E5"/>
<path d="M198.008 161.971L191.1 152.487C191.1 152.487 194.421 142.649 207.294 146.246C207.294 146.246 215.487 164.585 198.008 161.971Z" fill="#E5E5E5"/>
<path opacity="0.17" d="M198.008 161.971L191.1 152.487C191.1 152.487 194.421 142.649 207.294 146.246C207.294 146.246 215.487 164.585 198.008 161.971Z" fill="#2F2E41"/>
<path d="M199.838 128.834C201.83 129.76 203.425 131.371 204.33 133.374C205.235 135.377 205.392 137.638 204.771 139.746L220.247 183.77C220.679 184.644 220.933 185.594 220.996 186.567C221.059 187.539 220.929 188.515 220.613 189.437C220.298 190.359 219.804 191.209 219.158 191.939C218.513 192.67 217.73 193.265 216.854 193.692C215.978 194.118 215.026 194.367 214.054 194.425C213.081 194.482 212.106 194.347 211.186 194.026C210.266 193.706 209.418 193.207 208.692 192.557C207.965 191.908 207.374 191.122 206.952 190.243L192.399 145.725C191.977 145.556 191.568 145.355 191.176 145.123C190.107 144.486 189.178 143.639 188.444 142.634C187.711 141.628 187.188 140.485 186.907 139.272C186.627 138.06 186.594 136.803 186.812 135.577C187.029 134.352 187.492 133.183 188.172 132.141C188.919 130.999 189.909 130.036 191.072 129.322C192.235 128.608 193.541 128.161 194.897 128.011C196.588 127.82 198.3 128.104 199.838 128.834Z" fill="#FFB7B7"/>
<path d="M191.1 152.486C191.1 152.486 202.498 159.403 207.294 146.246L223.355 188.537L218.583 196.884L217.893 196.942C215.046 197.179 212.184 196.722 209.552 195.609C206.921 194.496 204.599 192.762 202.786 190.554C199.088 186.05 196.57 180.696 195.461 174.975L191.1 152.486Z" fill="#E5E5E5"/>
</g>
<defs>
<clipPath id="clip0_150_532">
<rect width="343" height="317" fill="white"/>
</clipPath>
</defs>
</svg>
