<svg width="410" height="428" viewBox="0 0 410 428" fill="none" xmlns="http://www.w3.org/2000/svg">
<g clip-path="url(#clip0_150_874)">
<path d="M388.544 398.823C388.544 414.937 301.567 428 194.272 428C86.9776 428 0 414.937 0 398.823C0 387.416 43.5984 377.534 107.138 372.74C133.34 370.757 162.944 369.646 194.272 369.646C207.151 369.646 219.734 369.835 231.905 370.192C321.188 372.828 388.544 384.643 388.544 398.823Z" fill="#3F3D56"/>
<path opacity="0.1" d="M169.205 404.784C210.392 404.784 243.78 400.711 243.78 395.686C243.78 390.661 210.392 386.588 169.205 386.588C128.018 386.588 94.6294 390.661 94.6294 395.686C94.6294 400.711 128.018 404.784 169.205 404.784Z" fill="black"/>
<path d="M168.892 402.274C207.829 402.274 239.394 368.563 239.394 326.979C239.394 285.394 207.829 251.684 168.892 251.684C129.954 251.684 98.3895 285.394 98.3895 326.979C98.3895 368.563 129.954 402.274 168.892 402.274Z" fill="#3F3D56"/>
<path d="M191.139 371.528H147.271V411.686H191.139V371.528Z" fill="#00BFA6"/>
<path d="M248.48 381.255L245.974 395.059L262.268 397.569L272.921 391.294L272.295 381.255H248.48Z" fill="#575A89"/>
<path d="M166.385 122.112C166.385 122.112 165.131 136.544 161.998 137.171C158.865 137.799 168.892 162.897 168.892 162.897H183.932L195.839 159.76L190.199 145.956C190.199 145.956 182.679 135.916 188.319 127.759C193.959 119.602 166.385 122.112 166.385 122.112Z" fill="#A0616A"/>
<path opacity="0.1" d="M166.385 122.112C166.385 122.112 165.131 136.544 161.998 137.171C158.865 137.799 168.892 162.897 168.892 162.897H183.932L195.839 159.76L190.199 145.956C190.199 145.956 182.679 135.916 188.319 127.759C193.959 119.602 166.385 122.112 166.385 122.112Z" fill="black"/>
<path d="M135.051 232.546C135.051 232.546 118.757 263.919 131.917 270.194C145.077 276.468 148.211 275.841 148.211 277.723C148.211 279.606 145.704 278.978 146.958 282.115C148.211 285.253 144.451 297.802 148.211 305.332C151.971 312.861 150.718 318.508 150.718 318.508C150.718 318.508 150.718 319.136 151.971 321.646C153.224 324.155 153.851 326.038 153.224 327.293C152.598 328.548 148.838 336.705 152.598 338.587C156.358 340.469 175.785 341.724 177.665 338.587C179.545 335.45 175.785 333.567 177.665 331.685C179.545 329.803 180.798 329.175 179.545 327.92C178.292 326.665 177.038 310.979 177.038 310.979C177.038 310.979 180.172 292.782 178.918 290.272C177.665 287.763 175.785 285.253 177.038 283.37C178.292 281.488 179.545 282.115 180.172 279.606C180.798 277.096 182.052 271.449 182.052 271.449L188.945 270.821L205.239 273.958C205.239 273.958 223.413 294.037 243.467 300.312C243.467 300.312 249.107 305.959 250.987 305.959C252.867 305.959 252.867 305.959 252.241 307.214C251.614 308.469 249.734 308.469 250.987 309.724C252.241 310.979 254.121 309.096 252.867 310.979C251.614 312.861 250.36 312.861 251.614 314.116C252.867 315.371 250.987 322.273 250.987 322.9C250.987 323.528 245.347 382.509 247.227 383.764C249.107 385.019 275.428 388.784 277.308 383.764C279.188 378.745 276.055 372.47 276.055 372.47C276.055 372.47 285.455 297.175 282.948 292.155C280.441 287.135 271.668 264.547 224.666 250.115C224.666 250.115 211.506 247.605 211.506 245.723C211.506 243.84 210.253 231.919 207.746 231.291C205.239 230.664 190.825 230.036 190.825 230.036L172.652 235.683L147.584 231.291L135.051 232.546Z" fill="#2F2E41"/>
<path d="M156.985 337.96L153.851 349.254C153.851 349.254 151.344 367.45 154.478 371.842C156.939 375.292 161.334 379.517 169.483 380.258C171.768 380.468 174.055 379.891 175.967 378.622C177.879 377.354 179.301 375.47 179.998 373.282C180.092 373.02 180.15 372.747 180.172 372.47C180.172 371.215 178.292 356.156 178.292 356.156L175.158 340.469L174.532 336.077L156.985 337.96Z" fill="#2F2E41"/>
<path d="M248.48 391.921C248.48 391.921 245.347 388.784 244.72 391.921C244.094 395.059 241.587 408.235 245.974 408.863C250.361 409.49 292.348 415.765 296.735 413.255C301.122 410.745 309.269 406.98 304.255 405.098C299.242 403.216 284.828 397.568 284.828 397.568C284.828 397.568 276.681 386.902 275.428 386.274C274.175 385.647 267.281 386.902 264.148 389.411C261.014 391.921 248.48 391.921 248.48 391.921Z" fill="#2F2E41"/>
<path d="M181.425 135.289C192.155 135.289 200.852 126.581 200.852 115.838C200.852 105.095 192.155 96.3867 181.425 96.3867C170.696 96.3867 161.998 105.095 161.998 115.838C161.998 126.581 170.696 135.289 181.425 135.289Z" fill="#A0616A"/>
<path d="M179.545 159.761L172.025 151.604L163.689 135.29C163.689 135.29 157.611 133.407 156.358 136.544C155.104 139.682 132.544 149.721 132.544 149.721C132.544 149.721 138.184 202.428 135.677 207.448C133.17 212.467 128.784 232.546 132.544 234.428C136.304 236.311 153.851 234.428 159.491 236.938C165.131 239.448 181.425 239.448 185.812 236.311C190.199 233.174 191.452 230.664 195.839 232.546C199.574 234.149 208.304 179.362 210.818 163.035C211.029 161.664 210.854 160.261 210.31 158.984C209.766 157.708 208.877 156.61 207.742 155.813C202.119 151.864 191.992 145.059 190.199 145.956C187.692 147.211 179.545 159.761 179.545 159.761Z" fill="#575A89"/>
<path d="M206.493 157.25C207.964 157.618 209.288 158.429 210.286 159.572C211.284 160.716 211.909 162.138 212.077 163.647L217.146 209.329C217.146 209.329 204.613 236.31 198.346 218.114C192.079 199.917 206.493 157.25 206.493 157.25Z" fill="#575A89"/>
<path d="M205.239 213.722L219.026 209.957C219.026 209.957 221.533 227.526 224.04 227.526C226.546 227.526 215.266 237.565 209.626 236.31C203.986 235.055 195.839 230.663 195.212 227.526C194.586 224.389 200.852 211.212 200.852 211.212L205.239 213.722Z" fill="#575A89"/>
<path d="M166.76 124.229C168.081 121.313 167.851 117.911 168.943 114.901C169.528 113.289 170.477 111.835 171.716 110.651C172.955 109.468 174.451 108.587 176.087 108.078C177.722 107.569 179.453 107.445 181.144 107.716C182.835 107.988 184.44 108.647 185.835 109.643C187.239 110.645 188.648 112.055 190.363 111.863C192.209 111.657 193.856 109.594 195.554 110.35C197.436 111.188 196.928 114.565 198.834 115.345C199.838 115.755 201.024 115.123 201.602 114.205C202.109 113.241 202.384 112.172 202.408 111.083C202.671 108.407 202.909 105.574 201.75 103.149C201.262 102.327 200.837 101.469 200.479 100.583C200.276 99.7549 200.195 98.9022 200.237 98.0511C200.227 94.9056 199.997 91.6245 198.416 88.9063C196.662 85.8901 193.419 83.9613 190.035 83.1197C186.652 82.2781 183.107 82.4072 179.634 82.7016C173.891 83.1884 167.902 84.2317 163.378 87.806C162.763 88.2558 162.234 88.8125 161.816 89.4497C161.419 90.2066 161.138 91.0192 160.983 91.8601C160.005 95.8483 158.539 99.7002 156.617 103.328C155.693 104.866 154.937 106.5 154.364 108.201C153.884 109.929 153.916 111.899 154.921 113.384C155.738 114.594 157.046 115.238 158.073 116.227C159.09 117.207 159.566 119.091 160.694 119.833C161.678 120.48 162.857 120.023 163.86 120.71C165.149 121.591 165.242 123.523 166.76 124.229Z" fill="#2F2E41"/>
<path d="M182.679 169.172L184.559 165.407C184.559 165.407 212.133 173.564 217.773 181.094C217.773 181.094 231.56 172.309 239.08 173.564L246.6 174.819L223.413 195.525L193.959 193.016L182.679 169.172Z" fill="#F2F2F2"/>
<path d="M181.425 165.407L155.731 201.173L192.705 219.369C192.705 219.369 196.162 221.251 198.821 219.369L223.413 208.075L246.6 174.819L223.413 186.741C223.413 186.741 220.906 181.721 215.893 184.231L181.425 165.407Z" fill="#00BFA6"/>
<path d="M220.906 228.781L225.92 215.604C225.92 215.604 237.2 201.172 230.933 194.27C224.666 187.368 217.773 214.349 217.773 214.349L220.906 228.781Z" fill="#A0616A"/>
<path d="M163.062 226.678L174.001 217.798C174.001 217.798 190.991 210.981 189.028 201.862C187.066 192.744 167.583 212.62 167.583 212.62L163.062 226.678Z" fill="#A0616A"/>
<path opacity="0.1" d="M135.991 163.211H135.364C135.364 163.211 125.65 151.603 123.77 167.29C121.89 182.976 115.623 235.056 131.917 236.938C148.211 238.82 159.805 229.095 159.805 229.095C159.805 229.095 171.712 210.898 167.325 210.898C165.202 210.898 159.43 209.944 154.164 210.271C148.548 210.62 143.501 212.204 143.824 210.585C144.451 207.447 153.538 167.603 135.991 163.211Z" fill="black"/>
<path d="M135.051 150.976L132.544 149.721C132.544 149.721 122.517 151.603 120.637 167.29C118.757 182.976 112.49 235.055 128.784 236.938C145.078 238.82 167.011 234.428 167.011 234.428C167.011 234.428 171.398 210.584 167.011 210.584C162.625 210.584 140.064 213.722 140.691 210.584C141.317 207.447 152.598 155.368 135.051 150.976Z" fill="#575A89"/>
<path d="M211.819 221.566L218.73 210.961L223.1 228.468L211.819 233.487V221.566Z" fill="#575A89"/>
<path d="M69.8585 70.3468C79.2034 70.3468 86.779 62.7618 86.779 53.4053C86.779 44.0488 79.2034 36.4639 69.8585 36.4639C60.5135 36.4639 52.938 44.0488 52.938 53.4053C52.938 62.7618 60.5135 70.3468 69.8585 70.3468Z" fill="#F2F2F2"/>
<path d="M89.9124 179.525H49.8046V219.683H89.9124V179.525Z" fill="#F2F2F2"/>
<path d="M233.127 0L243.278 17.6047L253.429 35.2094H233.127H212.824L222.975 17.6047L233.127 0Z" fill="#F2F2F2"/>
</g>
<defs>
<clipPath id="clip0_150_874">
<rect width="410" height="428" fill="white"/>
</clipPath>
</defs>
</svg>
