<svg width="458" height="369" viewBox="0 0 458 369" fill="none" xmlns="http://www.w3.org/2000/svg">
<path d="M170.388 127.165C169.134 127.582 167.987 128.27 167.029 129.18C166.071 130.09 165.327 131.201 164.848 132.432L123.584 132.205L101.633 101.844L85.3174 109.067L111.873 157.182L170.004 144.214L169.97 144.093C171.317 144.616 172.769 144.807 174.205 144.651C175.641 144.494 177.018 143.995 178.22 143.194C179.422 142.393 180.414 141.314 181.111 140.049C181.809 138.784 182.192 137.37 182.227 135.926C182.263 134.482 181.95 133.051 181.316 131.753C180.682 130.455 179.745 129.329 178.583 128.47C177.422 127.611 176.071 127.043 174.645 126.816C173.218 126.589 171.758 126.709 170.388 127.165Z" fill="#FFB6B6"/>
<path d="M93.9241 81.1545L93.0673 81.2801C88.5917 81.9309 84.5487 84.3081 81.804 87.9028C79.0594 91.4975 77.8312 96.024 78.3825 100.513C79.0453 105.822 79.4311 110.574 78.8508 111.519C77.4223 113.845 76.8761 115.794 79.6785 116.085C82.4809 116.377 76.6401 114.661 85.5686 116.154C94.497 117.647 92.9178 112.903 100.191 112.589C107.465 112.276 112.372 114.153 114.663 110.054C116.954 105.956 123.343 105.788 119.834 101.76C116.325 97.7333 115.375 101.211 112.532 92.6721C112.504 92.5867 112.476 92.5017 112.447 92.4171C111.164 88.6701 108.608 85.4914 105.224 83.4337C101.84 81.376 97.8413 80.5695 93.9241 81.1545Z" fill="#46BFB0"/>
<path d="M69.833 70.5542C68.7718 71.5885 67.6426 72.5507 66.453 73.4342C66.103 73.7042 65.753 73.9542 65.403 74.1842C55.253 81.0542 45.233 78.1142 37.423 70.9442C25.353 59.8442 18.573 38.6142 24.833 27.8342C38.853 10.7342 57.053 14.4042 68.113 26.0242C78.853 37.2942 82.873 56.0542 69.833 70.5542Z" fill="#F2F2F2"/>
<path d="M113.897 84.7921C113.037 84.2421 112.177 83.7121 111.297 83.2021C110.907 82.6721 110.507 82.1521 110.097 81.6421L113.897 84.7921Z" fill="#F2F2F2"/>
<path d="M89.3765 39.4323C102.694 49.5629 117.525 57.6256 120.32 68.7744C120.32 68.7744 118.646 51.2572 126.457 54.5775C139.582 60.1563 135.141 29.8164 131.461 24.8552C125.327 16.5865 104.642 11.8882 104.642 11.8882L89.9677 19.9435L89.3765 39.4323Z" fill="#2F2E41"/>
<path d="M150.704 355.843C150.977 356.636 151.494 357.323 152.181 357.804C152.868 358.285 153.689 358.536 154.528 358.521L170.912 358.1C171.757 358.083 172.574 357.794 173.241 357.275C173.908 356.756 174.388 356.035 174.612 355.22L176.93 330.427C177.753 330.8 178.648 330.984 179.551 330.965C180.336 330.947 181.11 330.773 181.828 330.455C182.545 330.137 183.194 329.681 183.735 329.112C184.276 328.543 184.7 327.873 184.983 327.141C185.265 326.408 185.4 325.627 185.381 324.842C185.361 324.057 185.187 323.284 184.868 322.566C184.549 321.848 184.092 321.201 183.523 320.66C182.954 320.119 182.283 319.696 181.55 319.414C180.817 319.133 180.036 318.998 179.251 319.019C178.89 319.018 178.53 319.055 178.177 319.13C177.794 318.715 177.327 318.385 176.808 318.161C176.289 317.937 175.728 317.824 175.163 317.83L149.96 318.481C149.751 318.488 149.543 318.514 149.338 318.558C148.786 318.661 148.262 318.881 147.801 319.204C147.341 319.526 146.955 319.944 146.669 320.428C146.384 320.912 146.205 321.452 146.146 322.011C146.086 322.57 146.147 323.136 146.325 323.669L150.704 355.843ZM177.405 328.743L179.055 322.835C179.243 322.153 179.247 321.433 179.068 320.748C179.148 320.748 179.219 320.71 179.299 320.71C180.43 320.687 181.524 321.113 182.341 321.895C183.159 322.678 183.632 323.752 183.659 324.883C183.685 326.014 183.262 327.109 182.483 327.929C181.703 328.749 180.63 329.226 179.499 329.255C178.767 329.278 178.044 329.101 177.405 328.743Z" fill="#CCCCCC"/>
<path d="M149.338 318.558C149.875 321.628 155.912 323.786 163.171 323.411C169.846 323.103 175.304 320.759 176.304 317.982C175.933 317.872 175.549 317.821 175.163 317.83L149.96 318.48C149.751 318.488 149.543 318.514 149.338 318.558Z" fill="white"/>
<path d="M112.566 51.7261C125.269 51.7261 135.566 41.4286 135.566 28.7261C135.566 16.0235 125.269 5.72607 112.566 5.72607C99.8639 5.72607 89.5664 16.0235 89.5664 28.7261C89.5664 41.4286 99.8639 51.7261 112.566 51.7261Z" fill="#FFB6B6"/>
<path d="M104.283 19.9255L103.398 23.8129L118.87 27.3351C118.883 26.5489 119.059 25.774 119.387 25.0591C119.714 24.3442 120.186 23.7046 120.772 23.1806C120.438 24.7049 120.477 26.2871 120.883 27.7935C129.227 32.4756 128.748 34.1344 135.491 32.9404C136.405 33.1484 137.364 32.985 138.157 32.486C138.95 31.987 139.512 31.1935 139.72 30.2798C142.434 18.3613 143.325 6.17977 131.465 3.22139C128.582 2.50058 125.585 2.36259 122.648 2.8155C119.711 3.26841 116.894 4.30308 114.362 5.8589C111.831 7.41471 109.635 9.46035 107.904 11.8758C106.173 14.2913 104.942 17.028 104.283 19.9255Z" fill="#2F2E41"/>
<path d="M221.731 164.533C221.676 164.467 221.613 164.409 221.543 164.36C221.371 164.16 221.162 163.997 220.927 163.878L219.244 162.977L208.07 150.572C207.423 150.235 206.671 150.163 205.972 150.371L205.943 150.38L201.157 151.86L197.04 153.138L191.29 154.92L152.124 167.048L126.379 175.019C125.683 175.239 125.102 175.724 124.759 176.369C124.417 177.013 124.342 177.767 124.55 178.467C124.671 178.852 124.871 179.208 125.138 179.511L125.957 180.423L127.675 182.337L131.656 190.588L132.761 191.82C133.113 192.213 133.569 192.497 134.077 192.639C134.585 192.782 135.122 192.777 135.627 192.625L220.441 169.04C220.882 168.897 221.281 168.648 221.603 168.315C221.924 167.982 222.159 167.575 222.287 167.13C222.414 166.685 222.43 166.215 222.333 165.762C222.236 165.309 222.029 164.887 221.731 164.533Z" fill="#CCCCCC"/>
<path d="M216.695 41.8275L215.053 42.0937C214.603 42.1684 214.2 42.4181 213.933 42.7884L213.21 43.8003L206.682 60.1221C206.417 60.4953 206.31 60.9587 206.386 61.4105L207.151 66.0609L204.26 149.067C204.333 149.496 204.564 149.882 204.907 150.151L217.58 167.103L217.876 167.338L218.514 167.838C218.841 168.09 219.247 168.219 219.66 168.202L220.737 168.151C220.982 168.139 221.221 168.075 221.439 167.964C221.658 167.853 221.85 167.697 222.003 167.506C222.158 167.316 222.27 167.096 222.332 166.86C222.394 166.623 222.404 166.376 222.362 166.136L218.686 43.2477C218.612 42.7963 218.361 42.393 217.989 42.1264C217.617 41.8598 217.155 41.7518 216.704 41.8262L216.695 41.8275Z" fill="#CCCCCC"/>
<path d="M213.945 48.2769L208.163 65.8909L205.927 136.244L214.927 144.244L213.945 48.2769Z" fill="#46BFB0"/>
<path d="M99.1118 57.4147L91.7218 53.9512L84.4457 66.6118C84.4457 66.6118 64.9038 94.4984 64.6204 114.617C64.3369 134.735 67.805 140.717 67.805 140.717C67.805 140.717 59.3793 147.016 63.5922 150.867C67.805 154.717 77.1317 156.379 69.9684 158.048C62.805 159.717 64.6204 176.617 72.6204 179.617C80.6204 182.617 123.585 182.59 123.585 182.59C123.198 181.28 123.17 179.89 123.502 178.565C123.835 177.241 124.515 176.029 125.474 175.056C128.805 171.717 131.805 174.113 128.805 168.915C125.805 163.717 120.805 166.717 124.805 159.717C128.805 152.717 128.804 150.625 128.804 150.625C128.804 150.625 126.659 101.268 114.377 84.4323L114.638 83.9692C115.046 78.491 113.78 73.0181 111.007 68.2759C108.234 63.5336 104.086 59.7459 99.1118 57.4147Z" fill="#46BFB0"/>
<path d="M108.067 35.4352C108.825 32.115 110.31 29.0044 112.415 26.3278C114.521 23.6511 117.194 21.475 120.242 19.9566C123.29 18.4382 126.637 17.6154 130.042 17.5473C133.447 17.4793 136.824 18.1678 139.931 19.5632C138.855 16.3874 136.677 13.702 133.792 11.9931L116.377 4.43228C107.787 2.47671 94.1883 -3.07376 87.9837 2.24155C82.2671 7.12443 85.0494 16.6826 79.7853 22.0356C74.0163 27.902 73.5263 34.8386 75.1624 38.8283C77.0551 43.444 80.8416 49.7412 85.567 51.1042C85.8129 49.4798 86.6232 47.9939 87.8557 46.9075C87.515 48.4556 87.4854 50.0559 87.7684 51.6156L116.377 74.4323C113.705 72.1083 111.428 66.1204 109.861 59.3761C108.933 55.384 103.395 53.9829 107.886 47.2076C112.377 40.4323 107.458 38.1137 108.067 35.4352Z" fill="#2F2E41"/>
<path d="M97.3765 265.432H107.376V344.432C107.376 345.758 106.85 347.03 105.912 347.968C104.974 348.905 103.703 349.432 102.376 349.432C101.05 349.432 99.7786 348.905 98.8409 347.968C97.9032 347.03 97.3765 345.758 97.3765 344.432V265.432Z" fill="#F2F2F2"/>
<path d="M68.3555 357.656L82.3481 339.097C86.7878 333.209 91.0448 327.086 95.7354 321.406C97.402 319.388 99.3377 317.302 101.803 316.692C102.774 316.443 103.797 316.486 104.743 316.817C105.862 317.207 106.893 317.812 107.781 318.596C109.843 320.506 111.573 322.745 112.9 325.222C114.646 328.256 116.261 331.369 117.765 334.53C121.172 341.731 123.943 349.217 126.046 356.901C127.072 360.618 132.862 359.04 131.832 355.306C129.749 347.79 127.069 340.452 123.815 333.364C122.23 329.903 120.506 326.511 118.643 323.188C117.09 320.237 115.134 317.517 112.83 315.106C110.5 312.644 107.395 311.057 104.035 310.609C100.43 310.216 97.0856 311.841 94.4087 314.123C91.7195 316.416 89.6991 319.448 87.5872 322.249L80.1444 332.12L63.1747 354.627C62.1986 355.922 62.9681 357.982 64.251 358.732C64.9423 359.115 65.7545 359.216 66.5188 359.016C67.2832 358.815 67.9409 358.328 68.3555 357.656Z" fill="#F2F2F2"/>
<path d="M164.376 157.432C163.055 157.431 161.75 157.721 160.554 158.283C159.357 158.844 158.3 159.663 157.457 160.68L118.376 147.432L107.139 111.692L89.3765 113.393L99.3765 167.432L158.628 173.487L158.634 173.361C159.747 174.283 161.064 174.923 162.476 175.228C163.888 175.533 165.353 175.494 166.746 175.114C168.14 174.734 169.421 174.024 170.482 173.044C171.544 172.064 172.353 170.843 172.843 169.484C173.333 168.125 173.489 166.668 173.297 165.236C173.105 163.805 172.571 162.44 171.741 161.258C170.911 160.076 169.808 159.112 168.526 158.446C167.244 157.78 165.821 157.432 164.376 157.432Z" fill="#FFB6B6"/>
<path d="M106.358 89.6273L105.506 89.4758C101.054 88.6797 96.4669 89.6584 92.7274 92.2023C88.9879 94.7461 86.393 98.653 85.4984 103.086C84.4504 108.333 83.3158 112.963 82.4667 113.677C80.3767 115.432 79.2428 117.109 81.8097 118.271C84.3766 119.432 79.3767 115.96 87.3767 120.196C95.3767 124.432 95.3767 119.432 102.377 121.432C109.377 123.432 113.44 126.763 116.908 123.598C120.377 120.432 126.491 122.291 124.434 117.362C122.377 112.432 120.377 115.432 120.377 106.432C120.377 106.342 120.376 106.253 120.376 106.163C120.342 102.203 118.921 98.3797 116.36 95.3585C113.799 92.3374 110.26 90.3094 106.358 89.6273Z" fill="#46BFB0"/>
<path d="M406.5 359.782C431.629 359.782 452 356.872 452 353.282C452 349.692 431.629 346.782 406.5 346.782C381.371 346.782 361 349.692 361 353.282C361 356.872 381.371 359.782 406.5 359.782Z" fill="#E6E6E6"/>
<path d="M435.745 360.058H375.14C360.18 345.72 349.483 331.902 358.047 320.432C358.047 317.135 359.357 313.973 361.688 311.641C364.019 309.31 367.181 308 370.478 308H440.406C443.704 308 446.865 309.31 449.197 311.641C451.528 313.973 452.838 317.135 452.838 320.432C456.099 333.501 450.273 346.712 435.745 360.058Z" fill="#F2F2F2"/>
<path d="M428.11 293.204C427.535 293.23 426.966 293.079 426.48 292.771C425.994 292.464 425.614 292.014 425.392 291.483C425.169 290.951 425.116 290.365 425.238 289.802C425.361 289.24 425.653 288.729 426.076 288.338L426.268 287.573C426.243 287.512 426.217 287.451 426.192 287.39C425.613 286.021 424.642 284.855 423.402 284.036C422.161 283.218 420.707 282.784 419.221 282.79C417.735 282.795 416.284 283.24 415.05 284.067C413.816 284.895 412.854 286.069 412.285 287.441C410.011 292.919 407.115 298.407 406.402 304.199C406.088 306.759 406.22 309.355 406.793 311.87C401.451 300.216 398.677 287.55 398.659 274.731C398.658 271.514 398.837 268.3 399.194 265.103C399.49 262.482 399.9 259.88 400.425 257.296C403.288 243.278 409.436 230.139 418.363 218.959C422.684 216.601 426.178 212.976 428.375 208.571C429.171 206.988 429.733 205.298 430.045 203.554C429.557 203.617 428.207 196.194 428.575 195.739C427.895 194.708 426.68 194.196 425.938 193.19C422.248 188.188 417.165 189.061 414.512 195.859C408.843 198.72 408.788 203.465 412.266 208.028C414.479 210.931 414.783 214.86 416.725 217.968C416.525 218.224 416.318 218.471 416.118 218.727C412.466 223.423 409.284 228.465 406.616 233.781C407.264 227.825 406.49 221.8 404.356 216.202C402.193 210.985 398.14 206.591 394.57 202.081C390.282 196.663 381.49 199.027 380.734 205.895C380.727 205.962 380.72 206.028 380.713 206.094C381.243 206.394 381.762 206.711 382.27 207.047C382.908 207.473 383.402 208.082 383.688 208.794C383.974 209.506 384.038 210.288 383.872 211.037C383.707 211.786 383.318 212.468 382.758 212.992C382.198 213.517 381.493 213.86 380.735 213.977L380.657 213.989C380.846 215.9 381.18 217.794 381.656 219.654C377.076 237.364 386.963 243.814 401.08 244.104C401.392 244.264 401.695 244.424 402.007 244.576C399.326 252.172 397.645 260.085 397.005 268.115C396.643 272.852 396.664 277.612 397.069 282.346L397.045 282.178C396.022 276.914 393.214 272.164 389.095 268.73C382.976 263.704 374.333 261.854 367.732 257.814C367.031 257.363 366.215 257.123 365.381 257.121C364.548 257.119 363.731 257.355 363.027 257.802C362.324 258.249 361.762 258.888 361.41 259.643C361.058 260.399 360.928 261.239 361.038 262.066C361.047 262.125 361.056 262.183 361.065 262.242C362.049 262.643 363.007 263.104 363.933 263.624C364.464 263.924 364.983 264.241 365.49 264.577C366.128 265.003 366.623 265.612 366.909 266.324C367.195 267.036 367.259 267.818 367.093 268.567C366.927 269.316 366.538 269.998 365.979 270.522C365.419 271.047 364.713 271.39 363.955 271.507L363.877 271.519C363.821 271.527 363.774 271.535 363.718 271.543C365.399 275.557 367.758 279.252 370.693 282.465C373.557 297.926 385.855 299.392 399.011 294.89H399.019C400.462 301.163 402.553 307.268 405.259 313.108H427.552C427.632 312.86 427.704 312.605 427.776 312.357C425.712 312.487 423.641 312.363 421.607 311.99C423.261 309.96 424.915 307.914 426.569 305.885C426.606 305.847 426.641 305.807 426.673 305.765C427.512 304.726 428.359 303.696 429.198 302.657L429.198 302.656C429.243 299.472 428.877 296.295 428.11 293.204Z" fill="#F2F2F2"/>
<path d="M328.5 368.782C350.315 368.782 368 365.872 368 362.282C368 358.692 350.315 355.782 328.5 355.782C306.685 355.782 289 358.692 289 362.282C289 365.872 306.685 368.782 328.5 368.782Z" fill="#E6E6E6"/>
<path d="M368.205 324.742C368.22 334.286 364.769 343.511 358.494 350.703C356.93 352.507 355.202 354.162 353.333 355.648C350.497 357.926 347.358 359.798 344.006 361.211H313.285C309.933 359.798 306.794 357.926 303.958 355.648C302.088 354.162 300.36 352.507 298.796 350.703C296.959 348.588 295.35 346.286 293.994 343.835C291.169 338.708 289.517 333.017 289.157 327.173C288.798 321.33 289.74 315.48 291.915 310.044C294.09 304.609 297.445 299.724 301.737 295.742C306.028 291.76 311.151 288.781 316.733 287.018C322.316 285.255 328.221 284.754 334.021 285.549C339.821 286.345 345.372 288.418 350.274 291.618C355.176 294.819 359.307 299.068 362.368 304.058C365.429 309.049 367.345 314.656 367.976 320.477C368.13 321.893 368.207 323.317 368.205 324.742Z" fill="#3F3D56"/>
<path d="M358.494 350.703C356.93 352.507 355.203 354.162 353.333 355.648H303.958C302.088 354.162 300.36 352.507 298.796 350.703H358.494Z" fill="#46BFB0"/>
<path d="M367.976 320.477C359.712 333.303 344.5 343.254 325.981 346.277C315.28 348.097 304.295 347.259 293.994 343.835C291.168 338.708 289.517 333.017 289.157 327.173C288.798 321.33 289.74 315.48 291.915 310.044C294.09 304.609 297.445 299.724 301.737 295.742C306.028 291.76 311.151 288.781 316.733 287.018C322.316 285.255 328.221 284.754 334.021 285.549C339.821 286.345 345.372 288.418 350.274 291.618C355.176 294.819 359.307 299.068 362.368 304.058C365.429 309.049 367.345 314.656 367.976 320.477Z" fill="#46BFB0"/>
<path d="M278.903 307.226L289.097 302.993L277.622 261.659L262.577 267.906L278.903 307.226Z" fill="#FFB6B6"/>
<path d="M272.677 301.625L288.559 293.89L291.457 300.868L311.38 305.132C312.364 305.343 313.255 305.862 313.923 306.615C314.591 307.368 315.001 308.314 315.092 309.316C315.184 310.319 314.953 311.324 314.433 312.185C313.913 313.047 313.132 313.72 312.202 314.106L292.813 322.156L286.606 316.642L288.167 324.086L280.856 327.121L272.677 301.625Z" fill="#2F2E41"/>
<path d="M286.95 282.495L271.299 292.547C264.39 284.575 243.72 255.54 226.177 237.748C214.845 226.233 206.075 217.417 206.075 217.417C206.075 217.417 203.868 218.893 200.367 221.2C187.545 229.662 157.419 249.243 155.931 247.514C154.042 245.32 150.466 246.569 149 251.384C147.929 254.893 141.193 255.164 137.611 255.061C136.268 255.016 135.369 254.928 135.369 254.928C134.695 255.065 134.021 255.202 133.363 255.324C112.027 259.236 92.9277 248.473 83.371 231.813C79.9351 225.879 77.8103 219.277 77.1396 212.453C76.4688 205.629 77.2677 198.74 79.4825 192.251L89.3683 162.839L132.087 177.125L134.104 194.196L151.524 188.489L189.66 175.995L203.586 171.429C203.586 171.429 203.321 171.284 204.145 170.144C205.75 169.935 207.371 169.87 208.988 169.949C209.263 169.959 209.534 169.977 209.802 170.005C225.026 171.232 231.361 185.71 231.361 185.71C231.361 185.71 278.293 252.991 280.631 254.351C282.965 255.72 282.859 260.274 282.792 261.341C282.736 262.348 284.761 268.935 286.59 269.5C292.293 271.275 286.95 282.495 286.95 282.495Z" fill="#2F2E41"/>
<path d="M256.274 326.529L266.863 323.415L259.888 281.088L244.26 285.686L256.274 326.529Z" fill="#FFB6B6"/>
<path d="M250.685 320.293L267.305 314.307L269.438 321.555L288.789 327.932C289.744 328.247 290.575 328.859 291.158 329.679C291.741 330.499 292.047 331.484 292.031 332.49C292.015 333.497 291.677 334.471 291.068 335.272C290.459 336.073 289.609 336.658 288.644 336.942L268.503 342.866L262.923 336.718L263.676 344.286L256.082 346.52L250.685 320.293Z" fill="#2F2E41"/>
<path d="M266.927 302.804L250.288 311.12C244.274 302.453 226.838 271.368 211.305 251.797C201.273 239.133 193.499 229.428 193.499 229.428C193.499 229.428 191.147 230.659 187.418 232.577C173.763 239.614 141.71 255.851 140.416 253.972C138.774 251.588 135.083 252.447 133.11 257.076C131.668 260.45 124.942 259.997 121.392 259.51C120.061 259.321 119.178 259.137 119.178 259.137C118.493 259.201 117.808 259.266 117.141 259.316C95.5083 260.917 77.6734 248.168 69.959 230.579C67.1794 224.31 65.7749 217.519 65.84 210.662C65.9051 203.805 67.4383 197.042 70.3364 190.827L83.3199 162.646L124.26 181.431L124.434 198.621L142.365 194.814L181.622 186.483L195.958 183.438C195.958 183.438 195.709 183.265 196.651 182.22C198.269 182.184 199.887 182.294 201.486 182.546C201.759 182.585 202.027 182.632 202.29 182.689C217.295 185.541 222.04 200.616 222.04 200.616C222.04 200.616 261.485 272.543 263.663 274.145C265.837 275.757 265.243 280.273 265.062 281.327C264.899 282.322 266.205 289.089 267.963 289.846C273.443 292.223 266.927 302.804 266.927 302.804Z" fill="#2F2E41"/>
<path d="M91.4026 281.334C81.9926 261.194 13.3726 280.664 8.86262 236.654C7.62262 223.844 17.2226 212.774 26.3426 203.694C91.2126 158.834 -35.4474 125.684 13.7626 81.3944C21.2359 77.0417 29.1717 73.5366 37.4226 70.9444C48.8126 67.5944 57.3126 68.2144 63.7526 71.7144C64.6903 72.2263 65.5924 72.8009 66.4526 73.4344C94.6726 94.2844 77.6026 178.524 107.223 204.684C118.503 213.584 168.393 230.824 176.403 244.264C176.614 244.626 176.805 245 176.973 245.384C179.714 250.66 117.885 265.029 122.973 277.384C129.973 294.384 90.7981 319.169 91.4026 281.334Z" fill="#F2F2F2"/>
<path d="M145.973 175.839C145.973 182.191 151.336 194.384 119.973 194.384C88.6099 194.384 32.3979 182.191 32.3979 175.839C32.3979 169.488 57.8226 164.339 89.1854 164.339C120.548 164.339 145.973 169.488 145.973 175.839Z" fill="#F2F2F2"/>
<path d="M3.68655e-06 361C-0.000322371 361.131 0.0209832 361.262 0.0627079 361.383C0.104433 361.505 0.165738 361.615 0.243113 361.708C0.320489 361.801 0.412415 361.875 0.513572 361.925C0.614729 361.975 0.723137 362 0.832559 362H457.168C457.388 362 457.6 361.895 457.756 361.707C457.912 361.52 458 361.265 458 361C458 360.735 457.912 360.48 457.756 360.293C457.6 360.105 457.388 360 457.168 360H0.832516C0.723099 360 0.61468 360.025 0.51353 360.075C0.412379 360.125 0.320483 360.199 0.243113 360.292C0.165743 360.385 0.104431 360.495 0.0627079 360.617C0.0209845 360.738 -0.00031863 360.869 3.68655e-06 361Z" fill="#CCCCCC"/>
<path d="M221.731 164.533C221.676 164.467 221.613 164.409 221.543 164.36C221.371 164.16 221.162 163.997 220.927 163.878L219.244 162.977L208.07 150.572C207.423 150.235 206.671 150.163 205.972 150.371L205.943 150.38L201.157 151.86L197.04 153.138L191.29 154.92L152.124 167.048L126.379 175.019C125.683 175.239 125.102 175.724 124.759 176.369C124.417 177.013 124.342 177.767 124.55 178.467C124.671 178.852 124.871 179.208 125.138 179.511L125.957 180.423L127.675 182.337L131.656 190.588L132.761 191.82C133.113 192.213 133.569 192.497 134.077 192.639C134.585 192.782 135.122 192.777 135.627 192.625L220.441 169.04C220.882 168.897 221.281 168.648 221.603 168.315C221.924 167.982 222.159 167.575 222.287 167.13C222.414 166.685 222.43 166.215 222.333 165.762C222.236 165.309 222.029 164.887 221.731 164.533Z" fill="#CCCCCC"/>
</svg>
