<svg width="377" height="382" viewBox="0 0 377 382" fill="none" xmlns="http://www.w3.org/2000/svg">
<g clip-path="url(#clip0_506_2672)">
<path d="M84.5553 63.7944L81.6812 78.8905L96.0107 82.932L94.2303 66.8152L84.5553 63.7944Z" fill="#A0616A"/>
<path d="M0 376.283C0 376.758 0.380851 377.139 0.855114 377.139H376.145C376.619 377.139 377 376.758 377 376.283C377 375.809 376.619 375.428 376.145 375.428H0.855114C0.380851 375.428 0 375.809 0 376.283Z" fill="#3F3D56"/>
<path d="M255.83 171.311H108.047C91.2887 171.311 77.7031 184.902 77.7031 201.668V345.032C77.7031 361.798 91.2887 375.39 108.047 375.39H255.83C272.589 375.39 286.174 361.798 286.174 345.032V201.668C286.174 184.902 272.589 171.311 255.83 171.311Z" fill="white"/>
<path d="M255.83 376.108H108.047C90.9192 376.108 76.9844 362.168 76.9844 345.032V201.668C76.9844 184.533 90.9192 170.592 108.047 170.592H255.83C272.958 170.592 286.893 184.533 286.893 201.668V345.032C286.893 362.168 272.958 376.108 255.83 376.108ZM108.047 172.03C91.7114 172.03 78.4215 185.325 78.4215 201.668V345.032C78.4215 361.375 91.7114 374.67 108.047 374.67H255.83C272.166 374.67 285.456 361.375 285.456 345.032V201.668C285.456 185.325 272.166 172.03 255.83 172.03L108.047 172.03Z" fill="#3F3D56"/>
<path d="M266.534 233.464H207.134C204.614 233.464 202.564 231.414 202.564 228.893C202.564 226.372 204.614 224.322 207.134 224.322H266.534C269.054 224.322 271.104 226.372 271.104 228.893C271.104 231.414 269.054 233.464 266.534 233.464Z" fill="#46BFB0"/>
<path d="M210.809 269.412H153.068C151.613 269.412 150.428 268.227 150.428 266.771C150.428 265.315 151.613 264.13 153.068 264.13H210.809C212.264 264.13 213.448 265.315 213.448 266.771C213.448 268.227 212.264 269.412 210.809 269.412Z" fill="#46BFB0"/>
<path d="M129.199 181.129H96.2336C96.1105 181.129 96.0107 181.229 96.0107 181.352V185.191C96.0107 185.314 96.1105 185.414 96.2336 185.414H129.199C129.322 185.414 129.422 185.314 129.422 185.191V181.352C129.422 181.229 129.322 181.129 129.199 181.129Z" fill="#46BFB0"/>
<path d="M240.236 185.414C242.129 185.414 243.663 183.879 243.663 181.986C243.663 180.093 242.129 178.558 240.236 178.558C238.344 178.558 236.81 180.093 236.81 181.986C236.81 183.879 238.344 185.414 240.236 185.414Z" fill="#3F3D56"/>
<path d="M249.66 185.414C251.553 185.414 253.087 183.879 253.087 181.986C253.087 180.093 251.553 178.558 249.66 178.558C247.768 178.558 246.233 180.093 246.233 181.986C246.233 183.879 247.768 185.414 249.66 185.414Z" fill="#3F3D56"/>
<path d="M259.084 185.414C260.976 185.414 262.51 183.879 262.51 181.986C262.51 180.093 260.976 178.558 259.084 178.558C257.191 178.558 255.657 180.093 255.657 181.986C255.657 183.879 257.191 185.414 259.084 185.414Z" fill="#3F3D56"/>
<path d="M107.688 283.55C107.688 284.025 108.068 284.406 108.543 284.406H255.335C255.809 284.406 256.19 284.025 256.19 283.55C256.19 283.076 255.809 282.695 255.335 282.695H108.543C108.068 282.695 107.688 283.076 107.688 283.55Z" fill="#3F3D56"/>
<path d="M152.456 72.5451C155.581 69.9618 159.447 69.4809 161.09 71.4709C162.733 73.4608 161.531 77.1674 158.405 79.7513C157.17 80.8006 155.702 81.5388 154.123 81.9041L140.744 92.6825L135.822 86.2935L149.534 76.3462C150.191 74.8639 151.193 73.5605 152.456 72.5451Z" fill="#A0616A"/>
<path d="M75.1261 96.8642C75.1193 96.3876 75.1237 92.2296 78.2006 89.6016C81.7351 86.5828 86.7224 87.8047 88.4717 88.2332C92.5125 89.2232 92.8439 90.9574 96.6387 92.7393C103.738 96.0729 94.8428 94.3666 99.0673 93.2976C100.53 92.9276 121.567 91.468 126.803 88.2437C136.987 81.9727 143.927 78.1699 143.927 78.1699L148.463 87.2465C148.463 87.2465 141.903 96.3715 132.671 103.131C123.201 110.065 118.466 113.532 111.271 114.872C110.651 114.987 95.4106 117.591 83.1358 108.416C80.336 106.323 75.206 102.489 75.1261 96.8642Z" fill="#E6E6E6"/>
<path d="M89.1978 73.7804C97.9254 73.7804 105.001 66.7022 105.001 57.9708C105.001 49.2393 97.9254 42.1611 89.1978 42.1611C80.4701 42.1611 73.395 49.2393 73.395 57.9708C73.395 66.7022 80.4701 73.7804 89.1978 73.7804Z" fill="#A0616A"/>
<path d="M212.959 164.186L196.684 147.52L188.283 156.287L200.408 172.267L212.435 173.643L212.959 164.186Z" fill="#A0616A"/>
<path d="M120.03 132.933C120.982 133.012 124.007 133.618 126.898 132.027C128.871 130.941 129.883 129.326 130.225 128.812C134.466 122.441 150.741 112.505 165.348 111.894C168.656 111.756 170.834 112.139 172.813 113.171C175.619 114.634 176.739 116.731 180.3 121.641C182.248 124.327 184.403 126.858 186.375 129.527C197.916 145.152 202.291 146.379 201.844 151.388C201.348 156.946 195.356 162.219 191.374 161.611C189.743 161.361 189.112 160.227 186.933 157.93C180.544 151.196 177.901 152.44 173.352 147.282C168.042 141.26 168.737 136.267 165.966 136.074C163.397 135.895 162.305 140.155 156.82 145.814C154.31 148.403 152.523 149.591 147.078 153.37C125.873 168.087 125.534 169.121 121.255 170.295C119.383 170.808 106.094 174.453 101.36 168.653C93.9523 159.576 111.453 132.22 120.03 132.933Z" fill="#2F2E41"/>
<path d="M207.984 167.952C209.181 167.414 210.58 166.786 211.03 165.34C211.335 164.362 211.16 163.155 210.53 162.322C209.803 161.36 208.728 161.233 208.771 161.063C208.837 160.804 211.381 160.905 214.173 161.893C214.699 162.079 217.086 162.951 220.122 165.323C222.555 167.223 222.227 167.604 223.753 168.699C228.435 172.062 232.827 169.411 235.36 172.565C236.338 173.782 236.755 175.51 236.344 176.907C235.517 179.713 231.499 180.679 229.302 181.177C224.013 182.378 220.009 181.398 215.828 180.693C201.611 178.296 193.623 180.479 192.553 177.184C192.351 176.56 192.68 176.613 193.776 172.037C194.858 167.519 194.822 166.279 195.744 165.917C197.131 165.373 198.062 167.849 201.557 168.697C204.653 169.448 207.208 168.301 207.984 167.952Z" fill="#2F2E41"/>
<path d="M184.026 218.708L179.914 195.774L168.042 198.309L169.105 218.344L178.284 226.239L184.026 218.708Z" fill="#A0616A"/>
<path d="M124.673 140.642C125.417 141.242 127.579 143.443 130.865 143.75C133.107 143.96 134.851 143.192 135.422 142.959C142.507 140.07 161.552 140.992 173.981 148.692C176.796 150.436 178.383 151.976 179.441 153.942C180.941 156.729 180.692 159.093 180.882 165.157C180.986 168.474 181.349 171.779 181.482 175.094C182.262 194.507 185.194 197.98 182.012 201.874C178.482 206.194 170.564 207.191 167.611 204.451C166.401 203.328 166.515 202.035 166.002 198.91C164.495 189.749 161.61 189.294 160.741 182.47C159.727 174.504 163.105 170.763 160.92 169.047C158.895 167.456 155.601 170.367 147.886 171.968C144.355 172.7 142.21 172.679 135.583 172.747C109.776 173.012 108.916 173.678 104.716 172.245C102.879 171.618 89.837 167.169 89.1757 159.71C88.1408 148.038 117.976 135.233 124.673 140.642Z" fill="#2F2E41"/>
<path d="M177.795 219.029C179.087 219.257 180.598 219.523 181.782 218.579C182.583 217.941 183.115 216.844 183.062 215.801C183 214.597 182.181 213.888 182.313 213.771C182.513 213.594 184.561 215.107 186.317 217.492C186.648 217.942 188.133 220.005 189.315 223.673C190.261 226.611 189.776 226.743 190.424 228.506C192.411 233.919 197.532 234.193 197.858 238.226C197.984 239.782 197.359 241.446 196.235 242.371C193.976 244.229 190.109 242.77 188.012 241.949C182.961 239.971 180.198 236.91 177.134 233.979C166.715 224.008 158.88 221.327 159.845 217.999C160.028 217.37 160.27 217.598 163.746 214.427C167.177 211.297 167.844 210.251 168.809 210.469C170.262 210.798 169.643 213.371 172.058 216.035C174.199 218.396 176.957 218.882 177.795 219.029Z" fill="#2F2E41"/>
<path d="M91.3523 60.9929C91.9675 58.7913 91.1948 57.9889 91.9824 57.0007C91.9824 57.0006 92.2993 56.603 95.1328 55.5299C94.2968 50.6772 94.9227 49.8567 94.9227 49.8567C95.6441 48.911 97.0893 48.6824 98.0731 48.8061C100.154 49.0677 100.522 50.9495 101.854 50.9073C103.693 50.8489 105.899 47.1657 105.214 43.9734C104.655 41.3693 102.247 39.4355 101.644 39.771C101.045 40.1038 98.8903 38.6366 98.0731 38.9306C97.5151 39.1313 94.8883 38.8643 94.2927 39.1407C93.6422 39.4426 91.7794 41.3223 91.6014 41.0855C90.3638 39.4397 90.3901 38.865 89.6721 38.5103C88.3998 37.8818 87.0165 39.0435 84.6315 40.1913C79.7241 42.5528 78.2871 41.1441 76.0204 43.1329C74.8754 44.1376 74.2613 46.0576 73.08 49.8567C71.428 55.1696 70.602 57.8261 71.3998 60.3626C72.2135 62.9493 73.4117 62.3863 75.1803 66.0357C77.149 70.0982 76.4705 72.4595 78.3307 73.3898C79.7684 74.1089 82.0789 73.6513 82.9513 72.3393C84.4448 70.093 80.5844 67.0544 81.9011 63.5143C82.7094 61.3413 85.2027 59.6936 86.7317 60.1524C88.4606 60.6712 88.5879 63.7724 89.6721 63.7244C90.6005 63.6833 91.2451 61.3766 91.3523 60.9929Z" fill="#2F2E41"/>
<path d="M79.3806 76.1213C82.6144 72.4938 95.7865 76.2483 97.0228 82.0045C97.5313 84.3722 95.654 85.3719 96.1827 88.098C96.9559 92.0852 101.334 91.8134 104.584 95.8723C109.197 101.635 104.444 107.268 109.624 116.884C110.731 118.939 111.664 120.671 113.615 122.347C118.091 126.193 122.257 124.874 124.536 128.441C126.241 131.107 125.54 134.394 125.376 135.164C124.704 138.322 122.88 139.091 121.596 141.678C119.458 145.982 121.878 149.142 122.016 154.285C122.188 160.719 118.77 169.639 111.935 172.565C104.255 175.853 94.9937 170.408 90.512 165.001C87.8377 161.775 87.0614 158.799 85.8914 155.125C80.6626 138.709 77.7085 140.193 73.7099 127.18C69.1387 112.303 68.2401 94.8739 73.7099 89.3587C74.4349 88.6276 76.4301 86.938 77.7004 83.8956C79.4097 79.8016 77.933 77.7451 79.3806 76.1213Z" fill="#E6E6E6"/>
<path d="M127.163 160.563C129.671 163.75 130.059 167.628 128.032 169.224C126.004 170.82 122.329 169.53 119.821 166.341C118.802 165.082 118.099 163.596 117.772 162.009L107.319 148.371L112.72 144.25L123.435 157.551C124.9 158.243 126.179 159.276 127.163 160.563Z" fill="#A0616A"/>
<path d="M88.8823 89.9459C89.3474 89.842 93.417 88.9979 96.6164 91.4752C100.292 94.3208 100.114 99.4547 100.051 101.255C99.9069 105.415 98.2776 106.093 97.3083 110.173C95.4949 117.807 98.9484 124.901 100.856 128.82C101.517 130.177 103.639 134.328 107.862 138.799C116.077 147.494 123.406 152.069 123.406 152.069L115.532 159.071C115.532 159.071 102.99 155.246 94.4917 147.584C85.7742 139.724 72.3681 111.915 69.589 105.141C69.3497 104.557 72.7398 114.042 79.2129 100.148C80.6893 96.9785 83.3945 91.1719 88.8823 89.9459Z" fill="#E6E6E6"/>
<path d="M196.842 303.133C191.838 303.901 188.177 307.106 188.665 310.293C189.154 313.479 193.607 315.439 198.613 314.671C200.617 314.391 202.525 313.636 204.178 312.467L225.342 308.948L223.929 300.578L202.813 303.568C200.886 302.948 198.839 302.799 196.842 303.133Z" fill="#FFB6B6"/>
<path d="M288.044 277.045L279.837 294.466L238.582 308.36L204.349 310.187L203.491 301.961L240.592 294.201L278.663 276.202L288.044 277.045Z" fill="#E6E6E6"/>
<path d="M211.954 343.195L204.586 361.839L195.051 355.335L200.685 335.824L211.954 343.195Z" fill="#FFB6B6"/>
<path d="M181.183 336.257L161.68 354.902L169.481 363.14L189.417 347.531L181.183 336.257Z" fill="#FFB6B6"/>
<path d="M291.699 275.555L291.482 274.038L286.498 264.282L270.029 268.618L273.063 282.059L291.699 275.555Z" fill="#FFB6B6"/>
<path d="M284.764 340.593L285.271 347.106C285.271 347.106 287.365 374.413 270.462 376.581C253.56 378.749 246.192 380.917 236.224 364.007L220.622 336.257L211.508 347.106L199.385 337.558C199.385 337.558 208.053 303.738 214.988 302.438C215.854 302.275 216.721 302.194 217.574 302.176C223.315 302.056 228.727 304.866 232.161 309.469L251.826 335.824L258.977 332.572L284.764 340.593Z" fill="#2F2E41"/>
<path d="M191.151 360.972L195.051 353.601L206.32 361.406C206.32 361.406 208.92 370.944 205.019 372.245C201.119 373.546 190.284 371.812 190.284 371.812C190.284 371.812 170.348 376.148 169.914 372.245C169.481 368.343 179.016 367.476 179.016 367.476L191.151 360.972Z" fill="#2F2E41"/>
<path d="M233.624 355.769L203.502 336.781L188.117 350.566L177.715 338.425C177.715 338.425 196.785 310.242 202.419 308.941C208.053 307.641 217.154 306.773 217.154 306.773L244.892 332.355L233.624 355.769Z" fill="#2F2E41"/>
<path d="M161.246 353.168L171.214 364.007L169.9 365.132C169.9 365.132 167.314 376.4 161.246 372.588C155.179 368.777 154.745 367.909 154.745 367.909C154.745 367.909 137.41 371.812 135.676 364.874C133.942 357.937 138.71 359.238 138.71 359.238L143.039 361.839L161.246 353.168Z" fill="#2F2E41"/>
<path d="M275.23 273.388C282.889 273.388 289.098 267.176 289.098 259.513C289.098 251.85 282.889 245.638 275.23 245.638C267.57 245.638 261.361 251.85 261.361 259.513C261.361 267.176 267.57 273.388 275.23 273.388Z" fill="#FFB6B6"/>
<path d="M271.979 279.241L291.916 273.171C291.916 273.171 299.717 291.382 298.417 299.62C297.116 307.858 285.271 347.106 285.271 347.106L258.977 332.572C258.977 332.572 258.544 323.9 257.244 319.998C255.944 316.096 251.826 304.172 260.928 294.2C270.029 284.227 271.979 279.241 271.979 279.241Z" fill="#E6E6E6"/>
<path d="M228.101 370.286C224.856 374.175 224.232 379.002 226.706 381.067C229.18 383.132 233.815 381.654 237.06 377.763C238.378 376.227 239.308 374.397 239.774 372.427L253.313 355.777L246.718 350.438L232.864 366.659C231.01 367.47 229.376 368.714 228.101 370.286Z" fill="#FFB6B6"/>
<path d="M287.271 287.989L291.983 306.662L268.92 343.596L245.376 367.269L237.745 360.935L261.49 331.378L279.488 293.295L287.271 287.989Z" fill="#E6E6E6"/>
<path d="M262.444 257.128C266.001 257.12 266.203 257.143 266.778 257.128C271.19 257.012 272.344 255.275 274.58 255.394C278.571 255.605 273.303 275.623 271.112 284.878C268.964 293.954 276.225 302.087 276.747 302.655C284.116 310.673 297.062 312.14 299.283 308.725C301.081 305.961 294.709 301.758 296.249 295.717C297.755 289.812 304.708 290.441 306.651 284.878C308.686 279.052 301.847 276.113 297.55 261.898C295.082 253.733 295.518 252.212 293.216 247.156C287.06 233.64 256.891 239.394 260.278 251.925C260.933 254.349 259.189 257.136 262.444 257.128Z" fill="#2F2E41"/>
<path d="M306.731 92.4173H160.973C156.851 92.4173 153.498 89.0621 153.498 84.9386V7.47866C153.498 3.35516 156.851 0 160.973 0H306.731C310.853 0 314.206 3.35515 314.206 7.47866V84.9386C314.206 89.0621 310.853 92.4173 306.731 92.4173Z" fill="white"/>
<path d="M306.731 92.4173H160.973C156.851 92.4173 153.498 89.0621 153.498 84.9386V7.47866C153.498 3.35516 156.851 0 160.973 0H306.731C310.853 0 314.206 3.35515 314.206 7.47866V84.9386C314.206 89.0621 310.853 92.4173 306.731 92.4173ZM160.973 1.24888C157.539 1.24888 154.746 4.04362 154.746 7.47866V84.9386C154.746 88.3737 157.539 91.1684 160.973 91.1684H306.731C310.164 91.1684 312.958 88.3737 312.958 84.9386V7.47866C312.958 4.04362 310.164 1.24888 306.731 1.24888H160.973Z" fill="#3F3D56"/>
<path d="M295.481 9.36676C296.515 9.36676 297.353 8.52804 297.353 7.49344C297.353 6.45883 296.515 5.62012 295.481 5.62012C294.447 5.62012 293.608 6.45883 293.608 7.49344C293.608 8.52804 294.447 9.36676 295.481 9.36676Z" fill="#3F3D56"/>
<path d="M300.474 9.36676C301.508 9.36676 302.347 8.52804 302.347 7.49344C302.347 6.45883 301.508 5.62012 300.474 5.62012C299.44 5.62012 298.602 6.45883 298.602 7.49344C298.602 8.52804 299.44 9.36676 300.474 9.36676Z" fill="#3F3D56"/>
<path d="M305.468 9.36676C306.502 9.36676 307.34 8.52804 307.34 7.49344C307.34 6.45883 306.502 5.62012 305.468 5.62012C304.434 5.62012 303.595 6.45883 303.595 7.49344C303.595 8.52804 304.434 9.36676 305.468 9.36676Z" fill="#3F3D56"/>
<path d="M164.109 37.7788C163.592 37.7788 163.172 38.199 163.172 38.7155C163.172 38.9673 163.27 39.2003 163.446 39.3722C163.624 39.5546 163.857 39.6521 164.109 39.6521H304.219C304.736 39.6521 305.156 39.232 305.156 38.7155C305.156 38.4636 305.058 38.2307 304.882 38.0587C304.704 37.8764 304.471 37.7788 304.219 37.7788H164.109Z" fill="#E6E6E6"/>
<path d="M286.742 37.4663V39.9641H164.108C163.765 39.9641 163.453 39.8267 163.228 39.5956C162.997 39.3708 162.86 39.0586 162.86 38.7152C162.86 38.0283 163.422 37.4663 164.108 37.4663H286.742Z" fill="#46BFB0"/>
<path d="M302.659 32.7831H290.175C288.799 32.7831 287.679 31.6629 287.679 30.2854C287.679 28.9078 288.799 27.7876 290.175 27.7876H302.659C304.035 27.7876 305.155 28.9078 305.155 30.2854C305.155 31.6629 304.035 32.7831 302.659 32.7831Z" fill="#E6E6E6"/>
<path d="M220.893 19.6698H165.045C163.668 19.6698 162.548 18.5496 162.548 17.1721C162.548 15.7945 163.668 14.6743 165.045 14.6743H220.893C222.269 14.6743 223.389 15.7945 223.389 17.1721C223.389 18.5496 222.269 19.6698 220.893 19.6698Z" fill="#E6E6E6"/>
<path d="M164.109 65.8784C163.592 65.8784 163.172 66.2986 163.172 66.8151C163.172 67.0669 163.27 67.2999 163.446 67.4718C163.624 67.6542 163.857 67.7517 164.109 67.7517H304.219C304.736 67.7517 305.156 67.3316 305.156 66.8151C305.156 66.5632 305.058 66.3303 304.882 66.1583C304.704 65.976 304.471 65.8784 304.219 65.8784H164.109Z" fill="#E6E6E6"/>
<path d="M238.681 65.5664V68.0642H164.108C163.765 68.0642 163.453 67.9268 163.228 67.6957C162.997 67.4709 162.86 67.1587 162.86 66.8153C162.86 66.1284 163.422 65.5664 164.108 65.5664H238.681Z" fill="#46BFB0"/>
<path d="M302.659 60.8832H290.175C288.799 60.8832 287.679 59.763 287.679 58.3855C287.679 57.0079 288.799 55.8877 290.175 55.8877H302.659C304.035 55.8877 305.155 57.0079 305.155 58.3855C305.155 59.763 304.035 60.8832 302.659 60.8832Z" fill="#E6E6E6"/>
</g>
<defs>
<clipPath id="clip0_506_2672">
<rect width="377" height="382" fill="white"/>
</clipPath>
</defs>
</svg>
