<svg width="361" height="389" viewBox="0 0 361 389" fill="none" xmlns="http://www.w3.org/2000/svg">
<g clip-path="url(#clip0_457_1629)">
<path d="M228.993 220.706L72.9456 260.948C67.6523 262.307 62.037 261.507 57.3316 258.725C52.6261 255.943 49.2149 251.405 47.8462 246.107L0.65348 62.575C-0.703233 57.274 0.0951163 51.6505 2.87339 46.9382C5.65166 42.226 10.183 38.8098 15.4732 37.4391L160.65 0L197.808 16.6588L243.812 195.57C245.169 200.871 244.371 206.494 241.593 211.207C238.814 215.919 234.283 219.335 228.993 220.706Z" fill="#F2F2F2"/>
<path d="M16.953 43.1933C13.1857 44.1693 9.95891 46.6021 7.98044 49.9578C6.00197 53.3135 5.43345 57.3181 6.3996 61.0931L53.5924 244.625C54.567 248.398 56.9962 251.629 60.347 253.611C63.6979 255.592 67.6967 256.161 71.4661 255.194L227.513 214.951C231.281 213.975 234.507 211.542 236.486 208.187C238.464 204.831 239.033 200.826 238.067 197.051L192.775 20.9126L160.12 6.27246L16.953 43.1933Z" fill="white"/>
<path d="M197.412 17.6056L173.261 23.8336C171.498 24.2883 169.627 24.0229 168.059 23.096C166.492 22.169 165.356 20.6563 164.902 18.8907L160.308 1.02752C160.288 0.949311 160.291 0.867013 160.315 0.790061C160.34 0.713109 160.385 0.644619 160.447 0.592442C160.508 0.540266 160.583 0.506516 160.663 0.495065C160.743 0.483613 160.824 0.494922 160.898 0.527696L197.479 16.7968C197.56 16.833 197.628 16.8937 197.674 16.9704C197.719 17.0472 197.739 17.1362 197.732 17.2251C197.725 17.314 197.69 17.3984 197.632 17.4665C197.575 17.5347 197.498 17.5833 197.412 17.6056Z" fill="#F2F2F2"/>
<path d="M184.706 174.338L113.66 192.66C113.224 192.773 112.769 192.798 112.323 192.735C111.877 192.671 111.447 192.521 111.059 192.291C110.671 192.062 110.332 191.758 110.061 191.397C109.79 191.036 109.593 190.626 109.48 190.189C109.368 189.751 109.343 189.296 109.406 188.849C109.469 188.403 109.62 187.972 109.849 187.584C110.078 187.195 110.381 186.855 110.742 186.584C111.102 186.313 111.512 186.115 111.948 186.003L182.994 167.681C183.431 167.568 183.885 167.543 184.332 167.606C184.778 167.67 185.207 167.82 185.595 168.05C185.984 168.279 186.323 168.583 186.594 168.944C186.865 169.305 187.062 169.715 187.174 170.152C187.287 170.589 187.312 171.044 187.249 171.491C187.186 171.938 187.035 172.368 186.806 172.757C186.577 173.146 186.273 173.485 185.913 173.757C185.553 174.028 185.143 174.226 184.706 174.338Z" fill="#CCCCCC"/>
<path d="M201.306 182.036L116.549 203.894C115.667 204.121 114.732 203.988 113.948 203.525C113.164 203.061 112.596 202.305 112.369 201.422C112.142 200.539 112.275 199.603 112.737 198.818C113.2 198.033 113.956 197.464 114.837 197.237L199.594 175.379C200.475 175.152 201.41 175.286 202.193 175.749C202.976 176.213 203.544 176.969 203.771 177.851C203.997 178.733 203.865 179.67 203.403 180.455C202.941 181.239 202.186 181.808 201.306 182.036Z" fill="#CCCCCC"/>
<path d="M84.6633 214.727C91.3631 214.727 96.7943 209.287 96.7943 202.578C96.7943 195.868 91.3631 190.429 84.6633 190.429C77.9635 190.429 72.5322 195.868 72.5322 202.578C72.5322 209.287 77.9635 214.727 84.6633 214.727Z" fill="#E6E6E6"/>
<path d="M177.152 142.544L82.7958 166.868C80.0688 167.568 77.1761 167.156 74.7523 165.722C72.3284 164.289 70.5713 161.951 69.8665 159.222L50.0929 82.2939C49.3942 79.563 49.8057 76.6661 51.2372 74.2387C52.6686 71.8113 55.0031 70.0517 57.7284 69.3458L152.085 45.0216C154.812 44.3219 157.704 44.734 160.128 46.1676C162.552 47.6011 164.309 49.939 165.014 52.6683L184.788 129.596C185.486 132.327 185.075 135.224 183.643 137.651C182.212 140.079 179.877 141.838 177.152 142.544Z" fill="white"/>
<path d="M177.152 142.544L82.7958 166.868C80.0688 167.568 77.1761 167.156 74.7523 165.722C72.3284 164.289 70.5713 161.951 69.8665 159.222L50.0929 82.2939C49.3942 79.563 49.8057 76.6661 51.2372 74.2387C52.6686 71.8113 55.0031 70.0517 57.7284 69.3458L152.085 45.0216C154.812 44.3219 157.704 44.734 160.128 46.1676C162.552 47.6011 164.309 49.939 165.014 52.6683L184.788 129.596C185.486 132.327 185.075 135.224 183.643 137.651C182.212 140.079 179.877 141.838 177.152 142.544ZM58.0399 70.5573C55.6352 71.1801 53.5753 72.7327 52.3123 74.8746C51.0493 77.0164 50.6861 79.5725 51.3026 81.9821L71.0762 158.91C71.6981 161.318 73.2485 163.381 75.3872 164.646C77.5259 165.911 80.0783 166.274 82.4844 165.657L176.841 141.333C179.245 140.71 181.305 139.157 182.568 137.015C183.831 134.874 184.194 132.317 183.578 129.908L163.804 52.9801C163.182 50.5719 161.632 48.5091 159.493 47.2442C157.355 45.9793 154.802 45.6157 152.396 46.2331L58.0399 70.5573Z" fill="#E6E6E6"/>
<path d="M147.298 70.8877L99.6772 83.1638C99.2609 83.2802 98.816 83.2339 98.4324 83.0344C98.0488 82.8349 97.7552 82.4969 97.6108 82.0889C97.5437 81.8757 97.5206 81.6511 97.5429 81.4287C97.5653 81.2063 97.6327 80.9908 97.741 80.7954C97.8493 80.5999 97.9962 80.4286 98.1728 80.2919C98.3494 80.1552 98.5519 80.056 98.7681 80.0002L147.243 67.5039C149.201 68.4975 148.686 70.5297 147.298 70.8877Z" fill="#F2F2F2"/>
<path d="M149.448 79.2524L101.828 91.5285C101.411 91.6449 100.966 91.5987 100.583 91.3991C100.199 91.1996 99.9055 90.8616 99.7612 90.4536C99.694 90.2405 99.671 90.0158 99.6933 89.7934C99.7157 89.571 99.7831 89.3556 99.8914 89.1601C99.9997 88.9647 100.147 88.7933 100.323 88.6566C100.5 88.5199 100.702 88.4207 100.918 88.365L149.393 75.8687C151.351 76.8623 150.836 78.8944 149.448 79.2524Z" fill="#F2F2F2"/>
<path d="M92.7575 98.9455L78.2242 102.692C77.7495 102.814 77.246 102.742 76.8241 102.493C76.4022 102.243 76.0964 101.836 75.9737 101.361L71.5589 84.1856C71.4372 83.7103 71.5089 83.206 71.758 82.7835C72.0072 82.361 72.4136 82.0547 72.888 81.9319L87.4212 78.1853C87.8959 78.0637 88.3993 78.1355 88.8212 78.385C89.2431 78.6345 89.5489 79.0413 89.6717 79.5163L94.0865 96.6918C94.2082 97.1671 94.1366 97.6714 93.8874 98.0939C93.6382 98.5165 93.2319 98.8227 92.7575 98.9455Z" fill="#E6E6E6"/>
<path d="M153.712 96.4162L81.0346 115.152C80.6183 115.268 80.1734 115.222 79.7898 115.022C79.4062 114.823 79.1126 114.485 78.9683 114.077C78.9011 113.864 78.878 113.639 78.9004 113.417C78.9227 113.194 78.9901 112.979 79.0984 112.783C79.2067 112.588 79.3536 112.417 79.5302 112.28C79.7068 112.143 79.9093 112.044 80.1255 111.988L153.658 93.0322C155.616 94.0259 155.101 96.0582 153.712 96.4162Z" fill="#F2F2F2"/>
<path d="M155.862 104.783L83.185 123.519C82.7687 123.635 82.3238 123.589 81.9402 123.39C81.5566 123.19 81.263 122.852 81.1187 122.444C81.0515 122.231 81.0284 122.006 81.0508 121.784C81.0731 121.561 81.1405 121.346 81.2488 121.151C81.3571 120.955 81.504 120.784 81.6806 120.647C81.8572 120.51 82.0597 120.411 82.2759 120.355L155.808 101.399C157.766 102.393 157.251 104.425 155.862 104.783Z" fill="#F2F2F2"/>
<path d="M158.012 113.146L85.3344 131.881C84.9181 131.998 84.4732 131.951 84.0896 131.752C83.706 131.552 83.4124 131.214 83.2681 130.806C83.2009 130.593 83.1778 130.369 83.2002 130.146C83.2226 129.924 83.2899 129.708 83.3982 129.513C83.5065 129.317 83.6534 129.146 83.83 129.009C84.0066 128.873 84.2091 128.773 84.4253 128.718L157.958 109.762C159.916 110.755 159.4 112.788 158.012 113.146Z" fill="#F2F2F2"/>
<path d="M160.163 121.512L87.4853 140.248C87.069 140.364 86.6241 140.318 86.2405 140.119C85.8569 139.919 85.5633 139.581 85.4189 139.173C85.3518 138.96 85.3287 138.735 85.3511 138.513C85.3734 138.29 85.4408 138.075 85.5491 137.879C85.6574 137.684 85.8043 137.513 85.9809 137.376C86.1575 137.239 86.36 137.14 86.5762 137.084L160.108 118.128C162.067 119.122 161.551 121.154 160.163 121.512Z" fill="#F2F2F2"/>
<path d="M162.312 129.875L89.6347 148.611C89.2184 148.727 88.7735 148.681 88.3899 148.481C88.0063 148.282 87.7127 147.944 87.5683 147.536C87.5012 147.323 87.4781 147.098 87.5005 146.876C87.5229 146.653 87.5902 146.438 87.6985 146.242C87.8068 146.047 87.9537 145.876 88.1303 145.739C88.3069 145.602 88.5094 145.503 88.7256 145.447L162.258 126.491C164.216 127.485 163.701 129.517 162.312 129.875Z" fill="#F2F2F2"/>
<path d="M85.5581 206.836C85.294 206.905 85.0147 206.886 84.7624 206.781L84.7468 206.775L81.442 205.372C81.2886 205.307 81.1496 205.212 81.0328 205.093C80.916 204.974 80.8237 204.834 80.7613 204.679C80.6989 204.524 80.6675 204.359 80.669 204.192C80.6705 204.025 80.7048 203.86 80.77 203.707C80.8351 203.553 80.9299 203.414 81.0488 203.298C81.1677 203.181 81.3084 203.089 81.4629 203.026C81.6174 202.964 81.7827 202.933 81.9492 202.935C82.1158 202.936 82.2803 202.971 82.4335 203.037L84.5749 203.949L87.381 197.338C87.4461 197.185 87.5407 197.046 87.6594 196.929C87.7781 196.812 87.9186 196.72 88.0728 196.658C88.227 196.596 88.392 196.564 88.5583 196.566C88.7246 196.568 88.889 196.602 89.042 196.667L89.0256 196.71L89.0432 196.667C89.352 196.799 89.596 197.048 89.7216 197.36C89.8472 197.672 89.844 198.021 89.7129 198.331L86.4115 206.104C86.335 206.283 86.2182 206.442 86.0704 206.569C85.9225 206.696 85.7475 206.787 85.5588 206.835L85.5581 206.836Z" fill="white"/>
<path d="M288.846 290.645H127.708C122.244 290.639 117.005 288.462 113.141 284.593C109.277 280.723 107.104 275.477 107.098 270.004V80.485C107.104 75.0126 109.277 69.7661 113.141 65.8966C117.005 62.027 122.244 59.8504 127.708 59.8442H277.621L309.457 85.2567V270.004C309.451 275.477 307.277 280.723 303.414 284.593C299.55 288.462 294.311 290.639 288.846 290.645Z" fill="#E6E6E6"/>
<path d="M127.708 65.7861C123.817 65.7905 120.086 67.3405 117.334 70.0961C114.583 72.8517 113.035 76.5878 113.031 80.4848V270.004C113.035 273.901 114.583 277.637 117.334 280.393C120.086 283.149 123.817 284.699 127.708 284.703H288.846C292.737 284.699 296.468 283.149 299.22 280.393C301.971 277.637 303.519 273.901 303.523 270.004V88.1191L275.545 65.7861H127.708Z" fill="white"/>
<path d="M257.505 120.893H184.141C183.231 120.893 182.358 120.531 181.714 119.886C181.071 119.242 180.709 118.367 180.709 117.456C180.709 116.544 181.071 115.67 181.714 115.025C182.358 114.381 183.231 114.019 184.141 114.019H257.505C258.415 114.019 259.288 114.381 259.932 115.025C260.576 115.67 260.937 116.544 260.937 117.456C260.937 118.367 260.576 119.242 259.932 119.886C259.288 120.531 258.415 120.893 257.505 120.893Z" fill="#38C3B3"/>
<path d="M271.663 132.494H184.141C183.232 132.493 182.36 132.13 181.717 131.486C181.074 130.841 180.713 129.968 180.713 129.057C180.713 128.146 181.074 127.272 181.717 126.628C182.36 125.984 183.232 125.621 184.141 125.62H271.663C272.114 125.619 272.561 125.707 272.978 125.88C273.395 126.052 273.774 126.305 274.093 126.625C274.412 126.944 274.665 127.323 274.838 127.74C275.011 128.158 275.1 128.605 275.1 129.057C275.1 129.509 275.011 129.956 274.838 130.373C274.665 130.791 274.412 131.17 274.093 131.489C273.774 131.808 273.395 132.061 272.978 132.234C272.561 132.406 272.114 132.495 271.663 132.494Z" fill="#38C3B3"/>
<path d="M257.505 166.005H184.144C183.234 166.005 182.361 166.367 181.717 167.012C181.073 167.656 180.712 168.53 180.712 169.442C180.712 170.353 181.073 171.228 181.717 171.872C182.361 172.517 183.234 172.879 184.144 172.879H257.505C258.416 172.879 259.289 172.517 259.932 171.872C260.576 171.228 260.937 170.353 260.937 169.442C260.937 168.53 260.576 167.656 259.932 167.012C259.289 166.367 258.416 166.005 257.505 166.005Z" fill="#CCCCCC"/>
<path d="M271.664 177.607H184.144C183.234 177.607 182.361 177.97 181.717 178.614C181.073 179.259 180.712 180.133 180.712 181.044C180.712 181.956 181.073 182.83 181.717 183.475C182.361 184.119 183.234 184.481 184.144 184.481H271.664C272.574 184.481 273.447 184.119 274.091 183.475C274.735 182.83 275.096 181.956 275.096 181.044C275.096 180.133 274.735 179.259 274.091 178.614C273.447 177.97 272.574 177.607 271.664 177.607Z" fill="#CCCCCC"/>
<path d="M257.505 224.87H184.141C183.231 224.87 182.358 224.507 181.714 223.863C181.071 223.218 180.709 222.344 180.709 221.432C180.709 220.521 181.071 219.646 181.714 219.002C182.358 218.357 183.231 217.995 184.141 217.995H257.505C258.415 217.995 259.288 218.357 259.932 219.002C260.576 219.646 260.937 220.521 260.937 221.432C260.937 222.344 260.576 223.218 259.932 223.863C259.288 224.507 258.415 224.87 257.505 224.87Z" fill="#CCCCCC"/>
<path d="M271.663 236.47H184.141C183.232 236.469 182.36 236.106 181.717 235.462C181.074 234.817 180.713 233.944 180.713 233.033C180.713 232.122 181.074 231.249 181.717 230.604C182.36 229.96 183.232 229.597 184.141 229.596H271.663C272.114 229.595 272.561 229.684 272.978 229.856C273.395 230.028 273.774 230.282 274.093 230.601C274.412 230.92 274.665 231.299 274.838 231.717C275.011 232.134 275.1 232.581 275.1 233.033C275.1 233.485 275.011 233.932 274.838 234.349C274.665 234.767 274.412 235.146 274.093 235.465C273.774 235.784 273.395 236.037 272.978 236.21C272.561 236.382 272.114 236.471 271.663 236.47Z" fill="#CCCCCC"/>
<path d="M153.591 135.405C160.29 135.405 165.722 129.966 165.722 123.256C165.722 116.547 160.29 111.107 153.591 111.107C146.891 111.107 141.459 116.547 141.459 123.256C141.459 129.966 146.891 135.405 153.591 135.405Z" fill="#38C3B3"/>
<path d="M152.388 127.891C152.115 127.891 151.85 127.803 151.631 127.639L151.618 127.628L148.767 125.444C148.634 125.343 148.523 125.217 148.44 125.072C148.356 124.928 148.302 124.769 148.28 124.603C148.258 124.438 148.268 124.27 148.311 124.109C148.354 123.947 148.429 123.796 148.53 123.664C148.631 123.531 148.758 123.42 148.902 123.337C149.046 123.254 149.206 123.199 149.371 123.178C149.536 123.156 149.704 123.167 149.865 123.211C150.026 123.254 150.176 123.329 150.308 123.431L152.155 124.849L156.519 119.147C156.62 119.015 156.746 118.904 156.89 118.821C157.034 118.738 157.193 118.684 157.358 118.662C157.523 118.64 157.69 118.651 157.851 118.694C158.012 118.737 158.162 118.811 158.294 118.913L158.268 118.951L158.295 118.913C158.562 119.118 158.736 119.42 158.78 119.754C158.824 120.087 158.734 120.424 158.53 120.691L153.397 127.394C153.278 127.549 153.126 127.674 152.951 127.759C152.776 127.845 152.584 127.89 152.389 127.889L152.388 127.891Z" fill="white"/>
<path d="M166.968 175.243C166.969 176.839 166.656 178.419 166.046 179.893C165.437 181.368 164.544 182.707 163.417 183.836C162.291 184.964 160.954 185.86 159.482 186.471C158.01 187.082 156.432 187.396 154.839 187.396C154.735 187.398 154.631 187.394 154.527 187.384C152.142 187.323 149.827 186.558 147.874 185.186C145.92 183.814 144.414 181.896 143.543 179.671C142.673 177.446 142.477 175.014 142.98 172.678C143.484 170.342 144.663 168.207 146.372 166.539C148.081 164.872 150.243 163.746 152.588 163.303C154.933 162.859 157.356 163.119 159.554 164.048C161.752 164.977 163.628 166.534 164.947 168.526C166.266 170.517 166.969 172.854 166.968 175.243Z" fill="#CCCCCC"/>
<path d="M153.591 239.381C160.29 239.381 165.722 233.942 165.722 227.233C165.722 220.523 160.29 215.084 153.591 215.084C146.891 215.084 141.459 220.523 141.459 227.233C141.459 233.942 146.891 239.381 153.591 239.381Z" fill="#CCCCCC"/>
<path d="M308.837 86.0743H283.899C282.079 86.0743 280.333 85.35 279.045 84.0608C277.758 82.7716 277.035 81.023 277.035 79.1998V60.7539C277.035 60.6731 277.057 60.594 277.1 60.5256C277.143 60.4572 277.204 60.4022 277.277 60.3671C277.35 60.3319 277.431 60.318 277.511 60.3268C277.591 60.3357 277.667 60.3669 277.73 60.4171L309.104 85.3078C309.174 85.3632 309.225 85.439 309.249 85.5247C309.274 85.6103 309.272 85.7016 309.243 85.7859C309.213 85.8701 309.159 85.9432 309.086 85.9948C309.013 86.0465 308.927 86.0743 308.837 86.0743Z" fill="#CCCCCC"/>
<path d="M166.968 175.244C166.969 176.839 166.655 178.419 166.046 179.894C165.437 181.368 164.544 182.708 163.417 183.836C162.291 184.965 160.954 185.86 159.482 186.471C158.01 187.082 156.432 187.396 154.839 187.397C154.735 187.399 154.631 187.394 154.527 187.384C152.96 183.469 152.355 179.235 152.765 175.037C153.175 170.84 154.587 166.802 156.881 163.266C159.703 163.75 162.263 165.218 164.109 167.41C165.955 169.602 166.968 172.376 166.968 175.244Z" fill="#38C3B3"/>
<path d="M180.709 169.445C180.711 168.533 181.073 167.659 181.717 167.014C182.361 166.369 183.234 166.007 184.144 166.005H202.425C203.493 168.18 204.252 170.494 204.68 172.879H184.144C183.234 172.879 182.362 172.517 181.718 171.873C181.074 171.23 180.711 170.356 180.709 169.445Z" fill="#38C3B3"/>
<path d="M205.104 177.607C205.106 179.929 204.799 182.241 204.193 184.481H184.144C183.234 184.481 182.361 184.119 181.717 183.475C181.073 182.83 180.712 181.956 180.712 181.044C180.712 180.133 181.073 179.259 181.717 178.614C182.361 177.97 183.234 177.607 184.144 177.607H205.104Z" fill="#38C3B3"/>
<path d="M250.336 220.001C249.819 220.85 248.985 221.459 248.019 221.694C247.053 221.928 246.034 221.769 245.186 221.25L201.463 194.542C201.043 194.286 200.677 193.949 200.387 193.55C200.097 193.152 199.888 192.701 199.772 192.222C199.656 191.743 199.636 191.246 199.712 190.759C199.788 190.272 199.959 189.805 200.215 189.384C200.471 188.963 200.808 188.597 201.205 188.307C201.603 188.016 202.054 187.807 202.532 187.691C203.01 187.575 203.507 187.554 203.993 187.63C204.479 187.707 204.946 187.878 205.366 188.134L249.088 214.842C249.937 215.361 250.545 216.195 250.779 217.163C251.013 218.13 250.854 219.151 250.336 220.001Z" fill="#3F3D56"/>
<path d="M206.614 193.293C203.526 198.362 199.007 202.401 193.628 204.898C188.248 207.395 182.25 208.238 176.392 207.322C170.533 206.405 165.078 203.769 160.716 199.747C156.354 195.726 153.28 190.499 151.884 184.728C150.488 178.957 150.832 172.901 152.873 167.325C154.913 161.75 158.559 156.906 163.349 153.406C168.139 149.906 173.857 147.907 179.781 147.661C185.706 147.416 191.569 148.935 196.631 152.028C203.412 156.18 208.271 162.857 210.143 170.593C212.014 178.329 210.745 186.492 206.614 193.293ZM161.825 165.933C159.509 169.735 158.371 174.139 158.555 178.589C158.739 183.039 160.236 187.334 162.857 190.932C165.479 194.529 169.106 197.267 173.282 198.8C177.457 200.333 181.992 200.591 186.314 199.543C190.636 198.494 194.551 196.186 197.562 192.909C200.574 189.633 202.548 185.535 203.235 181.135C203.922 176.735 203.29 172.23 201.42 168.189C199.55 164.149 196.525 160.754 192.729 158.435C187.636 155.332 181.522 154.379 175.729 155.785C169.935 157.19 164.935 160.84 161.825 165.933Z" fill="#3F3D56"/>
<path d="M302.667 182.473C311.139 182.473 318.007 175.595 318.007 167.11C318.007 158.626 311.139 151.748 302.667 151.748C294.195 151.748 287.327 158.626 287.327 167.11C287.327 175.595 294.195 182.473 302.667 182.473Z" fill="#A0616A"/>
<path d="M301.675 253.233C301.38 252.31 301.282 251.334 301.389 250.371C301.495 249.407 301.804 248.477 302.295 247.642C302.786 246.806 303.447 246.083 304.236 245.522C305.025 244.96 305.924 244.571 306.873 244.382C307.174 244.323 307.479 244.285 307.785 244.269L323.943 218.297L309.183 204.245C308.619 203.708 308.167 203.064 307.853 202.352C307.539 201.639 307.368 200.87 307.352 200.091C307.336 199.312 307.474 198.538 307.759 197.812C308.043 197.087 308.468 196.425 309.01 195.865C309.551 195.306 310.197 194.859 310.912 194.55C311.627 194.242 312.395 194.079 313.173 194.07C313.952 194.061 314.724 194.206 315.445 194.498C316.167 194.789 316.824 195.221 317.378 195.768L337.757 215.892L337.798 215.942C338.429 216.903 338.733 218.041 338.666 219.189C338.599 220.336 338.165 221.432 337.427 222.312L314.786 249.128C314.854 249.343 314.91 249.562 314.955 249.782C315.144 250.733 315.131 251.713 314.916 252.659C314.7 253.604 314.288 254.493 313.706 255.268C313.123 256.042 312.384 256.685 311.537 257.153C310.689 257.622 309.752 257.906 308.787 257.986C308.592 258.003 308.398 258.012 308.205 258.012C306.753 258.006 305.34 257.54 304.167 256.682C302.994 255.824 302.122 254.617 301.675 253.233Z" fill="#A0616A"/>
<path d="M277.402 380.916L269.745 380.915L266.102 351.338L277.403 351.339L277.402 380.916Z" fill="#A0616A"/>
<path d="M279.354 388.349L254.665 388.348V388.035C254.665 386.772 254.914 385.52 255.396 384.352C255.879 383.185 256.587 382.124 257.48 381.23C258.372 380.337 259.431 379.628 260.597 379.144C261.763 378.661 263.013 378.412 264.275 378.412L279.355 378.412L279.354 388.349Z" fill="#2F2E41"/>
<path d="M353.509 370.314L346.929 374.237L328.689 350.69L338.399 344.9L353.509 370.314Z" fill="#A0616A"/>
<path d="M358.984 375.7L337.77 388.349L337.61 388.08C336.964 386.994 336.538 385.792 336.357 384.541C336.175 383.29 336.241 382.016 336.552 380.791C336.862 379.566 337.41 378.414 338.165 377.401C338.919 376.388 339.866 375.534 340.95 374.888L353.907 367.162L358.984 375.7Z" fill="#2F2E41"/>
<path d="M265.136 367.89C260.007 307.402 256.955 251.21 275.706 228.288L275.851 228.11L307.408 240.751L307.46 240.864C307.566 241.096 318.061 264.215 315.613 279.765L323.397 315.623L348.777 358.181C348.981 358.524 349.11 358.906 349.156 359.302C349.201 359.699 349.162 360.1 349.041 360.48C348.92 360.86 348.72 361.211 348.453 361.507C348.187 361.804 347.861 362.041 347.496 362.201L336.467 367.061C335.844 367.332 335.145 367.37 334.497 367.167C333.849 366.964 333.296 366.535 332.939 365.957L305.33 320.872L289.736 286.292C289.652 286.104 289.507 285.95 289.326 285.852C289.145 285.755 288.937 285.719 288.734 285.752C288.531 285.785 288.344 285.883 288.203 286.033C288.061 286.182 287.973 286.374 287.951 286.579L279.307 367.952C279.234 368.643 278.909 369.283 278.392 369.748C277.876 370.213 277.206 370.47 276.512 370.469H267.938C267.234 370.465 266.557 370.198 266.039 369.721C265.521 369.245 265.199 368.592 265.136 367.89Z" fill="#2F2E41"/>
<path d="M275.813 228.767L275.662 228.695L275.639 228.53C274.46 220.267 275.855 211.087 279.786 201.243C281.723 196.426 285.324 192.466 289.933 190.084C294.542 187.703 299.851 187.059 304.895 188.269C307.8 188.986 310.524 190.299 312.896 192.126C315.268 193.952 317.235 196.252 318.673 198.88C320.092 201.48 320.957 204.348 321.212 207.301C321.467 210.253 321.107 213.227 320.155 216.033C315.2 230.544 308.772 244.122 308.707 244.257L308.573 244.541L275.813 228.767Z" fill="#38C3B3"/>
<path d="M241.383 208.187C242.143 207.586 243.021 207.153 243.96 206.916C244.898 206.678 245.876 206.643 246.83 206.81C247.783 206.978 248.691 207.346 249.492 207.889C250.294 208.432 250.972 209.139 251.482 209.963C251.643 210.225 251.784 210.497 251.906 210.779L281.857 216.841L289.832 198.075C290.136 197.357 290.58 196.708 291.136 196.164C291.693 195.619 292.352 195.19 293.075 194.903C293.798 194.615 294.571 194.473 295.349 194.486C296.127 194.498 296.895 194.666 297.608 194.977C298.321 195.289 298.966 195.739 299.504 196.301C300.043 196.864 300.465 197.528 300.746 198.254C301.027 198.981 301.161 199.756 301.141 200.535C301.121 201.314 300.948 202.082 300.63 202.793L288.944 228.957L288.912 229.013C288.234 229.941 287.276 230.625 286.179 230.964C285.082 231.303 283.906 231.279 282.824 230.895L249.814 219.048C249.636 219.187 249.452 219.316 249.261 219.436C248.438 219.946 247.516 220.277 246.557 220.406C245.597 220.535 244.621 220.46 243.693 220.185C242.765 219.91 241.905 219.441 241.17 218.81C240.435 218.179 239.841 217.4 239.428 216.523C239.343 216.346 239.267 216.167 239.2 215.986C238.697 214.621 238.637 213.133 239.029 211.732C239.421 210.332 240.245 209.091 241.383 208.187Z" fill="#A0616A"/>
<path d="M358.083 183.562C356.606 180.94 354.453 178.538 351.607 177.569C347.932 176.318 343.952 177.65 340.173 178.54C337.262 179.226 334.22 179.645 331.285 179.067C328.351 178.488 325.52 176.778 324.185 174.098C322.221 170.155 323.876 165.453 323.756 161.049C323.695 158.651 323.09 156.299 321.989 154.169C320.888 152.039 319.318 150.187 317.398 148.753C315.479 147.319 313.259 146.34 310.906 145.89C308.554 145.44 306.13 145.531 303.818 146.156C300.199 145.11 296.923 145.013 294.685 147.799C291.869 147.799 289.168 148.919 287.177 150.913C285.186 152.908 284.067 155.612 284.067 158.432H294.22C293.739 161.025 294.289 163.703 295.753 165.895C297.545 168.532 300.661 170.439 301.261 173.572C301.843 176.608 299.782 179.488 297.621 181.695C295.459 183.901 292.952 186.088 292.277 189.104C291.864 191.394 292.333 193.756 293.591 195.712C294.846 197.645 296.404 199.363 298.204 200.801C306.314 207.759 315.953 212.697 326.333 215.212C333.643 216.975 341.638 217.432 348.425 214.189C351.139 212.892 353.558 211.05 355.532 208.777C357.506 206.504 358.992 203.849 359.898 200.977C360.803 198.104 361.11 195.076 360.798 192.08C360.486 189.085 359.562 186.185 358.083 183.562Z" fill="#2F2E41"/>
<path d="M360.376 389H241.708C241.542 389 241.384 388.934 241.266 388.817C241.149 388.699 241.083 388.54 241.083 388.375C241.083 388.209 241.149 388.05 241.266 387.932C241.384 387.815 241.542 387.749 241.708 387.749H360.376C360.541 387.749 360.7 387.815 360.817 387.932C360.934 388.05 361 388.209 361 388.375C361 388.54 360.934 388.699 360.817 388.817C360.7 388.934 360.541 389 360.376 389Z" fill="#CCCCCC"/>
</g>
<defs>
<clipPath id="clip0_457_1629">
<rect width="361" height="389" fill="white"/>
</clipPath>
</defs>
</svg>
