<svg width="450" height="333" viewBox="0 0 450 333" fill="none" xmlns="http://www.w3.org/2000/svg">
<g clip-path="url(#clip0_150_976)">
<path d="M407.476 331.458H312.06V328.533C312.06 325.993 313.07 323.558 314.868 321.762C316.665 319.966 319.103 318.958 321.646 318.958H397.89C400.432 318.958 402.87 319.966 404.668 321.762C406.466 323.558 407.476 325.993 407.476 328.533V331.458Z" fill="#E6E6E6"/>
<path d="M357.535 319.541L360.437 318.373C330.076 243.092 333.001 148.118 358.665 66.6473C361.714 57.2077 361.934 47.0838 359.298 37.521C356.662 27.9583 351.285 19.3739 343.829 12.8239C328.933 -0.455645 308.396 -3.69065 290.23 4.38044C272.299 12.3485 269.827 26.2278 269.827 40.0394H272.956C272.956 25.2961 276.109 14.0755 291.502 7.23586C308.527 -0.328228 327.78 2.70573 341.746 15.1559C348.749 21.3077 353.8 29.3705 356.275 38.3522C358.751 47.334 358.545 56.8428 355.681 65.7088C329.721 148.12 326.967 243.746 357.535 319.541Z" fill="#E6E6E6"/>
<path d="M272.173 86.1347C278.221 86.1347 283.123 81.2376 283.123 75.1967C283.123 69.1559 278.221 64.2588 272.173 64.2588C266.126 64.2588 261.224 69.1559 261.224 75.1967C261.224 81.2376 266.126 86.1347 272.173 86.1347Z" fill="#E6E6E6"/>
<path d="M255.311 94.2648V73.54H258.536V94.2648C259.462 94.6388 260.228 95.3225 260.704 96.199C261.18 97.0754 261.336 98.09 261.146 99.0688C260.955 100.048 260.429 100.93 259.659 101.564C258.889 102.198 257.922 102.545 256.924 102.545C255.925 102.545 254.958 102.198 254.188 101.564C253.418 100.93 252.892 100.048 252.702 99.0688C252.511 98.09 252.667 97.0754 253.143 96.199C253.619 95.3225 254.385 94.6388 255.311 94.2648Z" fill="#E6E6E6"/>
<path d="M239.717 57.6179C239.722 52.8538 241.619 48.2863 244.991 44.9176C248.363 41.5488 252.936 39.6539 257.705 39.6484H287.424C292.195 39.6484 296.77 41.5416 300.144 44.9116C303.517 48.2815 305.412 52.8521 305.412 57.6179C305.412 62.3837 303.517 66.9543 300.144 70.3243C296.77 73.6942 292.195 75.5874 287.424 75.5874H257.705C252.936 75.582 248.363 73.6871 244.991 70.3183C241.619 66.9495 239.722 62.3821 239.717 57.6179Z" fill="#00BFA6"/>
<path d="M197.843 168.897C200.827 130.76 216.083 112.59 206.314 101.196C196.957 90.2809 170.598 92.5356 153.67 103.009C108.012 131.258 91.2844 243.85 150.04 298.859C205.872 351.132 311.686 334.39 335.201 291.605C340.688 281.622 345.047 264.122 337.017 253.523C317.08 227.21 244.594 274.871 212.365 245.061C193.266 227.394 196.205 189.826 197.843 168.897Z" fill="#3F3D56"/>
<path d="M232.745 149.95C231.636 150.46 230.77 151.382 230.331 152.52C229.891 153.657 229.914 154.921 230.394 156.043C230.495 156.269 230.615 156.487 230.752 156.693L220.952 169.765L225.842 177.066L237.329 157.71C238.143 157.076 238.723 156.191 238.981 155.192C239.238 154.194 239.157 153.138 238.751 152.191C238.514 151.653 238.174 151.168 237.75 150.762C237.326 150.357 236.826 150.038 236.278 149.826C235.731 149.613 235.147 149.51 234.56 149.523C233.973 149.535 233.394 149.663 232.856 149.899C232.819 149.916 232.782 149.933 232.745 149.95Z" fill="#FFB6B6"/>
<path d="M232.737 172.488C233.378 173.056 231.599 173.757 229.717 172.651C229.179 172.33 228.949 172.197 228.888 172.282C228.737 172.494 229.621 174.053 229.385 177.517C229.239 179.584 225.802 183.471 221.899 187.261C216.623 192.387 210.487 197.332 210.487 197.332L208.333 195.609L185.745 177.517L181.932 172.246C182.281 170.164 182.806 168.116 183.5 166.123C184.455 163.363 185.591 160.67 186.9 158.059C187.602 156.638 188.322 155.284 189.012 154.039L201.114 167.362L211.256 178.52C211.256 178.52 214.209 173.769 216.496 172.476C216.788 172.289 217.119 172.176 217.464 172.143C219.776 172.034 219.915 170.777 217.234 168.039C214.554 165.3 217.936 167.857 220.32 167.12C222.704 166.382 220.32 167.12 220.822 165.276C221.325 163.433 228.011 159.733 228.011 159.733L228.289 159.981L233.342 164.436L234.788 165.712C234.788 165.712 233.209 170.04 232.773 170.952C232.337 171.865 232.102 171.913 232.737 172.488Z" fill="#00BFA6"/>
<path d="M365.93 256.459L366.177 249.792L340.55 245.67L340.186 255.51L365.93 256.459Z" fill="#FFB6B6"/>
<path d="M361.278 258.466L361.035 247.79L365.604 247.959L372.979 238.09C373.344 237.602 373.854 237.244 374.437 237.067C375.02 236.89 375.643 236.903 376.218 237.106C376.792 237.308 377.286 237.688 377.629 238.191C377.972 238.694 378.144 239.294 378.122 239.901L377.653 252.583L373.054 254.602L377.541 255.622L377.364 260.404L361.278 258.466Z" fill="#2F2E41"/>
<path d="M221.698 259.054L302.869 261.11C302.869 261.11 337.921 263.133 346.145 257.788L354.818 256.695L355.288 243.969C355.288 243.969 349.984 244.008 346.935 242.589C343.886 241.17 346.005 239.433 343.098 241.141C340.191 242.848 340.498 243.053 338.251 242.269C336.003 241.484 232.932 225.79 232.932 225.79L221.698 259.054Z" fill="#2F2E41"/>
<path d="M328.659 253.533L333.38 248.813L317.399 228.379L310.433 235.346L328.659 253.533Z" fill="#FFB6B6"/>
<path d="M323.883 249.426L330.973 241.435L334.207 244.662L346.333 242.438C346.932 242.328 347.551 242.412 348.098 242.678C348.646 242.944 349.094 243.378 349.377 243.917C349.66 244.455 349.764 245.07 349.673 245.672C349.581 246.273 349.3 246.829 348.87 247.26L339.892 256.238L335.145 254.594L337.741 258.39L334.356 261.776L323.883 249.426Z" fill="#2F2E41"/>
<path d="M189.674 214.647L190.481 233.385C191.431 255.445 215.75 268.796 234.607 257.278C234.955 257.066 235.304 256.846 235.653 256.618C235.653 256.618 242.802 254.701 242.585 251.663C242.368 248.626 244.115 247.148 245.66 247.976C247.206 248.805 267.442 220.116 267.442 220.116C267.442 220.116 309.485 241.066 318.76 245.998C318.76 245.998 327.481 232.377 326.848 232.52C326.216 232.663 274.836 196.738 274.836 196.738C274.836 196.738 266.465 188.276 256.082 193.863C255.865 194.684 256.05 194.713 256.05 194.713L221.75 222.632L216.904 213.438L189.674 214.647Z" fill="#2F2E41"/>
<path d="M222.014 191.22C221.949 192.086 221.826 192.946 221.645 193.796C221.398 195.025 221 196.218 220.459 197.35C220.459 197.35 220.459 198.613 218.039 202.845C215.618 207.076 218.644 205.262 220.459 208.406C222.275 211.543 220.459 210.098 218.444 212.117C217.864 212.705 217.452 213.437 217.251 214.237C217.05 215.038 217.067 215.877 217.301 216.669C217.301 216.669 191.305 216.687 186.464 214.874C181.624 213.06 180.522 202.845 184.861 201.835C189.193 200.826 183.548 199.822 181 197.495C178.453 195.168 183.548 191.36 183.548 191.36C183.548 191.36 181.448 187.739 181.624 175.583C181.648 174.465 181.752 173.35 181.932 172.246C182.281 170.164 182.806 168.116 183.499 166.123C184.455 163.363 185.591 160.67 186.9 158.059C187.602 156.638 188.322 155.284 189.012 154.039C189.121 153.846 189.224 153.658 189.333 153.471C190.646 151.15 191.844 149.252 192.637 148.037C193.248 147.094 193.617 146.562 193.617 146.562L198.022 138.909L212.726 145.794L211.891 157.056L214.426 165.548L215.594 169.459L216.496 172.476L217.888 177.148C217.888 177.148 217.506 177.166 217.96 177.789C220.05 180.565 221.405 183.823 221.899 187.261C222.074 188.573 222.112 189.9 222.014 191.22Z" fill="#00BFA6"/>
<path d="M264.478 192.434L264.202 192.345L229.009 181.024L241.977 138.522C242.235 137.676 242.683 136.899 243.285 136.25C243.887 135.602 244.629 135.098 245.455 134.778C246.281 134.457 247.168 134.328 248.051 134.4C248.934 134.472 249.789 134.744 250.551 135.194L273.041 148.467C274.821 149.517 276.176 151.158 276.868 153.104C277.56 155.05 277.545 157.177 276.827 159.113L264.478 192.434Z" fill="#2F2E41"/>
<path d="M264.621 195.136L229.144 183.724L242.113 141.222C242.371 140.376 242.818 139.599 243.421 138.951C244.023 138.302 244.765 137.799 245.591 137.478C246.416 137.158 247.304 137.028 248.187 137.1C249.069 137.172 249.924 137.444 250.687 137.894L274.251 149.646C277.791 151.735 277.708 157.141 276.064 161.577L264.621 195.136Z" fill="#00BFA6"/>
<path d="M261.069 198.213C260.252 198.673 259.348 198.959 258.415 199.051C257.481 199.144 256.539 199.042 255.647 198.751L232.971 191.456C231.232 190.889 229.783 189.664 228.935 188.043C228.087 186.423 227.907 184.536 228.433 182.785L239.802 145.527C240.029 144.782 240.403 144.091 240.901 143.492C241.399 142.894 242.012 142.401 242.703 142.043C243.395 141.684 244.151 141.468 244.927 141.405C245.704 141.342 246.485 141.435 247.225 141.678L270.724 149.385C271.844 149.753 272.878 150.34 273.767 151.114C274.655 151.887 275.38 152.83 275.897 153.888C276.415 154.946 276.715 156.096 276.779 157.272C276.844 158.447 276.673 159.624 276.275 160.732L264.119 194.585C263.574 196.122 262.49 197.41 261.069 198.213Z" fill="#3F3D56"/>
<path d="M211.895 139.04C220.865 139.04 228.136 131.776 228.136 122.815C228.136 113.855 220.865 106.591 211.895 106.591C202.925 106.591 195.653 113.855 195.653 122.815C195.653 131.776 202.925 139.04 211.895 139.04Z" fill="#FFB6B6"/>
<path d="M156.974 139.284C158.464 142.17 160.908 144.453 163.891 145.744C165.081 146.286 166.333 146.681 167.618 146.922C167.982 145.483 168.563 144.107 169.343 142.843C169.083 144.268 169.083 145.727 169.343 147.152C171.302 147.312 173.272 147.068 175.132 146.434C176.959 145.814 178.616 144.776 179.971 143.404C181.327 142.033 182.343 140.364 182.941 138.532C184.235 134.231 182.841 129.638 182.731 125.149C182.618 120.659 184.752 115.289 189.214 114.734C192.611 114.31 192.191 114.639 194.632 117.037C191.218 120.826 199.543 137.611 204.01 136.869C206.536 136.45 208.394 134.447 208.894 134.516C211.452 140.774 203.757 149.649 209.86 152.562L209.407 151.964C206.213 146.692 215.665 137.789 212.47 132.517C211.58 131.042 210.654 129.313 211.205 127.682C211.728 126.131 214.376 125.64 214.935 127.052C214.027 123.816 216.562 120.018 219.93 119.688C222.922 119.393 222.749 120.245 225.602 121.022C225.966 119.795 226.491 118.621 227.164 117.53C226.936 118.774 226.908 120.046 227.081 121.299C228.11 121.421 229.15 121.201 230.041 120.673C232.675 119.095 232.754 115.023 230.944 112.545C229.131 110.066 226.095 108.842 223.165 107.916C223.138 101.727 206.467 98.7637 203.401 104.518C203.086 99.8588 197.739 96.7203 193.134 97.5118C188.528 98.3032 184.895 101.992 182.68 106.104C180.465 110.213 179.366 114.813 177.744 119.19C176.123 123.566 173.805 127.93 169.923 130.527C166.041 133.12 160.271 133.355 157.03 129.994C156.291 131.429 155.901 133.018 155.891 134.632C155.881 136.246 156.252 137.84 156.974 139.284Z" fill="#2F2E41"/>
<path d="M173.639 213.479C173.975 213.211 174.339 212.98 174.726 212.791C180.943 209.7 200.275 201.678 215.391 202.007C244.476 202.64 281.49 234.706 272.876 256.239C266.321 272.624 233.733 281.946 209.945 274.49C176.62 264.045 163.466 221.582 173.639 213.479Z" fill="#3F3D56"/>
<path d="M52.8951 331.519C43.3913 329.728 34.9788 286.957 53.6772 265.891C60.0835 258.674 68.0746 255.533 78.7042 252.61C139.885 235.784 186.548 251.82 192.819 255.735C199.076 259.641 210.044 318.5 196.018 326.831C188.126 331.519 172.485 333.863 164.735 328.394C153.331 320.347 172.472 299.474 163.952 285.423C154.285 269.48 103.375 264.109 77.8512 279.955C50.6201 296.86 106.789 341.676 52.8951 331.519Z" fill="#F2F2F2"/>
<path d="M116.436 258.799H80.1282C71.1653 250.218 64.7569 241.948 69.8876 235.084C69.8876 233.11 70.6722 231.218 72.0689 229.823C73.4657 228.427 75.36 227.644 77.3353 227.644H119.229C121.204 227.644 123.099 228.427 124.495 229.823C125.892 231.218 126.677 233.11 126.677 235.084C128.63 242.905 125.14 250.811 116.436 258.799Z" fill="#CCCCCC"/>
<path d="M109.916 218.277C109.571 218.292 109.23 218.202 108.939 218.018C108.647 217.834 108.42 217.564 108.287 217.246C108.154 216.929 108.122 216.578 108.195 216.241C108.268 215.904 108.443 215.598 108.697 215.365L108.812 214.907C108.797 214.87 108.781 214.834 108.766 214.797C108.419 213.978 107.838 213.28 107.095 212.79C106.352 212.3 105.48 212.041 104.59 212.044C103.7 212.047 102.831 212.313 102.091 212.809C101.352 213.304 100.776 214.006 100.435 214.828C99.072 218.106 97.3371 221.39 96.9099 224.857C96.7218 226.389 96.8011 227.942 97.1445 229.448C93.944 222.473 92.282 214.893 92.2713 207.221C92.2707 205.296 92.3777 203.372 92.5921 201.459C92.7692 199.89 93.0149 198.333 93.3293 196.787C95.0447 188.397 98.7277 180.534 104.076 173.843C106.664 172.432 108.758 170.262 110.074 167.626C110.551 166.679 110.888 165.667 111.074 164.623C110.782 164.661 109.973 160.219 110.194 159.946C109.787 159.33 109.058 159.023 108.614 158.421C106.404 155.427 103.358 155.95 101.769 160.018C98.3726 161.73 98.3397 164.57 100.423 167.301C101.749 169.039 101.931 171.39 103.095 173.25C102.975 173.403 102.85 173.551 102.731 173.704C100.543 176.514 98.6365 179.532 97.0381 182.713C97.4268 179.149 96.9628 175.543 95.6844 172.193C94.3888 169.071 91.9603 166.441 89.8217 163.742C87.2529 160.499 81.9853 161.914 81.5327 166.024C81.5283 166.064 81.5241 166.104 81.5199 166.144C81.8375 166.323 82.1485 166.513 82.4527 166.714C82.8349 166.969 83.1311 167.333 83.3024 167.76C83.4737 168.186 83.5122 168.653 83.4127 169.102C83.3133 169.55 83.0806 169.958 82.7452 170.272C82.4098 170.586 81.9872 170.791 81.5329 170.861L81.4864 170.868C81.5996 172.012 81.7996 173.145 82.0848 174.259C79.3412 184.858 85.2644 188.718 93.7218 188.892C93.9085 188.987 94.0904 189.083 94.2771 189.174C92.6712 193.72 91.6639 198.456 91.2805 203.262C91.0634 206.097 91.0762 208.945 91.3188 211.778L91.3044 211.678C90.6916 208.527 89.0093 205.685 86.5414 203.63C82.876 200.622 77.6975 199.514 73.7431 197.096C73.3229 196.827 72.8342 196.683 72.3348 196.682C71.8354 196.681 71.3461 196.822 70.9245 197.09C70.503 197.357 70.1668 197.739 69.9556 198.192C69.7444 198.644 69.6671 199.147 69.7326 199.641C69.7379 199.676 69.7433 199.712 69.7488 199.747C70.3383 199.987 70.9122 200.263 71.4673 200.574C71.785 200.753 72.0959 200.943 72.4001 201.144C72.7824 201.399 73.0785 201.764 73.2498 202.19C73.4211 202.616 73.4596 203.084 73.3601 203.532C73.2607 203.98 73.028 204.388 72.6926 204.702C72.3572 205.016 71.9346 205.222 71.4804 205.291L71.4338 205.299C71.4003 205.303 71.3716 205.308 71.3381 205.313C72.3453 207.715 73.7589 209.927 75.5171 211.85C77.2325 221.102 84.6005 221.98 92.482 219.286H92.4868C93.3515 223.04 94.6045 226.694 96.2254 230.189H109.581C109.629 230.041 109.672 229.887 109.715 229.739C108.479 229.817 107.238 229.743 106.019 229.519C107.01 228.305 108.001 227.08 108.992 225.866C109.014 225.843 109.035 225.819 109.054 225.794C109.557 225.173 110.064 224.556 110.567 223.934L110.567 223.933C110.594 222.028 110.375 220.126 109.916 218.277Z" fill="#CCCCCC"/>
<path d="M155.469 256.855C155.69 257.499 156.11 258.057 156.669 258.448C157.227 258.839 157.896 259.042 158.577 259.03L171.897 258.688C172.584 258.674 173.248 258.439 173.79 258.018C174.332 257.596 174.723 257.011 174.904 256.349L176.789 236.215C177.458 236.517 178.186 236.667 178.92 236.652C180.208 236.62 181.43 236.078 182.318 235.145C183.206 234.213 183.686 232.966 183.654 231.679C183.621 230.393 183.079 229.172 182.145 228.285C181.212 227.398 179.964 226.918 178.676 226.95C178.383 226.949 178.09 226.98 177.803 227.041C177.491 226.704 177.112 226.435 176.69 226.253C176.268 226.072 175.812 225.98 175.352 225.985L154.864 226.513C154.694 226.519 154.525 226.54 154.358 226.576C153.909 226.659 153.483 226.838 153.109 227.1C152.734 227.362 152.421 227.701 152.188 228.095C151.956 228.488 151.811 228.926 151.763 229.38C151.714 229.834 151.764 230.293 151.908 230.727L155.469 256.855ZM177.175 234.848L178.517 230.05C178.669 229.495 178.673 228.911 178.527 228.355C178.592 228.355 178.649 228.324 178.715 228.324C179.634 228.305 180.523 228.651 181.188 229.286C181.852 229.921 182.238 230.794 182.259 231.712C182.281 232.631 181.937 233.521 181.303 234.186C180.669 234.852 179.797 235.239 178.877 235.263C178.283 235.282 177.694 235.138 177.175 234.848Z" fill="#CCCCCC"/>
<path d="M154.358 226.575C154.795 229.069 159.703 230.821 165.604 230.517C171.03 230.267 175.467 228.364 176.28 226.108C175.979 226.019 175.666 225.977 175.352 225.984L154.864 226.513C154.694 226.519 154.525 226.54 154.358 226.575Z" fill="white"/>
<path d="M0.713328 332.463L449.287 332.647C449.476 332.647 449.657 332.572 449.791 332.438C449.925 332.305 450 332.124 450 331.935C450 331.746 449.925 331.564 449.791 331.431C449.657 331.297 449.476 331.222 449.287 331.222L0.713328 331.038C0.524141 331.038 0.342704 331.113 0.208929 331.247C0.0751529 331.38 0 331.562 0 331.751C0 331.94 0.0751529 332.121 0.208929 332.255C0.342704 332.388 0.524141 332.463 0.713328 332.463Z" fill="#CACACA"/>
<path d="M252.304 173.206C251.084 173.251 249.93 173.769 249.087 174.651C248.243 175.532 247.778 176.708 247.789 177.927C247.795 178.175 247.822 178.422 247.869 178.665L233.791 186.968L235.495 195.586L253.549 182.13C254.544 181.857 255.421 181.263 256.043 180.44C256.665 179.617 256.996 178.612 256.986 177.581C256.974 176.994 256.847 176.416 256.612 175.878C256.377 175.341 256.038 174.855 255.614 174.448C255.191 174.042 254.691 173.722 254.145 173.508C253.598 173.295 253.014 173.191 252.427 173.202C252.386 173.203 252.345 173.204 252.304 173.206Z" fill="#FFB6B6"/>
<path d="M240.772 193C240.395 192.496 240.233 192.285 240.148 192.343C239.927 192.476 240.139 194.256 238.589 197.36C236.406 201.719 213.52 208.397 213.52 208.397L210.703 203.244L198.309 180.598L194.037 162.446C193.887 161.813 193.815 161.165 193.821 160.514C197.63 157.837 201.674 155.511 205.905 153.565C207.596 154.523 208.885 156.057 209.536 157.887L218.068 181.783L221.472 191.324C221.472 191.324 227.477 187.034 229.656 187.822C231.831 188.614 232.449 187.503 231.027 183.947C229.605 180.39 231.739 184.051 234.222 184.284C236.711 184.52 234.222 184.284 235.398 182.775C236.573 181.266 244.171 180.416 244.171 180.416L244.333 180.753L247.277 186.804L248.12 188.542C248.12 188.542 244.999 191.926 244.245 192.6C243.489 193.279 243.255 193.232 243.625 194.006C243.991 194.777 242.08 194.742 240.772 193Z" fill="#00BFA6"/>
</g>
<defs>
<clipPath id="clip0_150_976">
<rect width="450" height="333" fill="white"/>
</clipPath>
</defs>
</svg>
