<svg width="24" height="24" viewBox="0 0 24 24" fill="none" xmlns="http://www.w3.org/2000/svg">
<path d="M3 3V7.22222H7.22222V3H5.11111H3ZM4.40741 4.40741H5.81481V5.81481H4.40741V4.40741ZM8.62963 4.40741V5.81481H21.6481V4.40741H8.62963Z" fill="black"/>
<path d="M3 7.92578V12.148H7.22222V7.92578H5.11111H3ZM4.40741 9.33319H5.81481V10.7406H4.40741V9.33319ZM8.62963 9.33319V10.7406H21.6481V9.33319H8.62963Z" fill="black"/>
<path d="M3 17.7773V21.9996H7.22222V17.7773H5.11111H3ZM4.40741 19.1848H5.81481V20.5922H4.40741V19.1848ZM8.62963 19.1848V20.5922H21.6481V19.1848H8.62963Z" fill="black"/>
<path d="M3 12.8516V17.0738H7.22222V12.8516H5.11111H3ZM4.40741 14.259H5.81481V15.6664H4.40741V14.259ZM8.62963 14.259V15.6664H21.6481V14.259H8.62963Z" fill="black"/>
</svg>
