<svg width="28" height="28" viewBox="0 0 28 28" fill="none" xmlns="http://www.w3.org/2000/svg">
<g clip-path="url(#clip0_1235_130)">
<path d="M19.9853 13.2765L15.8397 13.069C15.6969 13.0593 15.5424 13.0753 15.3929 13.1323L14.7855 13.3637L13.1832 9.15863C12.9471 8.53905 12.4746 8.03862 11.8695 7.76745C11.2645 7.49627 10.5765 7.47656 9.95691 7.71265C9.33733 7.94873 8.8369 8.42128 8.56573 9.02633C8.29455 9.63138 8.27484 10.3194 8.51093 10.939L11.4129 18.5548L9.52299 18.8469C9.33476 18.8865 8.51643 19.0699 8.10577 19.9862L7.29958 21.8022L13.932 24.829C14.4131 25.0524 14.9644 25.067 15.4597 24.8783L21.5804 22.5461C22.4962 22.1972 23.0225 21.2475 22.8266 20.2841L21.7494 14.8731C21.665 14.4531 21.4481 14.0714 21.1305 13.784C20.813 13.4965 20.4115 13.3187 19.9853 13.2765ZM20.8683 20.6772L14.7475 23.0094L9.9441 20.7946L14.1577 20.1415L10.3798 10.2268C10.2801 9.96518 10.4074 9.68127 10.669 9.58157C10.9307 9.48187 11.2146 9.60912 11.3143 9.87077L13.5148 15.6457L15.1594 15.0191L19.791 15.2661L20.8683 20.6772ZM3.21059 10.8183L5.92987 9.78217L6.46397 11.1839L1.79167 12.9642L0.0113388 8.29188L1.41303 7.75778L2.13228 9.6454C3.62727 7.05319 5.99092 4.9433 8.99988 3.79677C14.1301 1.84197 18.7733 3.41156 20.4809 5.84288L19.0138 6.4019C17.5986 4.82228 13.9633 3.51071 9.53398 5.19846C6.70257 6.27734 4.52937 8.32536 3.21059 10.8183Z" fill="black"/>
</g>
<defs>
<clipPath id="clip0_1235_130">
<rect width="24" height="24" fill="white" transform="translate(0 4.16797) rotate(-10)"/>
</clipPath>
</defs>
</svg>
