<svg width="48" height="48" viewBox="0 0 48 48" fill="none" xmlns="http://www.w3.org/2000/svg">
<path d="M8.33996 8.21389L24.102 5.53789C24.447 5.47907 24.8003 5.48881 25.1416 5.56655C25.4828 5.64428 25.8055 5.78848 26.091 5.99092C26.3766 6.19336 26.6195 6.45007 26.8058 6.74638C26.9921 7.0427 27.1182 7.37282 27.177 7.71789L31.373 32.4549C31.4918 33.1516 31.3289 33.867 30.9203 34.4437C30.5116 35.0203 29.8907 35.4111 29.194 35.5299L13.433 38.2049C12.7378 38.3205 12.0251 38.156 11.4509 37.7474C10.8767 37.3389 10.4877 36.7195 10.369 36.0249L6.15996 11.2899C6.10115 10.9448 6.11088 10.5916 6.18862 10.2503C6.26635 9.909 6.41055 9.58636 6.61299 9.30081C6.81543 9.01526 7.07214 8.77239 7.36845 8.58606C7.66477 8.39974 7.99489 8.27361 8.33996 8.21489V8.21389Z" fill="black" stroke="black" stroke-width="2" stroke-linecap="round" stroke-linejoin="round"/>
<path d="M27.5329 9.97168L37.2849 12.3997C41.2189 13.1697 42.6252 15.212 41.5039 18.5267L36.3249 39.1767C35.5702 42.0967 33.6319 43.0923 30.5099 42.1637L19.6999 39.6177C18.4059 39.331 17.1079 38.7523 15.8059 37.8817" stroke="black" stroke-width="2" stroke-linecap="round" stroke-linejoin="round"/>
</svg>
