<svg width="28" height="28" viewBox="0 0 28 28" fill="none" xmlns="http://www.w3.org/2000/svg">
<g clip-path="url(#clip0_1236_132)">
<path d="M20.3793 16.8409L16.927 14.5365C16.8094 14.4548 16.6686 14.3893 16.5111 14.3616L15.8709 14.2487L16.6524 9.81706C16.7675 9.16409 16.6185 8.49213 16.2382 7.949C15.8579 7.40587 15.2774 7.03606 14.6245 6.92092C13.9715 6.80578 13.2995 6.95475 12.7564 7.33506C12.2133 7.71536 11.8435 8.29585 11.7283 8.94882L10.3131 16.975L8.54096 16.2564C8.35905 16.1938 7.5625 15.9315 6.74 16.5074L5.11642 17.6529L9.2574 23.6531C9.55579 24.0916 10.0216 24.387 10.5435 24.479L16.994 25.6164C17.9591 25.7866 18.8981 25.2414 19.2241 24.3139L21.0748 19.1163C21.2177 18.7125 21.2274 18.2736 21.1022 17.8639C20.977 17.4543 20.7236 17.0957 20.3793 16.8409ZM17.3413 23.6468L10.8908 22.5094L7.90343 18.1443L11.8555 19.7449L13.6979 9.29612C13.7466 9.02037 14.0014 8.84191 14.2772 8.89054C14.5529 8.93916 14.7314 9.19402 14.6827 9.46976L13.6096 15.5559L15.3429 15.8615L19.192 18.4492L17.3413 23.6468ZM15.551 4.54572C10.883 3.72263 7.55992 5.69556 6.46764 7.51351L4.92149 7.24088C6.14051 4.53139 10.4049 2.11518 15.8115 3.06851C18.9825 3.62766 21.7013 5.25449 23.6579 7.51864L24.0087 5.52933L25.4859 5.7898L24.6176 10.7138L19.6936 9.8456L19.9541 8.36839L22.8199 8.8737C21.0551 6.67383 18.535 5.07188 15.551 4.54572Z" fill="black"/>
</g>
<defs>
<clipPath id="clip0_1236_132">
<rect width="24" height="24" fill="white" transform="translate(4.16748) rotate(10)"/>
</clipPath>
</defs>
</svg>
