<svg width="32" height="32" viewBox="0 0 32 32" fill="none" xmlns="http://www.w3.org/2000/svg">
<path d="M15.9453 3.23583C14.7264 3.23579 13.5311 3.57616 12.4907 4.21953C11.4503 4.86291 10.605 5.7844 10.0476 6.8828C9.49031 7.98119 9.24249 9.21399 9.33143 10.4458C9.42036 11.6776 9.8426 12.8607 10.5518 13.8652C9.74959 13.8487 8.95213 13.9934 8.20538 14.2908C7.49445 12.9863 7.11586 11.5227 7.10387 10.0326C7.09188 8.54242 7.44689 7.07278 8.13673 5.75672C8.82658 4.44066 9.82948 3.31974 11.0546 2.49545C12.2798 1.67117 13.6885 1.16956 15.1532 1.03604C16.6179 0.902518 18.0923 1.14131 19.4429 1.73078C20.7936 2.32026 21.9778 3.2418 22.8884 4.41197C23.799 5.58214 24.4071 6.96397 24.6578 8.43235C24.9085 9.90073 24.7937 11.4093 24.324 12.8214C24.1299 12.7638 23.9334 12.7152 23.7349 12.6758L22.139 12.3622C22.5243 11.3443 22.6595 10.2467 22.5327 9.16401C22.406 8.08136 22.0212 7.0462 21.4116 6.14788C20.8019 5.24955 19.9857 4.51503 19.0334 4.0077C18.081 3.50036 17.0212 3.23545 15.9453 3.23583ZM14.8423 9.95547C14.8423 9.65845 14.9587 9.37359 15.166 9.16356C15.3732 8.95353 15.6544 8.83553 15.9475 8.83553C16.2406 8.83553 16.5217 8.95353 16.729 9.16356C16.9363 9.37359 17.0527 9.65845 17.0527 9.95547V14.4352C17.0527 14.6954 17.142 14.9474 17.3053 15.1481C17.4687 15.3488 17.6959 15.4856 17.9479 15.535L22.9988 16.525C23.2979 16.5838 23.5818 16.7045 23.8326 16.8796C24.0835 17.0548 24.2959 17.2805 24.4565 17.5428C24.6172 17.8051 24.7226 18.0982 24.7662 18.4037C24.8097 18.7092 24.7905 19.0206 24.7097 19.3182L23.0298 25.5059C22.9698 25.7273 22.8441 25.9247 22.6698 26.0713C22.4954 26.218 22.2808 26.3067 22.055 26.3257L16.7941 26.7591L16.7786 26.7501C16.7497 26.7278 16.7278 26.6974 16.7156 26.6628C15.8513 24.2515 13.7536 21.3598 8.32585 19.3215C8.42193 19.0287 8.57668 18.7592 8.78039 18.5299C8.9841 18.3005 9.23237 18.1163 9.50964 17.9888C9.78691 17.8612 10.0872 17.7931 10.3917 17.7887C10.6962 17.7842 10.9982 17.8436 11.279 17.9631L13.3093 18.8276C13.4773 18.8991 13.6601 18.9273 13.8415 18.9099C14.0229 18.8925 14.1972 18.8298 14.3489 18.7276C14.5006 18.6254 14.625 18.4868 14.7111 18.3241C14.7972 18.1614 14.8422 17.9797 14.8423 17.7951V9.95547ZM15.9475 6.59565C15.0681 6.59565 14.2248 6.94963 13.6029 7.57972C12.9811 8.20981 12.6318 9.06439 12.6318 9.95547V16.1096L12.1356 15.8979C11.5546 15.6506 10.9282 15.532 10.2983 15.5501C9.66843 15.5681 9.04964 15.7224 8.48342 16.0026C7.91719 16.2828 7.46178 16.7829 7.06042 17.2752C6.65907 17.7674 6.32104 18.2405 6.15629 18.8568L6.05682 19.2286C5.94774 19.6413 5.99686 20.0805 6.1943 20.458C6.39175 20.8355 6.72288 21.1233 7.12115 21.2635C12.3599 23.1148 14.0034 25.6582 14.6378 27.4266C14.9694 28.3494 15.8712 29.0841 16.9731 28.9922L22.234 28.5577C22.9118 28.5018 23.5562 28.236 24.0799 27.7965C24.6036 27.357 24.9813 26.7649 25.1618 26.1005L26.8417 19.9117C27.0033 19.3164 27.0417 18.6937 26.9545 18.0826C26.8673 17.4715 26.6563 16.8852 26.3349 16.3607C26.0135 15.8361 25.5886 15.3846 25.0867 15.0343C24.5849 14.6841 24.017 14.4428 23.4188 14.3255L19.2632 13.5113V9.95547C19.2632 9.06439 18.9138 8.20981 18.292 7.57972C17.6702 6.94963 16.8269 6.59565 15.9475 6.59565Z" fill="black"/>
</svg>
